<?xml version="1.0" encoding="UTF-8"?>
<svg width="89px" height="70px" viewBox="0 0 89 70" version="1.1" xmlns="http://www.w3.org/2000/svg" xmlns:xlink="http://www.w3.org/1999/xlink">
    <title>Fill 1 Copy 2</title>
    <g id="Page-1" stroke="none" stroke-width="1" fill="none" fill-rule="evenodd">
        <g id="Frame" transform="translate(-722, -82)" fill="#44B9BF">
            <path d="M794.8639,84.2568918 C791.106397,85.1231442 787.347301,86.6566935 783.588603,88.8575397 C779.8315,91.0591817 776.669028,94.2337163 774.102385,98.3823373 C771.537734,102.532948 770.182674,107.709771 770.036806,113.914876 L779.035202,113.914876 C778.963862,110.163689 779.61469,106.987562 780.986489,104.389999 C782.36068,101.791639 783.986752,99.7893508 785.865104,98.3823373 C787.745848,96.9753237 790.418904,95.6220281 793.888256,94.3232463 C799.237556,101.467342 801.910611,108.359162 801.910611,114.997592 C801.910611,119.76019 800.73689,124.126866 798.387056,128.094437 C796.039215,132.063998 792.858012,135.202721 788.846635,137.511799 C787.527843,138.271013 786.163616,138.893346 784.762723,139.402672 C786.981833,136.807894 788.838664,133.888818 790.306513,130.619979 C792.924968,124.785011 793.956009,118.59431 793.395652,112.051458 C793.362573,111.664689 793.322718,111.279829 793.278878,110.897039 L784.848411,111.616939 C784.894642,111.998138 784.936888,112.381725 784.969967,112.770086 C785.376087,117.515175 784.577399,121.966607 782.576294,126.119207 C780.573993,130.273796 777.673765,133.671957 773.873619,136.312893 C771.795594,137.758504 769.569708,138.85634 767.206324,139.632267 C765.584237,139.089914 764.016353,138.383622 762.502272,137.511799 C758.490497,135.202721 755.311287,132.063998 752.961453,128.094437 C750.613612,124.126866 749.437898,119.76019 749.437898,114.997592 C749.437898,114.607639 749.447463,114.222063 749.461412,113.837681 L740.999859,113.837681 C740.988699,114.223257 740.981924,114.609231 740.981924,114.997592 C740.981924,121.564716 742.537055,127.644798 745.643331,133.236244 C746.921472,135.534977 748.395697,137.624408 750.045682,139.526821 C749.229856,139.240325 748.420407,138.924781 747.624509,138.552734 C743.430996,136.593022 739.993926,133.736419 737.315689,129.980536 C734.636257,126.227439 733.094676,121.976157 732.688158,117.230669 C732.122222,110.616511 734.197855,103.522155 738.918645,95.9499068 C742.486041,96.9486636 745.264711,98.0699771 747.258244,99.3118575 C749.250182,100.554136 751.041253,102.411187 752.631855,104.882613 C754.220463,107.354436 755.139115,110.463714 755.388206,114.207738 L764.354321,113.442555 C763.679581,107.272467 761.888111,102.229342 758.978319,98.311907 C756.067729,94.396462 752.645804,91.5024547 748.714535,89.6278955 C744.781672,87.7549281 740.905801,86.5460742 737.088119,86.0029256 C733.268842,85.4593791 728.36193,85.3348329 722.366585,85.6288892 L723.123825,94.4728609 C724.858302,94.3976557 727.324113,94.4048181 730.524446,94.4931543 C728.358741,98.0098925 726.690821,101.827053 725.520289,105.946627 C724.349756,110.065802 723.930484,114.067276 724.262872,117.949694 C724.822831,124.492944 726.888899,130.419034 730.46307,135.725576 C734.035248,141.034108 738.608177,145.079272 744.177873,147.863452 C749.747968,150.647238 755.665595,151.772132 761.930756,151.237339 C763.791572,151.078971 765.590614,150.763428 767.341432,150.326521 C770.018472,151.00854 772.792759,151.366585 775.674653,151.366585 C781.962132,151.366585 787.762587,149.742786 793.074822,146.495437 C798.387056,143.248483 802.598503,138.828885 805.705178,133.236244 C808.813447,127.644798 810.366585,121.564716 810.366585,114.997592 C810.366585,111.100769 809.60815,107.14991 808.090084,103.144935 C806.572417,99.13996 804.585261,95.4783822 802.127421,92.15861 C805.308624,91.7985005 807.76487,91.581639 809.499745,91.5092191 L809.499745,82.6334145 C803.501213,82.8498782 798.622597,83.3910372 794.8639,84.2568918" id="Fill-1-Copy-2"></path>
        </g>
    </g>
</svg>