<?xml version="1.0" encoding="UTF-8"?>
<svg width="346px" height="88px" viewBox="0 0 346 88" version="1.1" xmlns="http://www.w3.org/2000/svg" xmlns:xlink="http://www.w3.org/1999/xlink">
    <title>Artboard 1 Copy 2</title>
    <defs>
        <path d="M0,0 L346,0 L346,88 L0,88 L0,0 Z" id="path-1"></path>
    </defs>
    <g id="Artboard-1-Copy-2" stroke="none" fill="none" xlink:href="#path-1" fill-rule="evenodd">
        <path d="M67.1096935,72.4973143 C66.2434411,68.7398121 64.7098918,64.9807158 62.5090456,61.2220179 C60.3074036,57.4649143 57.132869,54.3024429 52.984248,51.7357995 C48.8336375,49.1711488 43.6568143,47.8160886 37.4517094,47.6702204 L37.4517094,56.6686171 C41.2028967,56.5972772 44.379023,57.2481046 46.9765865,58.6199038 C49.5749459,59.9940943 51.5772344,61.6201665 52.984248,63.498519 C54.3912616,65.3792629 55.7445572,68.0523184 57.043339,71.521671 C49.8992434,76.8709704 43.0074235,79.5440259 36.3689933,79.5440259 C31.6063956,79.5440259 27.2397193,78.3703046 23.2721479,76.0204708 C19.302587,73.6726298 16.1638644,70.4914267 13.8547864,66.48005 C13.095572,65.1612576 12.4732391,63.7970308 11.9639129,62.3961377 C14.5586911,64.6152481 17.4777668,66.4720791 20.7466063,67.9399281 C26.5815744,70.5583826 32.772275,71.589424 39.3151269,71.0290668 C39.7018965,70.9959874 40.0867561,70.9561326 40.4695466,70.9122925 L39.7496458,62.4818253 C39.368447,62.5280568 38.9848607,62.5703028 38.5964995,62.6033822 C33.8514099,63.0095017 29.3999786,62.2108133 25.2473786,60.2097082 C21.092789,58.2074075 17.6946283,55.3071802 15.0536925,51.5070335 C13.6080815,49.4290088 12.5102448,47.2031232 11.7343182,44.8397388 C12.276671,43.217652 12.9829632,41.6497677 13.8547864,40.1356872 C16.1638644,36.1239119 19.302587,32.9447016 23.2721479,30.5948678 C27.2397193,28.2470267 31.6063956,27.0713128 36.3689933,27.0713128 C36.7589462,27.0713128 37.144522,27.0808779 37.5289041,27.094827 L37.5289041,18.6332732 C37.1433283,18.6221139 36.7573545,18.6153386 36.3689933,18.6153386 C29.8018688,18.6153386 23.7217875,20.1704695 18.1303409,23.2767457 C15.8316086,24.5548863 13.7421775,26.0291121 11.8397647,27.6790971 C12.1262606,26.8632712 12.4418041,26.053822 12.813851,25.2579234 C14.7735631,21.0644106 17.6301667,17.6273403 21.3860494,14.9491037 C25.1391467,12.2696715 29.3904287,10.7280912 34.1359163,10.3215732 C40.7500739,9.75563627 47.8444306,11.8312696 55.4166785,16.5520602 C54.4179216,20.1194554 53.2966082,22.8981259 52.0547277,24.8916586 C50.8124493,26.8835971 48.9553983,28.6746678 46.4839726,30.2652693 C44.0121489,31.8538781 40.9028717,32.7725292 37.1588468,33.0216212 L37.9240298,41.9877356 C44.0941186,41.3129954 49.1372437,39.5215261 53.0546783,36.6117336 C56.9701233,33.701144 59.8641306,30.2792185 61.7386897,26.3479497 C63.6116572,22.4150868 64.8205111,18.5392161 65.3636597,14.7215333 C65.9072062,10.9022563 66.0317524,5.99534425 65.7376961,0 L56.8937244,0.757239518 C56.9689296,2.49171656 56.9617672,4.95752756 56.8734309,8.15786089 C53.3566928,5.99215587 49.5395318,4.32423619 45.4199583,3.15370332 C41.3007828,1.98317044 37.2993094,1.56389888 33.416891,1.89628717 C26.8736412,2.45624587 20.9475514,4.52231411 15.6410092,8.09648463 C10.3324775,11.6686624 6.28731342,16.241592 3.50313356,21.8112879 C0.719347633,27.3813824 -0.405546995,33.29901 0.129245896,39.5641706 C0.287614507,41.4249871 0.603157597,43.2240288 1.04006396,44.9748462 C0.358044768,47.6518872 -1.82806321e-07,50.4261737 -1.82806321e-07,53.3080679 C-1.82806321e-07,59.5955471 1.62379952,65.3960018 4.87114788,70.7082363 C8.11810231,76.0204708 12.5377007,80.2319182 18.1303409,83.3385929 C23.7217875,86.4468619 29.8018688,88 36.3689933,88 C40.2658161,88 44.2166752,87.2415648 48.2216503,85.7234989 C52.2266253,84.2058315 55.8882031,82.2186756 59.2079752,79.7608355 C59.5680848,82.9420386 59.7849463,85.3982844 59.8573661,87.13316 L68.7331707,87.13316 C68.5167071,81.1346274 67.975548,76.2560122 67.1096935,72.4973143" id="Fill-1" fill="#44B9BF"></path>
        <path d="M85.9479979,41.8418674 C86.4059935,43.1168196 87.1186523,44.1877157 87.9845068,45.1055697 C88.8503613,46.0238222 89.8686157,46.7376201 91.0392701,47.2477604 C92.2107204,47.8089148 93.5345705,48.0639849 94.9093533,48.0639849 C97.4563822,48.0639849 99.5203469,47.6411264 101.125918,46.7954095 C101.949594,46.3613917 102.444993,45.484588 102.444993,44.5523863 C102.444993,43.1399353 101.301795,41.9949095 99.891598,41.9949095 L97.1575509,41.9949095 C95.7473541,41.9949095 94.6041555,40.8498836 94.6041555,39.4374326 L94.6041555,38.0241846 C94.6041555,36.6117336 95.7473541,35.4667077 97.1575509,35.4667077 L108.344423,35.4667077 C109.75462,35.4667077 110.897819,36.6117336 110.897819,38.0241846 L110.897819,47.1959493 C110.897819,47.7319952 110.725125,48.2511028 110.419131,48.6907003 C108.886776,50.8934702 106.862204,52.6395051 104.380035,53.9284064 C101.630469,55.4074148 98.5243755,56.1212127 95.0617533,56.1212127 C92.3635182,56.1212127 89.8686157,55.6624849 87.5774437,54.7446309 C85.2858738,53.8263784 83.3002975,52.5514262 81.6195211,50.9193757 C79.9395405,49.3387379 78.666623,47.400404 77.7498358,45.1569823 C76.782514,42.9127635 76.3245183,40.4648871 76.3245183,37.8129546 C76.3245183,35.1100081 76.782514,32.6621317 77.6993011,30.4179129 C78.6156903,28.1740926 79.8886079,26.235958 81.5180538,24.6043061 C83.1474997,22.9722557 85.0821433,21.6973035 87.3227806,20.7790509 C89.5634179,19.8611969 92.0073878,19.4024692 94.6546902,19.4024692 C98.1169146,19.4024692 101.172076,20.065253 103.871107,21.3912193 C105.709456,22.3290006 107.263697,23.5270333 108.567253,25.0016576 C109.566408,26.1323358 109.330447,27.8931169 108.09732,28.7619496 L105.586103,30.5307017 C104.612415,31.2158042 103.277025,31.1576163 102.411967,30.3393991 C101.663894,29.6315794 100.81316,29.0497006 99.8486236,28.5818063 C98.2705082,27.8169944 96.4874687,27.4598962 94.5018924,27.4598962 C93.1275075,27.4598962 91.9055226,27.7149663 90.785005,28.2247081 C89.6139526,28.7348484 88.6466308,29.4486463 87.8317089,30.3668989 C86.9662523,31.2847529 86.3550609,32.355649 85.8970652,33.6306012 C85.4386717,34.9059519 85.1840086,36.2829322 85.1840086,37.761542 C85.1840086,39.2405504 85.4386717,40.5669152 85.9479979,41.8418674" id="Fill-2" fill="#FFFFFF"></path>
        <path d="M144.402727,47.8599288 C143.638738,49.5424353 142.620484,51.0214436 141.296634,52.2457804 C139.972385,53.4697186 138.39427,54.4381881 136.612424,55.1013705 C134.830181,55.7641543 132.844604,56.1212525 130.705832,56.1212525 C128.516525,56.1212525 126.530949,55.7641543 124.748705,55.1013705 C122.915529,54.4381881 121.336618,53.4697186 120.0637,52.2457804 C118.740248,51.0214436 117.721596,49.5424353 117.008539,47.8599288 C116.245346,46.1764658 115.888419,44.3407578 115.888419,42.3516091 L115.888419,30.8515321 C115.888419,28.5280025 117.768947,26.6440703 120.088769,26.6440703 L120.089564,26.6440703 C122.409784,26.6440703 124.290312,28.5280025 124.290312,30.8515321 L124.290312,42.198567 C124.290312,44.1367017 124.901105,45.7177381 126.123488,46.8906622 C127.29454,48.0639849 128.822121,48.6751968 130.705832,48.6751968 C132.589941,48.6751968 134.117522,48.0639849 135.288574,46.8906622 C136.459626,45.7177381 137.070818,44.1367017 137.070818,42.198567 L137.070818,30.8515321 C137.070818,28.5280025 138.951744,26.6440703 141.271565,26.6440703 C143.591387,26.6440703 145.472312,28.5280025 145.472312,30.8515321 L145.472312,42.3516091 C145.472312,44.3407578 145.115784,46.1764658 144.402727,47.8599288" id="Fill-3" fill="#FFFFFF"></path>
        <path d="M199.040296,33.5795871 C197.258052,33.5795871 195.781404,34.1407415 194.610352,35.2626516 C193.4393,36.3849603 192.879041,37.8129546 192.879041,39.5976486 L192.879041,52.0923397 C192.879041,54.036054 191.306098,55.6115108 189.365486,55.6115108 L187.990703,55.6115108 C186.050091,55.6115108 184.477148,54.036054 184.477148,52.0923397 L184.477148,39.0364942 C184.477148,37.1497722 184.834472,35.4156937 185.547131,33.8350558 C186.260188,32.2540194 187.278044,30.9280532 188.55136,29.755129 C189.824277,28.6332189 191.402393,27.7663789 193.184239,27.102798 C194.967278,26.4400141 196.901524,26.1343285 199.040296,26.1343285 C200.98051,26.1343285 202.553453,27.7097852 202.553453,29.6534995 L202.553453,30.0604161 C202.553453,32.0041304 200.98051,33.5795871 199.040296,33.5795871" id="Fill-4" fill="#FFFFFF"></path>
        <path d="M214.061439,44.1877157 C214.417968,45.1055697 214.876361,45.9213956 215.43662,46.5849766 C215.996481,47.2477604 216.709538,47.8085162 217.574994,48.1655347 C218.389518,48.5222344 219.255373,48.7266891 220.222297,48.7266891 C221.190016,48.7266891 222.106803,48.5222344 222.921327,48.1655347 C223.735851,47.8085162 224.44851,47.2477604 225.0601,46.5849766 C225.61996,45.9213956 226.078354,45.1569823 226.434882,44.1877157 C226.74008,43.2694631 226.89248,42.2499796 226.89248,41.1276709 C226.89248,40.0567748 226.74008,39.0364942 226.383552,38.0680247 C226.027023,37.1497722 225.569426,36.3335477 225.009167,35.6707639 C224.44851,35.00798 223.735851,34.4472242 222.921327,34.090126 C222.106803,33.7330278 221.190016,33.5289717 220.222297,33.5289717 C219.255373,33.5289717 218.389518,33.7330278 217.574994,34.090126 C216.709538,34.4472242 215.996481,35.00798 215.43662,35.6707639 C214.876361,36.3335477 214.417968,37.1497722 214.061439,38.0680247 C213.704911,39.0364942 213.552511,40.0567748 213.552511,41.1276709 C213.552511,42.2499796 213.704911,43.2694631 214.061439,44.1877157 M206.271136,35.2626516 C207.035125,33.3763281 208.05338,31.7944946 209.427765,30.4179129 C210.802945,29.0919466 212.431993,28.0210505 214.3165,27.2558401 C216.200609,26.4910282 218.23672,26.1343285 220.477358,26.1343285 C222.615732,26.1343285 224.601308,26.4910282 226.434882,27.153812 C228.216728,27.8680084 229.794843,28.8368765 231.119092,30.0608147 C232.392009,31.3357669 233.410264,32.8147752 234.174253,34.4978397 C234.886912,36.2319182 235.243042,38.1182417 235.243042,40.1588029 L235.243042,51.7863353 C235.243042,53.8990335 233.533616,55.6115905 231.424289,55.6115905 L231.017226,55.6115905 C228.908696,55.6115905 227.198872,53.8990335 227.198872,51.7863353 C226.434882,53.061686 225.314365,54.1325821 223.735851,54.897394 C222.157736,55.71322 220.32456,56.1213322 218.338983,56.1213322 C216.454874,56.1213322 214.672631,55.764234 213.043185,54.9990236 C211.414137,54.2852257 210.039354,53.2653436 208.867904,51.9393774 C207.697249,50.6644251 206.780462,49.0833887 206.118338,47.2987745 C205.456612,45.5140805 205.100084,43.5249318 205.100084,41.3823426 C205.100084,39.1899349 205.507545,37.1497722 206.271136,35.2626516" id="Fill-5" fill="#FFFFFF"></path>
        <path d="M158.864408,44.1877157 C159.220936,45.1055697 159.679728,45.9213956 160.239588,46.5849766 C160.799847,47.2477604 161.512506,47.8085162 162.377963,48.1655347 C163.192487,48.5222344 164.058739,48.7266891 165.025663,48.7266891 C165.993383,48.7266891 166.91017,48.5222344 167.724296,48.1655347 C168.539218,47.8085162 169.251877,47.2477604 169.863466,46.5849766 C170.422929,45.9213956 170.881322,45.1569823 171.237851,44.1877157 C171.543049,43.2694631 171.695846,42.2499796 171.695846,41.1276709 C171.695846,40.0567748 171.543049,39.0364942 171.186918,38.0680247 C170.83039,37.1497722 170.372394,36.3335477 169.812533,35.6707639 C169.251877,35.00798 168.539218,34.4472242 167.724296,34.090126 C166.91017,33.7330278 165.993383,33.5289717 165.025663,33.5289717 C164.058739,33.5289717 163.192487,33.7330278 162.377963,34.090126 C161.512506,34.4472242 160.799847,35.00798 160.239588,35.6707639 C159.679728,36.3335477 159.220936,37.1497722 158.864408,38.0680247 C158.507879,39.0364942 158.35548,40.0567748 158.35548,41.1276709 C158.35548,42.2499796 158.507879,43.2694631 158.864408,44.1877157 M151.074105,35.2626516 C151.838094,33.3763281 152.856746,31.7944946 154.231131,30.4179129 C155.605914,29.0919466 157.234962,28.0210505 159.119469,27.2558401 C161.003578,26.4910282 163.039689,26.1343285 165.280326,26.1343285 C167.419098,26.1343285 169.404674,26.4910282 171.237851,27.153812 C173.019697,27.8680084 174.59821,28.8368765 175.92206,30.0608147 C177.194978,31.3357669 178.213232,32.8147752 178.977221,34.4978397 C179.68988,36.2319182 180.046408,38.1182417 180.046408,40.1588029 L180.046408,51.7863353 C180.046408,53.8990335 178.336982,55.6115905 176.227656,55.6115905 L175.820593,55.6115905 C173.711664,55.6115905 172.00184,53.8990335 172.00184,51.7863353 C171.237851,53.061686 170.117333,54.1325821 168.539218,54.897394 C166.961102,55.71322 165.127926,56.1213322 163.141952,56.1213322 C161.257843,56.1213322 159.475599,55.764234 157.846153,54.9990236 C156.217105,54.2852257 154.84272,53.2653436 153.670872,51.9393774 C152.500218,50.6644251 151.583829,49.0833887 150.921307,47.2987745 C150.259581,45.5140805 149.903052,43.5249318 149.903052,41.3823426 C149.903052,39.1899349 150.310911,37.1497722 151.074105,35.2626516" id="Fill-6" fill="#FFFFFF"></path>
        <path d="M261.416041,40.1073903 C261.416041,38.1696543 260.805248,36.5886179 259.633798,35.3650782 C258.463143,34.1917555 256.935165,33.5795871 255.051851,33.5795871 C253.167743,33.5795871 251.639764,34.1917555 250.468712,35.3650782 C249.247125,36.5886179 248.635933,38.1696543 248.635933,40.1073903 L248.635933,51.4042083 C248.635933,53.727738 246.755008,55.6112716 244.435186,55.6112716 C242.115364,55.6112716 240.234837,53.727738 240.234837,51.4042083 L240.234837,39.9037328 C240.234837,37.9149827 240.590967,36.0278621 241.354558,34.3447976 C242.067217,32.6621317 243.086267,31.2333403 244.40972,30.0098006 C245.682637,28.7858624 247.261548,27.8165959 249.094327,27.153812 C250.876571,26.4910282 252.862147,26.1339299 255.051851,26.1339299 C257.190226,26.1339299 259.175802,26.4910282 260.958046,27.153812 C262.739892,27.8165959 264.318405,28.7858624 265.642255,30.0098006 C266.966503,31.2333403 267.984757,32.6621317 268.748747,34.3447976 C269.461406,36.0278621 269.817536,37.9149827 269.817536,39.9037328 L269.817536,51.4042083 C269.817536,53.727738 267.937008,55.6112716 265.617187,55.6112716 L265.616789,55.6112716 C263.296967,55.6112716 261.416041,53.727738 261.416041,51.4042083 L261.416041,40.1073903 Z" id="Fill-7" fill="#FFFFFF"></path>
        <path d="M288.431418,17.8409616 L288.431418,49.1642938 C288.431418,52.3869458 286.158948,54.9990236 283.355665,54.9990236 C280.552381,54.9990236 278.279911,52.3869458 278.279911,49.1642938 L278.279911,17.8409616 C278.279911,14.6187082 280.552381,12.0062318 283.355665,12.0062318 C286.158948,12.0062318 288.431418,14.6187082 288.431418,17.8409616" id="Fill-8" fill="#44B9BF"></path>
        <path d="M318.725583,35.9876088 L314.621528,27.7655818 C314.119364,26.7596489 312.678926,26.7811705 312.207003,27.8018496 L308.405361,36.0238766 C307.994319,36.9130352 308.642914,37.9297289 309.621377,37.9297289 L317.527075,37.9297289 C318.523046,37.9297289 319.171243,36.8799558 318.725583,35.9876088 M330.986019,53.5958189 C329.483905,54.3741814 327.619691,53.7512523 326.842571,52.2471354 L322.802978,44.1546363 L305.038237,44.1546363 C304.975765,44.1546363 304.922445,44.1546363 304.873104,44.1510494 C304.747762,44.1426799 304.628389,44.2048532 304.575069,44.3188377 L300.946518,52.1435132 C300.428835,53.2845536 299.289218,53.9588953 298.149601,53.9588953 C297.683647,53.9588953 297.269421,53.8552731 296.854798,53.6480286 C295.301353,52.9214772 294.628088,51.1056965 295.35348,49.5497686 L310.476886,16.8166955 C310.99417,15.7274662 312.030331,15.0531245 313.221279,15.0009148 L313.273007,15.0009148 C314.464353,15.0009148 315.500116,15.6752566 316.069924,16.7130733 L332.384279,49.4457478 C333.161001,51.0020743 332.539862,52.869666 330.986019,53.5958189" id="Fill-9" fill="#44B9BF"></path>
        <path d="M330.824467,51.262206 C330.719419,51.5635076 330.502557,51.80423 330.213674,51.938939 L330.147223,51.9720184 C329.861124,52.1202779 329.528073,52.1441907 329.210142,52.0401699 C328.884253,51.9329608 328.619244,51.7085787 328.4752,51.4295957 L323.931056,42.3265007 L305.210931,42.3265007 L303.812273,41.6238621 L299.284443,51.3869512 C299.051267,51.9006784 298.546716,52.1310387 298.149601,52.1310387 C297.975316,52.1310387 297.840424,52.0975607 297.670118,52.0122716 L297.626348,51.9911486 C297.313192,51.8444833 297.077628,51.5914059 296.962234,51.2781478 C296.848432,50.9684767 296.864348,50.6293131 297.009983,50.3172507 L312.124238,17.6026304 C312.343089,17.142707 312.759304,16.8621299 313.26863,16.829449 L313.273007,16.829449 C313.757663,16.829449 314.187407,17.0980698 314.455201,17.5679568 L330.751252,50.2630483 C330.911212,50.5830817 330.937076,50.9381872 330.824467,51.262206 M334.017306,48.6294037 L317.702553,15.8964502 L317.668731,15.8322841 C316.754729,14.1667557 315.111356,13.1731778 313.273007,13.1731778 L313.141697,13.174772 C311.279871,13.255677 309.627346,14.3500874 308.819586,16.0490938 L293.698567,48.7764676 C293.141492,49.9733046 293.083397,51.3104302 293.536618,52.5419407 C293.98387,53.7587051 294.879965,54.7355441 296.060965,55.2943071 C296.731446,55.6258983 297.415455,55.7873099 298.149601,55.7873099 C300.061961,55.7873099 301.812372,54.6542405 302.601828,52.9137852 L305.816154,45.9827719 L321.674502,45.9827719 L325.221083,53.0867546 C325.819144,54.2449326 326.832225,55.1073885 328.073708,55.5147037 C329.317578,55.9232145 330.636653,55.8243748 331.791789,55.2365178 C332.963637,54.6781533 333.843816,53.6949375 334.271571,52.4658182 C334.711661,51.2020253 334.620937,49.8389942 334.017306,48.6294037" id="Fill-10" fill="#44B9BF"></path>
        <g id="Tecnología-que-habla-guaraní." stroke-width="1" transform="translate(80.5081, 63.7599)" fill="#0D2424">
            <polygon id="Path" fill-rule="nonzero" points="9.61755444 0.266257799 9.61755444 1.67823098 5.62368745 1.67823098 5.62368745 12.1187641 3.99386699 12.1187641 3.99386699 1.67823098 0 1.67823098 0 0.266257799"></polygon>
            <path d="M12.2693788,3.28384619 C12.8825786,3.28384619 13.4769521,3.42773298 14.0524993,3.71550656 C14.6280464,4.00328014 15.0664305,4.37577211 15.3676514,4.83298248 C15.6581145,5.26867706 15.8517565,5.7769874 15.9485775,6.35791351 C16.0346407,6.75595547 16.0776722,7.39067103 16.0776722,8.26206019 L9.74396396,8.26206019 C9.77085869,9.1388283 9.97794809,9.84212541 10.3652322,10.3719515 C10.7525162,10.9017777 11.3522686,11.1666907 12.1644894,11.1666907 C12.9229207,11.1666907 13.5280521,10.9165698 13.9798835,10.4163278 C14.2380729,10.1258648 14.420957,9.7896807 14.5285359,9.40777557 L15.9566459,9.40777557 C15.9189933,9.72513335 15.7939328,10.078799 15.5814645,10.4687726 C15.3689962,10.8587461 15.1309778,11.1774486 14.8674095,11.4248801 C14.426336,11.8551957 13.880373,12.1456588 13.2295206,12.2962693 C12.8798892,12.3823324 12.4845367,12.425364 12.0434631,12.425364 C10.9676741,12.425364 10.0559428,12.0340457 9.30826938,11.2514091 C8.56059597,10.4687726 8.18675926,9.37281242 8.18675926,7.96352872 C8.18675926,6.5757608 8.56328544,5.44887173 9.3163378,4.58286151 C10.0693902,3.7168513 11.0537372,3.28384619 12.2693788,3.28384619 Z M14.5850149,7.1082764 C14.5258465,6.47893978 14.3886833,5.97600838 14.1735255,5.5994822 C13.7754836,4.90021929 13.1111838,4.55058784 12.1806262,4.55058784 C11.513637,4.55058784 10.9542267,4.79129565 10.5023953,5.27271127 C10.0505639,5.75412688 9.81120078,6.36598193 9.78430605,7.1082764 L14.5850149,7.1082764 Z" id="Shape" fill-rule="nonzero"></path>
            <path d="M22.6389099,3.22736726 C23.612499,3.22736726 24.4045487,3.46404086 25.015059,3.93738806 C25.6255693,4.41073526 25.9926823,5.22564549 26.1163981,6.38211876 L24.7044249,6.38211876 C24.6183618,5.84960316 24.4220303,5.4071849 24.1154304,5.05486397 C23.8088305,4.70254305 23.316657,4.52638259 22.6389099,4.52638259 C21.7137312,4.52638259 21.052121,4.978214 20.654079,5.88187684 C20.3958896,6.46818189 20.2667949,7.19165005 20.2667949,8.05228132 C20.2667949,8.91829154 20.4496791,9.64713864 20.8154474,10.2388226 C21.1812156,10.8305066 21.7567628,11.1263486 22.5420888,11.1263486 C23.1445307,11.1263486 23.6219121,10.9421198 23.9742331,10.573662 C24.326554,10.2052042 24.5699513,9.7009281 24.7044249,9.06083359 L26.1163981,9.06083359 C25.9550297,10.206549 25.5516088,11.0443197 24.9061354,11.5741458 C24.2606619,12.103972 23.4349938,12.368885 22.429131,12.368885 C21.2995524,12.368885 20.3985791,11.956051 19.7262109,11.1303828 C19.0538427,10.3047147 18.7176586,9.27330193 18.7176586,8.03614448 C18.7176586,6.51928187 19.0861164,5.33860335 19.8230319,4.49410891 C20.5599474,3.64961448 21.4985734,3.22736726 22.6389099,3.22736726 Z" id="Path" fill-rule="nonzero"></path>
            <path d="M29.0129215,3.47748823 L30.392621,3.47748823 L30.392621,4.70388779 C30.8014208,4.19826691 31.2344259,3.8351881 31.6916363,3.61465133 C32.1488467,3.39411457 32.657157,3.28384619 33.2165673,3.28384619 C34.4429669,3.28384619 35.2713245,3.71147235 35.7016401,4.56672468 C35.9383137,5.03469293 36.0566505,5.70437164 36.0566505,6.5757608 L36.0566505,12.1187641 L34.58013,12.1187641 L34.58013,6.67258182 C34.58013,6.14544516 34.5021353,5.72050847 34.3461459,5.39777175 C34.0879565,4.8598772 33.6199882,4.59092993 32.9422411,4.59092993 C32.5979886,4.59092993 32.315594,4.62589308 32.0950572,4.69581937 C31.6970152,4.81415617 31.3473838,5.05082977 31.0461629,5.40584016 C30.8041103,5.69092427 30.6467762,5.98542154 30.5741604,6.28933195 C30.5015446,6.59324237 30.4652367,7.02759221 30.4652367,7.59238148 L30.4652367,12.1187641 L29.0129215,12.1187641 L29.0129215,3.47748823 Z" id="Path" fill-rule="nonzero"></path>
            <path d="M43.077788,11.1828276 C44.0406192,11.1828276 44.7008848,10.818404 45.0585847,10.0895569 C45.4162845,9.3607098 45.5951345,8.54983377 45.5951345,7.65692883 C45.5951345,6.85008701 45.4660398,6.19385567 45.2078504,5.6882348 C44.7990505,4.89215088 44.0944087,4.49410891 43.0939248,4.49410891 C42.2063988,4.49410891 41.5609254,4.83298248 41.1575045,5.5107296 C40.7540836,6.18847673 40.5523731,7.00607643 40.5523731,7.96352872 C40.5523731,8.88332839 40.7540836,9.64982811 41.1575045,10.2630279 C41.5609254,10.8762277 42.2010199,11.1828276 43.077788,11.1828276 Z M43.1342669,3.22736726 C44.2477086,3.22736726 45.1890241,3.5985145 45.9582133,4.34080897 C46.7274025,5.08310344 47.1119971,6.17502936 47.1119971,7.61658674 C47.1119971,9.00973361 46.7731235,10.1608279 46.0953764,11.0698697 C45.4176293,11.9789115 44.3660454,12.4334324 42.9406249,12.4334324 C41.751878,12.4334324 40.807873,12.0313562 40.1086101,11.2272039 C39.4093472,10.4230515 39.0597158,9.34322822 39.0597158,7.98773397 C39.0597158,6.53541871 39.4281735,5.37894544 40.1650891,4.51831417 C40.9020046,3.6576829 41.8917305,3.22736726 43.1342669,3.22736726 Z" id="Shape" fill-rule="nonzero"></path>
            <polygon id="Path" fill-rule="nonzero" points="50.3248412 0.266257799 51.7771565 0.266257799 51.7771565 12.1187641 50.3248412 12.1187641"></polygon>
            <path d="M58.8305676,11.1828276 C59.7933988,11.1828276 60.4536644,10.818404 60.8113643,10.0895569 C61.1690641,9.3607098 61.3479141,8.54983377 61.3479141,7.65692883 C61.3479141,6.85008701 61.2188194,6.19385567 60.96063,5.6882348 C60.5518302,4.89215088 59.8471883,4.49410891 58.8467044,4.49410891 C57.9591785,4.49410891 57.313705,4.83298248 56.9102841,5.5107296 C56.5068632,6.18847673 56.3051527,7.00607643 56.3051527,7.96352872 C56.3051527,8.88332839 56.5068632,9.64982811 56.9102841,10.2630279 C57.313705,10.8762277 57.9537995,11.1828276 58.8305676,11.1828276 Z M58.8870465,3.22736726 C60.0004882,3.22736726 60.9418037,3.5985145 61.7109929,4.34080897 C62.4801821,5.08310344 62.8647767,6.17502936 62.8647767,7.61658674 C62.8647767,9.00973361 62.5259031,10.1608279 61.848156,11.0698697 C61.1704089,11.9789115 60.118825,12.4334324 58.6934045,12.4334324 C57.5046576,12.4334324 56.5606526,12.0313562 55.8613897,11.2272039 C55.1621268,10.4230515 54.8124954,9.34322822 54.8124954,7.98773397 C54.8124954,6.53541871 55.1809531,5.37894544 55.9178687,4.51831417 C56.6547842,3.6576829 57.6445101,3.22736726 58.8870465,3.22736726 Z" id="Shape" fill-rule="nonzero"></path>
            <path d="M69.0871408,3.32418828 C69.7648879,3.32418828 70.3565719,3.49093559 70.8621928,3.82443021 C71.136519,4.0126933 71.4162241,4.28701951 71.7013083,4.64740886 L71.7013083,3.55817241 L73.0406657,3.55817241 L73.0406657,11.4168117 C73.0406657,12.5141166 72.8792973,13.3801268 72.5565606,14.0148423 C71.9541187,15.1874524 70.8164717,15.7737575 69.1436197,15.7737575 C68.2130621,15.7737575 67.4304256,15.5653234 66.79571,15.1484551 C66.1609945,14.7315868 65.8059841,14.0793897 65.7306788,13.1918637 L67.2071993,13.1918637 C67.2771256,13.5791478 67.4169782,13.8776792 67.6267571,14.0874581 C67.9548728,14.4101948 68.4712515,14.5715632 69.1758934,14.5715632 C70.2893351,14.5715632 71.0181822,14.1789002 71.3624347,13.3935741 C71.5668346,12.9309848 71.6609662,12.1053167 71.6448293,10.9165698 C71.3543663,11.3576433 71.0047348,11.685759 70.595935,11.9009168 C70.1871351,12.1160746 69.6465511,12.2236535 68.9741829,12.2236535 C68.0382464,12.2236535 67.219302,11.8915036 66.5173496,11.2272039 C65.8153972,10.5629041 65.464421,9.4642545 65.464421,7.93125505 C65.464421,6.48431872 65.8180867,5.35474018 66.525418,4.54251942 C67.2327493,3.73029866 68.0866569,3.32418828 69.0871408,3.32418828 Z M71.7013083,7.76181827 C71.7013083,6.69140812 71.4807715,5.89801367 71.039698,5.38163491 C70.5986244,4.86525615 70.0365246,4.60706677 69.3533986,4.60706677 C68.3313989,4.60706677 67.632136,5.08579291 67.2556099,6.0432452 C67.0565889,6.55424502 66.9570784,7.22392372 66.9570784,8.05228132 C66.9570784,9.02587044 67.1547546,9.76682018 67.5501071,10.2751305 C67.9454596,10.7834409 68.4766305,11.037596 69.1436197,11.037596 C70.1871351,11.037596 70.9213612,10.5669383 71.3462979,9.62562286 C71.5829715,9.09310726 71.7013083,8.47183906 71.7013083,7.76181827 Z" id="Shape" fill-rule="nonzero"></path>
            <path d="M77.1329674,3.51783032 L78.6094879,3.51783032 L78.6094879,12.1187641 L77.1329674,12.1187641 L77.1329674,3.51783032 Z M79.7067928,0 L77.5525251,2.33177285 L76.4390834,2.33177285 L77.9156039,0 L79.7067928,0 Z" id="Shape" fill-rule="nonzero"></path>
            <path d="M83.8183425,9.8192649 C83.8183425,10.2388226 83.9716424,10.5696278 84.2782423,10.8116803 C84.5848422,11.0537329 84.947921,11.1747591 85.3674787,11.1747591 C85.8784786,11.1747591 86.3733415,11.0564223 86.8520677,10.8197487 C87.6589095,10.4270857 88.0623304,9.78430175 88.0623304,8.89139681 L88.0623304,7.72147618 C87.8848252,7.83443403 87.65622,7.92856557 87.3765149,8.00387081 C87.0968097,8.07917605 86.8224835,8.1329655 86.5535362,8.16523917 L85.6740786,8.27819703 C85.146942,8.34812332 84.7515895,8.4583917 84.4880212,8.60900217 C84.0415687,8.86181261 83.8183425,9.26523352 83.8183425,9.8192649 Z M87.3361728,6.88236069 C87.6696674,6.83932912 87.8928936,6.69947654 88.0058515,6.46280294 C88.0703988,6.33370825 88.1026725,6.14813464 88.1026725,5.90608209 C88.1026725,5.41121911 87.926512,5.0521745 87.5741911,4.82894827 C87.2218702,4.60572203 86.717594,4.49410891 86.0613627,4.49410891 C85.3029314,4.49410891 84.7650369,4.69850884 84.4476791,5.10730869 C84.2701739,5.3332244 84.1545265,5.66940849 84.1007371,6.11586096 L82.7452428,6.11586096 C82.7721376,5.05082977 83.1177348,4.30988003 83.7820346,3.89301176 C84.4463343,3.47614349 85.2168683,3.26770935 86.0936364,3.26770935 C87.1102571,3.26770935 87.9359252,3.46135139 88.5706408,3.84863546 C89.1999774,4.23591953 89.5146457,4.83836142 89.5146457,5.65596113 L89.5146457,10.6341751 C89.5146457,10.7847856 89.5455746,10.9058119 89.6074325,10.9972539 C89.6692904,11.088696 89.7997298,11.1344171 89.9987508,11.1344171 C90.0632981,11.1344171 90.1359139,11.1303828 90.2165981,11.1223144 C90.2972822,11.114246 90.3833454,11.1021434 90.4747874,11.0860065 L90.4747874,12.1591062 C90.2488717,12.2236535 90.0767455,12.2639956 89.9584087,12.2801324 C89.8400719,12.2962693 89.6787035,12.3043377 89.4743036,12.3043377 C88.9740617,12.3043377 88.6109828,12.1268325 88.3850671,11.7718221 C88.2667303,11.583559 88.1833567,11.3173012 88.1349462,10.9730487 C87.8391042,11.3603328 87.4141675,11.6965169 86.8601361,11.981601 C86.3061047,12.2666851 85.6955944,12.4092271 85.0286052,12.4092271 C84.2271423,12.4092271 83.5722557,12.1658298 83.0639454,11.6790353 C82.555635,11.1922407 82.3014798,10.5830751 82.3014798,9.85153857 C82.3014798,9.0500757 82.5516008,8.4288075 83.0518427,7.98773397 C83.5520847,7.54666045 84.208316,7.2750237 85.0205368,7.17282374 L87.3361728,6.88236069 Z" id="Shape" fill-rule="nonzero"></path>
            <path d="M98.2958214,7.91511821 C98.2958214,8.66279163 98.4007109,9.28943877 98.6104897,9.79505964 C98.981637,10.6933435 99.6459367,11.1424855 100.603389,11.1424855 C101.614631,11.1424855 102.311204,10.6691383 102.693109,9.72244388 C102.902888,9.20068617 103.007778,8.53369694 103.007778,7.72147618 C103.007778,6.97380276 102.89213,6.34984509 102.660836,5.84960316 C102.268173,4.99435084 101.576978,4.56672468 100.587252,4.56672468 C99.9579156,4.56672468 99.4186763,4.83970616 98.9695344,5.38566912 C98.5203924,5.93163208 98.2958214,6.77478178 98.2958214,7.91511821 Z M100.442021,3.28384619 C101.15742,3.28384619 101.759862,3.46404086 102.249346,3.82443021 C102.518294,4.01807224 102.776483,4.30315635 103.023914,4.67968253 L103.023914,3.47748823 L104.403614,3.47748823 L104.403614,15.5639786 L102.94323,15.5639786 L102.94323,11.1263486 C102.701178,11.5136327 102.366338,11.8215773 101.938712,12.0501825 C101.511086,12.2787877 100.977226,12.3930903 100.337131,12.3930903 C99.4173316,12.3930903 98.5943529,12.0327009 97.8681953,11.3119223 C97.1420376,10.5911436 96.7789588,9.4938387 96.7789588,8.02000765 C96.7789588,6.63761867 97.1191771,5.50266118 97.7996137,4.61513519 C98.4800503,3.72760919 99.3608526,3.28384619 100.442021,3.28384619 Z" id="Shape" fill-rule="nonzero"></path>
            <path d="M109.447989,3.47748823 L109.447989,9.21413353 C109.447989,9.65520706 109.517915,10.0155964 109.657768,10.2953016 C109.915957,10.8116803 110.397373,11.0698697 111.102015,11.0698697 C112.113256,11.0698697 112.801761,10.6180383 113.16753,9.71437546 C113.366551,9.23027037 113.466061,8.56597061 113.466061,7.72147618 L113.466061,3.47748823 L114.918377,3.47748823 L114.918377,12.1187641 L113.546745,12.1187641 L113.562882,10.843954 C113.374619,11.1720697 113.140635,11.4490854 112.86093,11.6750011 C112.306899,12.1268325 111.63453,12.3527482 110.843825,12.3527482 C109.612047,12.3527482 108.772931,11.9412589 108.326479,11.1182802 C108.084426,10.6772067 107.9634,10.0882122 107.9634,9.35129664 L107.9634,3.47748823 L109.447989,3.47748823 Z" id="Path" fill-rule="nonzero"></path>
            <path d="M122.229977,3.28384619 C122.843177,3.28384619 123.43755,3.42773298 124.013097,3.71550656 C124.588645,4.00328014 125.027029,4.37577211 125.32825,4.83298248 C125.618713,5.26867706 125.812355,5.7769874 125.909176,6.35791351 C125.995239,6.75595547 126.03827,7.39067103 126.03827,8.26206019 L119.704562,8.26206019 C119.731457,9.1388283 119.938546,9.84212541 120.32583,10.3719515 C120.713114,10.9017777 121.312867,11.1666907 122.125088,11.1666907 C122.883519,11.1666907 123.48865,10.9165698 123.940482,10.4163278 C124.198671,10.1258648 124.381555,9.7896807 124.489134,9.40777557 L125.917244,9.40777557 C125.879592,9.72513335 125.754531,10.078799 125.542063,10.4687726 C125.329594,10.8587461 125.091576,11.1774486 124.828008,11.4248801 C124.386934,11.8551957 123.840971,12.1456588 123.190119,12.2962693 C122.840487,12.3823324 122.445135,12.425364 122.004061,12.425364 C120.928272,12.425364 120.016541,12.0340457 119.268868,11.2514091 C118.521194,10.4687726 118.147357,9.37281242 118.147357,7.96352872 C118.147357,6.5757608 118.523884,5.44887173 119.276936,4.58286151 C120.029988,3.7168513 121.014335,3.28384619 122.229977,3.28384619 Z M124.545613,7.1082764 C124.486445,6.47893978 124.349282,5.97600838 124.134124,5.5994822 C123.736082,4.90021929 123.071782,4.55058784 122.141224,4.55058784 C121.474235,4.55058784 120.914825,4.79129565 120.462993,5.27271127 C120.011162,5.75412688 119.771799,6.36598193 119.744904,7.1082764 L124.545613,7.1082764 Z" id="Shape" fill-rule="nonzero"></path>
            <path d="M134.178749,0.225915708 L135.631065,0.225915708 L135.631065,4.64740886 C135.975317,4.21171428 136.284606,3.90511439 136.558933,3.72760919 C137.026901,3.4210093 137.610516,3.26770935 138.309779,3.26770935 C139.563074,3.26770935 140.412947,3.70609341 140.859399,4.58286151 C141.101452,5.06158766 141.222478,5.72588742 141.222478,6.5757608 L141.222478,12.1187641 L139.729821,12.1187641 L139.729821,6.67258182 C139.729821,6.03786625 139.649137,5.57258747 139.487768,5.27674547 C139.2242,4.80339828 138.729337,4.56672468 138.003179,4.56672468 C137.400738,4.56672468 136.854775,4.77381408 136.365291,5.18799287 C135.875807,5.60217167 135.631065,6.38480823 135.631065,7.53590256 L135.631065,12.1187641 L134.178749,12.1187641 L134.178749,0.225915708 Z" id="Path" fill-rule="nonzero"></path>
            <path d="M145.92798,9.8192649 C145.92798,10.2388226 146.08128,10.5696278 146.38788,10.8116803 C146.694479,11.0537329 147.057558,11.1747591 147.477116,11.1747591 C147.988116,11.1747591 148.482979,11.0564223 148.961705,10.8197487 C149.768547,10.4270857 150.171968,9.78430175 150.171968,8.89139681 L150.171968,7.72147618 C149.994463,7.83443403 149.765857,7.92856557 149.486152,8.00387081 C149.206447,8.07917605 148.932121,8.1329655 148.663174,8.16523917 L147.783716,8.27819703 C147.256579,8.34812332 146.861227,8.4583917 146.597658,8.60900217 C146.151206,8.86181261 145.92798,9.26523352 145.92798,9.8192649 Z M149.44581,6.88236069 C149.779305,6.83932912 150.002531,6.69947654 150.115489,6.46280294 C150.180036,6.33370825 150.21231,6.14813464 150.21231,5.90608209 C150.21231,5.41121911 150.036149,5.0521745 149.683828,4.82894827 C149.331507,4.60572203 148.827231,4.49410891 148.171,4.49410891 C147.412569,4.49410891 146.874674,4.69850884 146.557316,5.10730869 C146.379811,5.3332244 146.264164,5.66940849 146.210374,6.11586096 L144.85488,6.11586096 C144.881775,5.05082977 145.227372,4.30988003 145.891672,3.89301176 C146.555972,3.47614349 147.326506,3.26770935 148.203274,3.26770935 C149.219894,3.26770935 150.045562,3.46135139 150.680278,3.84863546 C151.309615,4.23591953 151.624283,4.83836142 151.624283,5.65596113 L151.624283,10.6341751 C151.624283,10.7847856 151.655212,10.9058119 151.71707,10.9972539 C151.778928,11.088696 151.909367,11.1344171 152.108388,11.1344171 C152.172935,11.1344171 152.245551,11.1303828 152.326235,11.1223144 C152.40692,11.114246 152.492983,11.1021434 152.584425,11.0860065 L152.584425,12.1591062 C152.358509,12.2236535 152.186383,12.2639956 152.068046,12.2801324 C151.949709,12.2962693 151.788341,12.3043377 151.583941,12.3043377 C151.083699,12.3043377 150.72062,12.1268325 150.494704,11.7718221 C150.376368,11.583559 150.292994,11.3173012 150.244583,10.9730487 C149.948741,11.3603328 149.523805,11.6965169 148.969773,11.981601 C148.415742,12.2666851 147.805232,12.4092271 147.138242,12.4092271 C146.33678,12.4092271 145.681893,12.1658298 145.173583,11.6790353 C144.665272,11.1922407 144.411117,10.5830751 144.411117,9.85153857 C144.411117,9.0500757 144.661238,8.4288075 145.16148,7.98773397 C145.661722,7.54666045 146.317953,7.2750237 147.130174,7.17282374 L149.44581,6.88236069 Z" id="Shape" fill-rule="nonzero"></path>
            <path d="M155.337369,0.225915708 L156.749342,0.225915708 L156.749342,4.52638259 C157.0667,4.11220379 157.445916,3.79619074 157.886989,3.57834345 C158.328063,3.36049616 158.806789,3.25157252 159.323168,3.25157252 C160.398957,3.25157252 161.271691,3.62137502 161.941369,4.36098001 C162.611048,5.10058501 162.945887,6.1911662 162.945887,7.63272358 C162.945887,8.99897572 162.615082,10.1339332 161.953472,11.037596 C161.291862,11.9412589 160.374751,12.3930903 159.202141,12.3930903 C158.54591,12.3930903 157.991879,12.2344114 157.540047,11.9170536 C157.2711,11.7287905 156.983326,11.4275696 156.676726,11.0133908 L156.676726,12.1187641 L155.337369,12.1187641 L155.337369,0.225915708 Z M159.113389,11.1102118 C159.898715,11.1102118 160.486365,10.798233 160.876338,10.1742753 C161.266312,9.55031762 161.461298,8.72733897 161.461298,7.70533934 C161.461298,6.79629756 161.266312,6.0432452 160.876338,5.44618226 C160.486365,4.84911931 159.912162,4.55058784 159.153731,4.55058784 C158.492121,4.55058784 157.912539,4.79532986 157.414987,5.28481389 C156.917434,5.77429793 156.668658,6.58113974 156.668658,7.70533934 C156.668658,8.5175601 156.770858,9.17648092 156.975258,9.68210179 C157.357163,10.6341751 158.069873,11.1102118 159.113389,11.1102118 Z" id="Shape" fill-rule="nonzero"></path>
            <polygon id="Path" fill-rule="nonzero" points="166.126458 0.266257799 167.578773 0.266257799 167.578773 12.1187641 166.126458 12.1187641"></polygon>
            <path d="M172.316548,9.8192649 C172.316548,10.2388226 172.469848,10.5696278 172.776448,10.8116803 C173.083048,11.0537329 173.446127,11.1747591 173.865684,11.1747591 C174.376684,11.1747591 174.871547,11.0564223 175.350273,10.8197487 C176.157115,10.4270857 176.560536,9.78430175 176.560536,8.89139681 L176.560536,7.72147618 C176.383031,7.83443403 176.154426,7.92856557 175.874721,8.00387081 C175.595015,8.07917605 175.320689,8.1329655 175.051742,8.16523917 L174.172284,8.27819703 C173.645148,8.34812332 173.249795,8.4583917 172.986227,8.60900217 C172.539774,8.86181261 172.316548,9.26523352 172.316548,9.8192649 Z M175.834378,6.88236069 C176.167873,6.83932912 176.391099,6.69947654 176.504057,6.46280294 C176.568605,6.33370825 176.600878,6.14813464 176.600878,5.90608209 C176.600878,5.41121911 176.424718,5.0521745 176.072397,4.82894827 C175.720076,4.60572203 175.2158,4.49410891 174.559568,4.49410891 C173.801137,4.49410891 173.263243,4.69850884 172.945885,5.10730869 C172.76838,5.3332244 172.652732,5.66940849 172.598943,6.11586096 L171.243449,6.11586096 C171.270343,5.05082977 171.615941,4.30988003 172.28024,3.89301176 C172.94454,3.47614349 173.715074,3.26770935 174.591842,3.26770935 C175.608463,3.26770935 176.434131,3.46135139 177.068846,3.84863546 C177.698183,4.23591953 178.012851,4.83836142 178.012851,5.65596113 L178.012851,10.6341751 C178.012851,10.7847856 178.04378,10.9058119 178.105638,10.9972539 C178.167496,11.088696 178.297936,11.1344171 178.496956,11.1344171 C178.561504,11.1344171 178.63412,11.1303828 178.714804,11.1223144 C178.795488,11.114246 178.881551,11.1021434 178.972993,11.0860065 L178.972993,12.1591062 C178.747077,12.2236535 178.574951,12.2639956 178.456614,12.2801324 C178.338278,12.2962693 178.176909,12.3043377 177.972509,12.3043377 C177.472267,12.3043377 177.109189,12.1268325 176.883273,11.7718221 C176.764936,11.583559 176.681562,11.3173012 176.633152,10.9730487 C176.33731,11.3603328 175.912373,11.6965169 175.358342,11.981601 C174.80431,12.2666851 174.1938,12.4092271 173.526811,12.4092271 C172.725348,12.4092271 172.070461,12.1658298 171.562151,11.6790353 C171.053841,11.1922407 170.799686,10.5830751 170.799686,9.85153857 C170.799686,9.0500757 171.049807,8.4288075 171.550048,7.98773397 C172.05029,7.54666045 172.706522,7.2750237 173.518742,7.17282374 L175.834378,6.88236069 Z" id="Shape" fill-rule="nonzero"></path>
            <path d="M189.635014,3.32418828 C190.312761,3.32418828 190.904445,3.49093559 191.410066,3.82443021 C191.684392,4.0126933 191.964097,4.28701951 192.249181,4.64740886 L192.249181,3.55817241 L193.588539,3.55817241 L193.588539,11.4168117 C193.588539,12.5141166 193.427171,13.3801268 193.104434,14.0148423 C192.501992,15.1874524 191.364345,15.7737575 189.691493,15.7737575 C188.760935,15.7737575 187.978299,15.5653234 187.343583,15.1484551 C186.708868,14.7315868 186.353857,14.0793897 186.278552,13.1918637 L187.755073,13.1918637 C187.824999,13.5791478 187.964851,13.8776792 188.17463,14.0874581 C188.502746,14.4101948 189.019125,14.5715632 189.723767,14.5715632 C190.837208,14.5715632 191.566055,14.1789002 191.910308,13.3935741 C192.114708,12.9309848 192.208839,12.1053167 192.192703,10.9165698 C191.90224,11.3576433 191.552608,11.685759 191.143808,11.9009168 C190.735008,12.1160746 190.194424,12.2236535 189.522056,12.2236535 C188.58612,12.2236535 187.767175,11.8915036 187.065223,11.2272039 C186.36327,10.5629041 186.012294,9.4642545 186.012294,7.93125505 C186.012294,6.48431872 186.36596,5.35474018 187.073291,4.54251942 C187.780623,3.73029866 188.63453,3.32418828 189.635014,3.32418828 Z M192.249181,7.76181827 C192.249181,6.69140812 192.028645,5.89801367 191.587571,5.38163491 C191.146498,4.86525615 190.584398,4.60706677 189.901272,4.60706677 C188.879272,4.60706677 188.180009,5.08579291 187.803483,6.0432452 C187.604462,6.55424502 187.504952,7.22392372 187.504952,8.05228132 C187.504952,9.02587044 187.702628,9.76682018 188.09798,10.2751305 C188.493333,10.7834409 189.024504,11.037596 189.691493,11.037596 C190.735008,11.037596 191.469234,10.5669383 191.894171,9.62562286 C192.130845,9.09310726 192.249181,8.47183906 192.249181,7.76181827 Z" id="Shape" fill-rule="nonzero"></path>
            <path d="M198.673256,3.47748823 L198.673256,9.21413353 C198.673256,9.65520706 198.743182,10.0155964 198.883035,10.2953016 C199.141224,10.8116803 199.62264,11.0698697 200.327282,11.0698697 C201.338523,11.0698697 202.027029,10.6180383 202.392797,9.71437546 C202.591818,9.23027037 202.691328,8.56597061 202.691328,7.72147618 L202.691328,3.47748823 L204.143644,3.47748823 L204.143644,12.1187641 L202.772012,12.1187641 L202.788149,10.843954 C202.599886,11.1720697 202.365902,11.4490854 202.086197,11.6750011 C201.532166,12.1268325 200.859797,12.3527482 200.069092,12.3527482 C198.837314,12.3527482 197.998198,11.9412589 197.551746,11.1182802 C197.309693,10.6772067 197.188667,10.0882122 197.188667,9.35129664 L197.188667,3.47748823 L198.673256,3.47748823 Z" id="Path" fill-rule="nonzero"></path>
            <path d="M208.970171,9.8192649 C208.970171,10.2388226 209.123471,10.5696278 209.430071,10.8116803 C209.736671,11.0537329 210.09975,11.1747591 210.519308,11.1747591 C211.030307,11.1747591 211.52517,11.0564223 212.003897,10.8197487 C212.810738,10.4270857 213.214159,9.78430175 213.214159,8.89139681 L213.214159,7.72147618 C213.036654,7.83443403 212.808049,7.92856557 212.528344,8.00387081 C212.248639,8.07917605 211.974312,8.1329655 211.705365,8.16523917 L210.825907,8.27819703 C210.298771,8.34812332 209.903418,8.4583917 209.63985,8.60900217 C209.193398,8.86181261 208.970171,9.26523352 208.970171,9.8192649 Z M212.488002,6.88236069 C212.821496,6.83932912 213.044722,6.69947654 213.15768,6.46280294 C213.222228,6.33370825 213.254501,6.14813464 213.254501,5.90608209 C213.254501,5.41121911 213.078341,5.0521745 212.72602,4.82894827 C212.373699,4.60572203 211.869423,4.49410891 211.213192,4.49410891 C210.45476,4.49410891 209.916866,4.69850884 209.599508,5.10730869 C209.422003,5.3332244 209.306355,5.66940849 209.252566,6.11586096 L207.897072,6.11586096 C207.923966,5.05082977 208.269564,4.30988003 208.933863,3.89301176 C209.598163,3.47614349 210.368697,3.26770935 211.245465,3.26770935 C212.262086,3.26770935 213.087754,3.46135139 213.72247,3.84863546 C214.351806,4.23591953 214.666474,4.83836142 214.666474,5.65596113 L214.666474,10.6341751 C214.666474,10.7847856 214.697403,10.9058119 214.759261,10.9972539 C214.821119,11.088696 214.951559,11.1344171 215.15058,11.1344171 C215.215127,11.1344171 215.287743,11.1303828 215.368427,11.1223144 C215.449111,11.114246 215.535174,11.1021434 215.626616,11.0860065 L215.626616,12.1591062 C215.400701,12.2236535 215.228574,12.2639956 215.110237,12.2801324 C214.991901,12.2962693 214.830532,12.3043377 214.626132,12.3043377 C214.12589,12.3043377 213.762812,12.1268325 213.536896,11.7718221 C213.418559,11.583559 213.335186,11.3173012 213.286775,10.9730487 C212.990933,11.3603328 212.565996,11.6965169 212.011965,11.981601 C211.457934,12.2666851 210.847423,12.4092271 210.180434,12.4092271 C209.378971,12.4092271 208.724085,12.1658298 208.215774,11.6790353 C207.707464,11.1922407 207.453309,10.5830751 207.453309,9.85153857 C207.453309,9.0500757 207.70343,8.4288075 208.203672,7.98773397 C208.703913,7.54666045 209.360145,7.2750237 210.172366,7.17282374 L212.488002,6.88236069 Z" id="Shape" fill-rule="nonzero"></path>
            <path d="M218.53286,3.47748823 L219.91256,3.47748823 L219.91256,4.97014558 C220.025518,4.67968253 220.302534,4.32601687 220.743607,3.9091486 C221.184681,3.49228033 221.692991,3.28384619 222.268538,3.28384619 C222.295433,3.28384619 222.341154,3.28653566 222.405701,3.29191461 C222.470249,3.29729355 222.580517,3.30805144 222.736506,3.32418828 L222.736506,4.85718773 C222.650443,4.84105089 222.571104,4.830293 222.498488,4.82491406 C222.425872,4.81953511 222.346533,4.81684564 222.26047,4.81684564 C221.528933,4.81684564 220.966833,5.0521745 220.57417,5.52283223 C220.181507,5.99348995 219.985176,6.53541871 219.985176,7.14861849 L219.985176,12.1187641 L218.53286,12.1187641 L218.53286,3.47748823 Z" id="Path" fill-rule="nonzero"></path>
            <path d="M226.552829,9.8192649 C226.552829,10.2388226 226.706129,10.5696278 227.012729,10.8116803 C227.319329,11.0537329 227.682408,11.1747591 228.101966,11.1747591 C228.612966,11.1747591 229.107828,11.0564223 229.586555,10.8197487 C230.393396,10.4270857 230.796817,9.78430175 230.796817,8.89139681 L230.796817,7.72147618 C230.619312,7.83443403 230.390707,7.92856557 230.111002,8.00387081 C229.831297,8.07917605 229.55697,8.1329655 229.288023,8.16523917 L228.408566,8.27819703 C227.881429,8.34812332 227.486076,8.4583917 227.222508,8.60900217 C226.776056,8.86181261 226.552829,9.26523352 226.552829,9.8192649 Z M230.07066,6.88236069 C230.404154,6.83932912 230.627381,6.69947654 230.740338,6.46280294 C230.804886,6.33370825 230.837159,6.14813464 230.837159,5.90608209 C230.837159,5.41121911 230.660999,5.0521745 230.308678,4.82894827 C229.956357,4.60572203 229.452081,4.49410891 228.79585,4.49410891 C228.037418,4.49410891 227.499524,4.69850884 227.182166,5.10730869 C227.004661,5.3332244 226.889013,5.66940849 226.835224,6.11586096 L225.47973,6.11586096 C225.506625,5.05082977 225.852222,4.30988003 226.516522,3.89301176 C227.180821,3.47614349 227.951355,3.26770935 228.828123,3.26770935 C229.844744,3.26770935 230.670412,3.46135139 231.305128,3.84863546 C231.934464,4.23591953 232.249133,4.83836142 232.249133,5.65596113 L232.249133,10.6341751 C232.249133,10.7847856 232.280062,10.9058119 232.341919,10.9972539 C232.403777,11.088696 232.534217,11.1344171 232.733238,11.1344171 C232.797785,11.1344171 232.870401,11.1303828 232.951085,11.1223144 C233.031769,11.114246 233.117832,11.1021434 233.209274,11.0860065 L233.209274,12.1591062 C232.983359,12.2236535 232.811232,12.2639956 232.692896,12.2801324 C232.574559,12.2962693 232.41319,12.3043377 232.208791,12.3043377 C231.708549,12.3043377 231.34547,12.1268325 231.119554,11.7718221 C231.001217,11.583559 230.917844,11.3173012 230.869433,10.9730487 C230.573591,11.3603328 230.148654,11.6965169 229.594623,11.981601 C229.040592,12.2666851 228.430081,12.4092271 227.763092,12.4092271 C226.961629,12.4092271 226.306743,12.1658298 225.798432,11.6790353 C225.290122,11.1922407 225.035967,10.5830751 225.035967,9.85153857 C225.035967,9.0500757 225.286088,8.4288075 225.78633,7.98773397 C226.286572,7.54666045 226.942803,7.2750237 227.755024,7.17282374 L230.07066,6.88236069 Z" id="Shape" fill-rule="nonzero"></path>
            <path d="M236.075177,3.47748823 L237.454876,3.47748823 L237.454876,4.70388779 C237.863676,4.19826691 238.296681,3.8351881 238.753891,3.61465133 C239.211102,3.39411457 239.719412,3.28384619 240.278822,3.28384619 C241.505222,3.28384619 242.33358,3.71147235 242.763895,4.56672468 C243.000569,5.03469293 243.118906,5.70437164 243.118906,6.5757608 L243.118906,12.1187641 L241.642385,12.1187641 L241.642385,6.67258182 C241.642385,6.14544516 241.56439,5.72050847 241.408401,5.39777175 C241.150212,4.8598772 240.682243,4.59092993 240.004496,4.59092993 C239.660244,4.59092993 239.377849,4.62589308 239.157312,4.69581937 C238.75927,4.81415617 238.409639,5.05082977 238.108418,5.40584016 C237.866365,5.69092427 237.709031,5.98542154 237.636415,6.28933195 C237.5638,6.59324237 237.527492,7.02759221 237.527492,7.59238148 L237.527492,12.1187641 L236.075177,12.1187641 L236.075177,3.47748823 Z" id="Path" fill-rule="nonzero"></path>
            <path d="M247.170865,3.51783032 L248.647386,3.51783032 L248.647386,12.1187641 L247.170865,12.1187641 L247.170865,3.51783032 Z M249.744691,0 L247.590423,2.33177285 L246.476981,2.33177285 L247.953502,0 L249.744691,0 Z" id="Shape" fill-rule="nonzero"></path>
            <polygon id="Path" fill-rule="nonzero" points="253.089741 10.3598489 254.77604 10.3598489 254.77604 12.1187641 253.089741 12.1187641"></polygon>
        </g>
    </g>
</svg>