<?xml version="1.0" encoding="UTF-8"?>
<svg width="336px" height="88px" viewBox="0 0 336 88" version="1.1" xmlns="http://www.w3.org/2000/svg" xmlns:xlink="http://www.w3.org/1999/xlink">
    <title>Group</title>
    <g id="Page-1" stroke="none" stroke-width="1" fill="none" fill-rule="evenodd">
        <g id="Frame" transform="translate(-71, -206)" fill="#000000">
            <g id="Group" transform="translate(71, 206)">
                <path d="M67.1096937,72.4973143 C66.2434413,68.7398121 64.709892,64.9807158 62.5090458,61.2220179 C60.3074037,57.4649143 57.1328691,54.3024429 52.9842482,51.7357995 C48.8336377,49.1711488 43.6568145,47.8160886 37.4517095,47.6702204 L37.4517095,56.6686171 C41.2028969,56.5972772 44.3790231,57.2481046 46.9765867,58.6199038 C49.574946,59.9940943 51.5772346,61.6201665 52.9842482,63.498519 C54.3912618,65.3792629 55.7445574,68.0523184 57.0433391,71.521671 C49.8992436,76.8709704 43.0074236,79.5440259 36.3689935,79.5440259 C31.6063957,79.5440259 27.2397195,78.3703046 23.2721481,76.0204708 C19.3025872,73.6726298 16.1638646,70.4914267 13.8547866,66.48005 C13.0955722,65.1612576 12.4732393,63.7970308 11.9639131,62.3961377 C14.5586913,64.6152481 17.477767,66.4720791 20.7466065,67.9399281 C26.5815746,70.5583826 32.7722752,71.589424 39.3151271,71.0290668 C39.7018967,70.9959874 40.0867563,70.9561326 40.4695468,70.9122925 L39.749646,62.4818253 C39.3684472,62.5280568 38.9848609,62.5703028 38.5964997,62.6033822 C33.8514101,63.0095017 29.3999788,62.2108133 25.2473787,60.2097082 C21.0927891,58.2074075 17.6946285,55.3071802 15.0536926,51.5070335 C13.6080817,49.4290088 12.510245,47.2031232 11.7343184,44.8397388 C12.2766712,43.217652 12.9829634,41.6497677 13.8547866,40.1356872 C16.1638646,36.1239119 19.3025872,32.9447016 23.2721481,30.5948678 C27.2397195,28.2470267 31.6063957,27.0713128 36.3689935,27.0713128 C36.7589463,27.0713128 37.1445222,27.0808779 37.5289043,27.094827 L37.5289043,18.6332732 C37.1433284,18.6221139 36.7573547,18.6153386 36.3689935,18.6153386 C29.801869,18.6153386 23.7217877,20.1704695 18.1303411,23.2767457 C15.8316088,24.5548863 13.7421777,26.0291121 11.8397648,27.6790971 C12.1262608,26.8632712 12.4418043,26.053822 12.8138512,25.2579234 C14.7735632,21.0644106 17.6301669,17.6273403 21.3860496,14.9491037 C25.1391469,12.2696715 29.3904289,10.7280912 34.1359165,10.3215732 C40.7500741,9.75563627 47.8444308,11.8312696 55.4166786,16.5520602 C54.4179218,20.1194554 53.2966084,22.8981259 52.0547279,24.8916586 C50.8124495,26.8835971 48.9553985,28.6746678 46.4839728,30.2652693 C44.0121491,31.8538781 40.9028719,32.7725292 37.158847,33.0216212 L37.92403,41.9877356 C44.0941188,41.3129954 49.1372439,39.5215261 53.0546785,36.6117336 C56.9701235,33.701144 59.8641308,30.2792185 61.7386899,26.3479497 C63.6116574,22.4150868 64.8205112,18.5392161 65.3636599,14.7215333 C65.9072064,10.9022563 66.0317526,5.99534425 65.7376963,0 L56.8937246,0.757239518 C56.9689298,2.49171656 56.9617674,4.95752756 56.8734311,8.15786089 C53.356693,5.99215587 49.539532,4.32423619 45.4199585,3.15370332 C41.300783,1.98317044 37.2993096,1.56389888 33.4168912,1.89628717 C26.8736413,2.45624587 20.9475516,4.52231411 15.6410094,8.09648463 C10.3324777,11.6686624 6.2873136,16.241592 3.50313374,21.8112879 C0.719347816,27.3813824 -0.405546813,33.29901 0.129246079,39.5641706 C0.28761469,41.4249871 0.60315778,43.2240288 1.04006415,44.9748462 C0.358044951,47.6518872 0,50.4261737 0,53.3080679 C0,59.5955471 1.6237997,65.3960018 4.87114806,70.7082363 C8.11810249,76.0204708 12.5377009,80.2319182 18.1303411,83.3385929 C23.7217877,86.4468619 29.801869,88 36.3689935,88 C40.2658163,88 44.2166754,87.2415648 48.2216505,85.7234989 C52.2266255,84.2058315 55.8882033,82.2186756 59.2079754,79.7608355 C59.568085,82.9420386 59.7849465,85.3982844 59.8573663,87.13316 L68.7331709,87.13316 C68.5167073,81.1346274 67.9755482,76.2560122 67.1096937,72.4973143" id="Fill-1"></path>
                <path d="M85.947998,41.8418674 C86.4059937,43.1168196 87.1186524,44.1877157 87.984507,45.1055697 C88.8503615,46.0238222 89.8686159,46.7376201 91.0392703,47.2477604 C92.2107206,47.8089148 93.5345707,48.0639849 94.9093535,48.0639849 C97.4563823,48.0639849 99.5203471,47.6411264 101.125918,46.7954095 C101.949594,46.3613917 102.444994,45.484588 102.444994,44.5523863 C102.444994,43.1399353 101.301795,41.9949095 99.8915982,41.9949095 L97.1575511,41.9949095 C95.7473542,41.9949095 94.6041557,40.8498836 94.6041557,39.4374326 L94.6041557,38.0241846 C94.6041557,36.6117336 95.7473542,35.4667077 97.1575511,35.4667077 L108.344423,35.4667077 C109.75462,35.4667077 110.897819,36.6117336 110.897819,38.0241846 L110.897819,47.1959493 C110.897819,47.7319952 110.725125,48.2511028 110.419132,48.6907003 C108.886776,50.8934702 106.862204,52.6395051 104.380035,53.9284064 C101.63047,55.4074148 98.5243757,56.1212127 95.0617535,56.1212127 C92.3635184,56.1212127 89.8686159,55.6624849 87.5774439,54.7446309 C85.285874,53.8263784 83.3002977,52.5514262 81.6195213,50.9193757 C79.9395407,49.3387379 78.6666231,47.400404 77.749836,45.1569823 C76.7825142,42.9127635 76.3245185,40.4648871 76.3245185,37.8129546 C76.3245185,35.1100081 76.7825142,32.6621317 77.6993013,30.4179129 C78.6156905,28.1740926 79.8886081,26.235958 81.518054,24.6043061 C83.1474998,22.9722557 85.0821435,21.6973035 87.3227808,20.7790509 C89.5634181,19.8611969 92.007388,19.4024692 94.6546904,19.4024692 C98.1169147,19.4024692 101.172076,20.065253 103.871107,21.3912193 C105.709456,22.3290006 107.263697,23.5270333 108.567253,25.0016576 C109.566408,26.1323358 109.330447,27.8931169 108.09732,28.7619496 L105.586104,30.5307017 C104.612415,31.2158042 103.277026,31.1576163 102.411967,30.3393991 C101.663894,29.6315794 100.81316,29.0497006 99.8486238,28.5818063 C98.2705084,27.8169944 96.4874689,27.4598962 94.5018926,27.4598962 C93.1275077,27.4598962 91.9055228,27.7149663 90.7850051,28.2247081 C89.6139528,28.7348484 88.646631,29.4486463 87.8317091,30.3668989 C86.9662525,31.2847529 86.3550611,32.355649 85.8970654,33.6306012 C85.4386718,34.9059519 85.1840088,36.2829322 85.1840088,37.761542 C85.1840088,39.2405504 85.4386718,40.5669152 85.947998,41.8418674" id="Fill-2"></path>
                <path d="M144.402728,47.8599288 C143.638738,49.5424353 142.620484,51.0214436 141.296634,52.2457804 C139.972386,53.4697186 138.39427,54.4381881 136.612424,55.1013705 C134.830181,55.7641543 132.844604,56.1212525 130.705832,56.1212525 C128.516526,56.1212525 126.530949,55.7641543 124.748706,55.1013705 C122.915529,54.4381881 121.336618,53.4697186 120.0637,52.2457804 C118.740248,51.0214436 117.721596,49.5424353 117.008539,47.8599288 C116.245346,46.1764658 115.888419,44.3407578 115.888419,42.3516091 L115.888419,30.8515321 C115.888419,28.5280025 117.768947,26.6440703 120.088769,26.6440703 L120.089565,26.6440703 C122.409784,26.6440703 124.290312,28.5280025 124.290312,30.8515321 L124.290312,42.198567 C124.290312,44.1367017 124.901105,45.7177381 126.123488,46.8906622 C127.294541,48.0639849 128.822121,48.6751968 130.705832,48.6751968 C132.589941,48.6751968 134.117522,48.0639849 135.288574,46.8906622 C136.459627,45.7177381 137.070818,44.1367017 137.070818,42.198567 L137.070818,30.8515321 C137.070818,28.5280025 138.951744,26.6440703 141.271565,26.6440703 C143.591387,26.6440703 145.472313,28.5280025 145.472313,30.8515321 L145.472313,42.3516091 C145.472313,44.3407578 145.115784,46.1764658 144.402728,47.8599288" id="Fill-3"></path>
                <path d="M199.040296,33.5795871 C197.258052,33.5795871 195.781404,34.1407415 194.610352,35.2626516 C193.4393,36.3849603 192.879041,37.8129546 192.879041,39.5976486 L192.879041,52.0923397 C192.879041,54.036054 191.306098,55.6115108 189.365486,55.6115108 L187.990703,55.6115108 C186.050091,55.6115108 184.477148,54.036054 184.477148,52.0923397 L184.477148,39.0364942 C184.477148,37.1497722 184.834473,35.4156937 185.547131,33.8350558 C186.260188,32.2540194 187.278045,30.9280532 188.55136,29.755129 C189.824278,28.6332189 191.402393,27.7663789 193.184239,27.102798 C194.967278,26.4400141 196.901524,26.1343285 199.040296,26.1343285 C200.980511,26.1343285 202.553453,27.7097852 202.553453,29.6534995 L202.553453,30.0604161 C202.553453,32.0041304 200.980511,33.5795871 199.040296,33.5795871" id="Fill-4"></path>
                <path d="M214.061439,44.1877157 C214.417968,45.1055697 214.876361,45.9213956 215.43662,46.5849766 C215.996481,47.2477604 216.709538,47.8085162 217.574994,48.1655347 C218.389518,48.5222344 219.255373,48.7266891 220.222297,48.7266891 C221.190017,48.7266891 222.106804,48.5222344 222.921328,48.1655347 C223.735852,47.8085162 224.44851,47.2477604 225.0601,46.5849766 C225.619961,45.9213956 226.078354,45.1569823 226.434882,44.1877157 C226.74008,43.2694631 226.89248,42.2499796 226.89248,41.1276709 C226.89248,40.0567748 226.74008,39.0364942 226.383552,38.0680247 C226.027024,37.1497722 225.569426,36.3335477 225.009167,35.6707639 C224.44851,35.00798 223.735852,34.4472242 222.921328,34.090126 C222.106804,33.7330278 221.190017,33.5289717 220.222297,33.5289717 C219.255373,33.5289717 218.389518,33.7330278 217.574994,34.090126 C216.709538,34.4472242 215.996481,35.00798 215.43662,35.6707639 C214.876361,36.3335477 214.417968,37.1497722 214.061439,38.0680247 C213.704911,39.0364942 213.552511,40.0567748 213.552511,41.1276709 C213.552511,42.2499796 213.704911,43.2694631 214.061439,44.1877157 M206.271136,35.2626516 C207.035126,33.3763281 208.05338,31.7944946 209.427765,30.4179129 C210.802946,29.0919466 212.431994,28.0210505 214.3165,27.2558401 C216.200609,26.4910282 218.23672,26.1343285 220.477358,26.1343285 C222.615732,26.1343285 224.601308,26.4910282 226.434882,27.153812 C228.216728,27.8680084 229.794844,28.8368765 231.119092,30.0608147 C232.392009,31.3357669 233.410264,32.8147752 234.174253,34.4978397 C234.886912,36.2319182 235.243042,38.1182417 235.243042,40.1588029 L235.243042,51.7863353 C235.243042,53.8990335 233.533616,55.6115905 231.42429,55.6115905 L231.017227,55.6115905 C228.908696,55.6115905 227.198872,53.8990335 227.198872,51.7863353 C226.434882,53.061686 225.314365,54.1325821 223.735852,54.897394 C222.157736,55.71322 220.32456,56.1213322 218.338984,56.1213322 C216.454875,56.1213322 214.672631,55.764234 213.043185,54.9990236 C211.414137,54.2852257 210.039354,53.2653436 208.867904,51.9393774 C207.69725,50.6644251 206.780463,49.0833887 206.118338,47.2987745 C205.456612,45.5140805 205.100084,43.5249318 205.100084,41.3823426 C205.100084,39.1899349 205.507545,37.1497722 206.271136,35.2626516" id="Fill-5"></path>
                <path d="M158.864408,44.1877157 C159.220936,45.1055697 159.679728,45.9213956 160.239589,46.5849766 C160.799847,47.2477604 161.512506,47.8085162 162.377963,48.1655347 C163.192487,48.5222344 164.058739,48.7266891 165.025663,48.7266891 C165.993383,48.7266891 166.91017,48.5222344 167.724296,48.1655347 C168.539218,47.8085162 169.251877,47.2477604 169.863466,46.5849766 C170.422929,45.9213956 170.881323,45.1569823 171.237851,44.1877157 C171.543049,43.2694631 171.695847,42.2499796 171.695847,41.1276709 C171.695847,40.0567748 171.543049,39.0364942 171.186918,38.0680247 C170.83039,37.1497722 170.372394,36.3335477 169.812533,35.6707639 C169.251877,35.00798 168.539218,34.4472242 167.724296,34.090126 C166.91017,33.7330278 165.993383,33.5289717 165.025663,33.5289717 C164.058739,33.5289717 163.192487,33.7330278 162.377963,34.090126 C161.512506,34.4472242 160.799847,35.00798 160.239589,35.6707639 C159.679728,36.3335477 159.220936,37.1497722 158.864408,38.0680247 C158.50788,39.0364942 158.35548,40.0567748 158.35548,41.1276709 C158.35548,42.2499796 158.50788,43.2694631 158.864408,44.1877157 M151.074105,35.2626516 C151.838094,33.3763281 152.856746,31.7944946 154.231131,30.4179129 C155.605914,29.0919466 157.234962,28.0210505 159.119469,27.2558401 C161.003578,26.4910282 163.039689,26.1343285 165.280326,26.1343285 C167.419098,26.1343285 169.404675,26.4910282 171.237851,27.153812 C173.019697,27.8680084 174.59821,28.8368765 175.92206,30.0608147 C177.194978,31.3357669 178.213232,32.8147752 178.977221,34.4978397 C179.68988,36.2319182 180.046409,38.1182417 180.046409,40.1588029 L180.046409,51.7863353 C180.046409,53.8990335 178.336983,55.6115905 176.227656,55.6115905 L175.820593,55.6115905 C173.711664,55.6115905 172.00184,53.8990335 172.00184,51.7863353 C171.237851,53.061686 170.117333,54.1325821 168.539218,54.897394 C166.961103,55.71322 165.127926,56.1213322 163.141952,56.1213322 C161.257843,56.1213322 159.475599,55.764234 157.846153,54.9990236 C156.217106,54.2852257 154.842721,53.2653436 153.670873,51.9393774 C152.500218,50.6644251 151.583829,49.0833887 150.921307,47.2987745 C150.259581,45.5140805 149.903052,43.5249318 149.903052,41.3823426 C149.903052,39.1899349 150.310911,37.1497722 151.074105,35.2626516" id="Fill-6"></path>
                <path d="M261.416042,40.1073903 C261.416042,38.1696543 260.805248,36.5886179 259.633798,35.3650782 C258.463143,34.1917555 256.935165,33.5795871 255.051852,33.5795871 C253.167743,33.5795871 251.639764,34.1917555 250.468712,35.3650782 C249.247125,36.5886179 248.635933,38.1696543 248.635933,40.1073903 L248.635933,51.4042083 C248.635933,53.727738 246.755008,55.6112716 244.435186,55.6112716 C242.115364,55.6112716 240.234837,53.727738 240.234837,51.4042083 L240.234837,39.9037328 C240.234837,37.9149827 240.590967,36.0278621 241.354559,34.3447976 C242.067217,32.6621317 243.086268,31.2333403 244.40972,30.0098006 C245.682637,28.7858624 247.261549,27.8165959 249.094327,27.153812 C250.876571,26.4910282 252.862147,26.1339299 255.051852,26.1339299 C257.190226,26.1339299 259.175802,26.4910282 260.958046,27.153812 C262.739892,27.8165959 264.318405,28.7858624 265.642255,30.0098006 C266.966503,31.2333403 267.984758,32.6621317 268.748747,34.3447976 C269.461406,36.0278621 269.817536,37.9149827 269.817536,39.9037328 L269.817536,51.4042083 C269.817536,53.727738 267.937008,55.6112716 265.617187,55.6112716 L265.616789,55.6112716 C263.296967,55.6112716 261.416042,53.727738 261.416042,51.4042083 L261.416042,40.1073903 Z" id="Fill-7"></path>
                <path d="M288.431419,17.8409616 L288.431419,49.1642938 C288.431419,52.3869458 286.158948,54.9990236 283.355665,54.9990236 C280.552381,54.9990236 278.279911,52.3869458 278.279911,49.1642938 L278.279911,17.8409616 C278.279911,14.6187082 280.552381,12.0062318 283.355665,12.0062318 C286.158948,12.0062318 288.431419,14.6187082 288.431419,17.8409616" id="Fill-8"></path>
                <path d="M318.725583,35.9876088 L314.621528,27.7655818 C314.119364,26.7596489 312.678926,26.7811705 312.207004,27.8018496 L308.405361,36.0238766 C307.994319,36.9130352 308.642914,37.9297289 309.621377,37.9297289 L317.527075,37.9297289 C318.523046,37.9297289 319.171243,36.8799558 318.725583,35.9876088 M330.986019,53.5958189 C329.483905,54.3741814 327.619691,53.7512523 326.842571,52.2471354 L322.802978,44.1546363 L305.038238,44.1546363 C304.975766,44.1546363 304.922445,44.1546363 304.873104,44.1510494 C304.747763,44.1426799 304.628389,44.2048532 304.575069,44.3188377 L300.946518,52.1435132 C300.428836,53.2845536 299.289218,53.9588953 298.149601,53.9588953 C297.683647,53.9588953 297.269422,53.8552731 296.854798,53.6480286 C295.301353,52.9214772 294.628088,51.1056965 295.35348,49.5497686 L310.476886,16.8166955 C310.994171,15.7274662 312.030331,15.0531245 313.221279,15.0009148 L313.273007,15.0009148 C314.464353,15.0009148 315.500116,15.6752566 316.069924,16.7130733 L332.384279,49.4457478 C333.161001,51.0020743 332.539862,52.869666 330.986019,53.5958189" id="Fill-9"></path>
                <path d="M330.824467,51.262206 C330.719419,51.5635076 330.502557,51.80423 330.213674,51.938939 L330.147223,51.9720184 C329.861125,52.1202779 329.528073,52.1441907 329.210142,52.0401699 C328.884253,51.9329608 328.619244,51.7085787 328.4752,51.4295957 L323.931056,42.3265007 L305.210931,42.3265007 L303.812274,41.6238621 L299.284443,51.3869512 C299.051267,51.9006784 298.546716,52.1310387 298.149601,52.1310387 C297.975316,52.1310387 297.840424,52.0975607 297.670118,52.0122716 L297.626348,51.9911486 C297.313192,51.8444833 297.077628,51.5914059 296.962234,51.2781478 C296.848432,50.9684767 296.864348,50.6293131 297.009984,50.3172507 L312.124238,17.6026304 C312.343089,17.142707 312.759304,16.8621299 313.26863,16.829449 L313.273007,16.829449 C313.757663,16.829449 314.187407,17.0980698 314.455201,17.5679568 L330.751252,50.2630483 C330.911212,50.5830817 330.937076,50.9381872 330.824467,51.262206 M334.017306,48.6294037 L317.702554,15.8964502 L317.668731,15.8322841 C316.754729,14.1667557 315.111357,13.1731778 313.273007,13.1731778 L313.141697,13.174772 C311.279871,13.255677 309.627346,14.3500874 308.819587,16.0490938 L293.698568,48.7764676 C293.141492,49.9733046 293.083397,51.3104302 293.536618,52.5419407 C293.98387,53.7587051 294.879966,54.7355441 296.060966,55.2943071 C296.731446,55.6258983 297.415455,55.7873099 298.149601,55.7873099 C300.061962,55.7873099 301.812372,54.6542405 302.601828,52.9137852 L305.816154,45.9827719 L321.674502,45.9827719 L325.221083,53.0867546 C325.819144,54.2449326 326.832225,55.1073885 328.073708,55.5147037 C329.317578,55.9232145 330.636653,55.8243748 331.791789,55.2365178 C332.963637,54.6781533 333.843817,53.6949375 334.271571,52.4658182 C334.711661,51.2020253 334.620937,49.8389942 334.017306,48.6294037" id="Fill-10"></path>
                <polygon id="Path" fill-rule="nonzero" points="90.1256678 64.026145 90.1256678 65.4381182 86.1318008 65.4381182 86.1318008 75.8786513 84.5019804 75.8786513 84.5019804 65.4381182 80.5081134 65.4381182 80.5081134 64.026145"></polygon>
                <path d="M92.7774922,67.0437334 C93.390692,67.0437334 93.9850655,67.1876202 94.5606126,67.4753938 C95.1361598,67.7631674 95.5745439,68.1356593 95.8757648,68.5928697 C96.1662279,69.0285643 96.3598699,69.5368746 96.4566909,70.1178007 C96.542754,70.5158427 96.5857856,71.1505582 96.5857856,72.0219474 L90.2520773,72.0219474 C90.2789721,72.8987155 90.4860615,73.6020126 90.8733455,74.1318388 C91.2606296,74.6616649 91.860382,74.9265779 92.6726028,74.9265779 C93.4310341,74.9265779 94.0361655,74.676457 94.4879969,74.1762151 C94.7461863,73.885752 94.9290704,73.5495679 95.0366493,73.1676628 L96.4647593,73.1676628 C96.4271067,73.4850206 96.3020462,73.8386862 96.0895779,74.2286598 C95.8771095,74.6186333 95.6390912,74.9373358 95.3755229,75.1847673 C94.9344493,75.615083 94.3884864,75.905546 93.737634,76.0561565 C93.3880025,76.1422196 92.99265,76.1852512 92.5515765,76.1852512 C91.4757874,76.1852512 90.5640562,75.7939329 89.8163828,75.0112963 C89.0687093,74.2286598 88.6948726,73.1326996 88.6948726,71.7234159 C88.6948726,70.335648 89.0713988,69.2087589 89.8244512,68.3427487 C90.5775035,67.4767385 91.5618506,67.0437334 92.7774922,67.0437334 Z M95.0931282,70.8681636 C95.0339598,70.238827 94.8967967,69.7358956 94.6816389,69.3593694 C94.283597,68.6601065 93.6192972,68.3104751 92.6887396,68.3104751 C92.0217504,68.3104751 91.4623401,68.5511829 91.0105087,69.0325985 C90.5586772,69.5140141 90.3193142,70.1258691 90.2924194,70.8681636 L95.0931282,70.8681636 Z" id="Shape" fill-rule="nonzero"></path>
                <path d="M103.147023,66.9872545 C104.120612,66.9872545 104.912662,67.2239281 105.523172,67.6972753 C106.133683,68.1706225 106.500796,68.9855327 106.624511,70.142006 L105.212538,70.142006 C105.126475,69.6094904 104.930144,69.1670721 104.623544,68.8147512 C104.316944,68.4624303 103.82477,68.2862698 103.147023,68.2862698 C102.221845,68.2862698 101.560234,68.7381012 101.162192,69.6417641 C100.904003,70.2280691 100.774908,70.9515373 100.774908,71.8121685 C100.774908,72.6781788 100.957792,73.4070259 101.323561,73.9987099 C101.689329,74.5903939 102.264876,74.8862359 103.050202,74.8862359 C103.652644,74.8862359 104.130026,74.702007 104.482346,74.3335492 C104.834667,73.9650914 105.078065,73.4608153 105.212538,72.8207208 L106.624511,72.8207208 C106.463143,73.9664362 106.059722,74.8042069 105.414249,75.3340331 C104.768775,75.8638592 103.943107,76.1287722 102.937244,76.1287722 C101.807666,76.1287722 100.906692,75.7159382 100.234324,74.8902701 C99.5619561,74.0646019 99.225772,73.0331892 99.225772,71.7960317 C99.225772,70.2791691 99.5942298,69.0984906 100.331145,68.2539961 C101.068061,67.4095017 102.006687,66.9872545 103.147023,66.9872545 Z" id="Path" fill-rule="nonzero"></path>
                <path d="M109.521035,67.2373754 L110.900734,67.2373754 L110.900734,68.463775 C111.309534,67.9581541 111.742539,67.5950753 112.19975,67.3745386 C112.65696,67.1540018 113.16527,67.0437334 113.724681,67.0437334 C114.95108,67.0437334 115.779438,67.4713596 116.209754,68.3266119 C116.446427,68.7945801 116.564764,69.4642589 116.564764,70.335648 L116.564764,75.8786513 L115.088243,75.8786513 L115.088243,70.432469 C115.088243,69.9053324 115.010249,69.4803957 114.854259,69.157659 C114.59607,68.6197644 114.128102,68.3508171 113.450354,68.3508171 C113.106102,68.3508171 112.823707,68.3857803 112.603171,68.4557066 C112.205129,68.5740434 111.855497,68.810717 111.554276,69.1657274 C111.312224,69.4508115 111.15489,69.7453088 111.082274,70.0492192 C111.009658,70.3531296 110.97335,70.7874794 110.97335,71.3522687 L110.97335,75.8786513 L109.521035,75.8786513 L109.521035,67.2373754 Z" id="Path" fill-rule="nonzero"></path>
                <path d="M123.585901,74.9427148 C124.548733,74.9427148 125.208998,74.5782912 125.566698,73.8494441 C125.924398,73.120597 126.103248,72.309721 126.103248,71.416816 C126.103248,70.6099742 125.974153,69.9537429 125.715964,69.448122 C125.307164,68.6520381 124.602522,68.2539961 123.602038,68.2539961 C122.714512,68.2539961 122.069039,68.5928697 121.665618,69.2706168 C121.262197,69.9483639 121.060487,70.7659636 121.060487,71.7234159 C121.060487,72.6432156 121.262197,73.4097153 121.665618,74.0229151 C122.069039,74.6361149 122.709133,74.9427148 123.585901,74.9427148 Z M123.64238,66.9872545 C124.755822,66.9872545 125.697137,67.3584017 126.466327,68.1006962 C127.235516,68.8429907 127.62011,69.9349166 127.62011,71.376474 C127.62011,72.7696208 127.281237,73.9207151 126.60349,74.8297569 C125.925743,75.7387987 124.874159,76.1933196 123.448738,76.1933196 C122.259991,76.1933196 121.315986,75.7912434 120.616724,74.9870911 C119.917461,74.1829387 119.567829,73.1031154 119.567829,71.7476212 C119.567829,70.2953059 119.936287,69.1388327 120.673202,68.2782014 C121.410118,67.4175701 122.399844,66.9872545 123.64238,66.9872545 Z" id="Shape" fill-rule="nonzero"></path>
                <polygon id="Path" fill-rule="nonzero" points="130.832955 64.026145 132.28527 64.026145 132.28527 75.8786513 130.832955 75.8786513"></polygon>
                <path d="M139.338681,74.9427148 C140.301512,74.9427148 140.961778,74.5782912 141.319478,73.8494441 C141.677178,73.120597 141.856027,72.309721 141.856027,71.416816 C141.856027,70.6099742 141.726933,69.9537429 141.468743,69.448122 C141.059944,68.6520381 140.355302,68.2539961 139.354818,68.2539961 C138.467292,68.2539961 137.821818,68.5928697 137.418397,69.2706168 C137.014977,69.9483639 136.813266,70.7659636 136.813266,71.7234159 C136.813266,72.6432156 137.014977,73.4097153 137.418397,74.0229151 C137.821818,74.6361149 138.461913,74.9427148 139.338681,74.9427148 Z M139.39516,66.9872545 C140.508602,66.9872545 141.449917,67.3584017 142.219106,68.1006962 C142.988295,68.8429907 143.37289,69.9349166 143.37289,71.376474 C143.37289,72.7696208 143.034017,73.9207151 142.356269,74.8297569 C141.678522,75.7387987 140.626938,76.1933196 139.201518,76.1933196 C138.012771,76.1933196 137.068766,75.7912434 136.369503,74.9870911 C135.67024,74.1829387 135.320609,73.1031154 135.320609,71.7476212 C135.320609,70.2953059 135.689067,69.1388327 136.425982,68.2782014 C137.162898,67.4175701 138.152624,66.9872545 139.39516,66.9872545 Z" id="Shape" fill-rule="nonzero"></path>
                <path d="M149.595254,67.0840755 C150.273001,67.0840755 150.864685,67.2508228 151.370306,67.5843174 C151.644632,67.7725805 151.924338,68.0469067 152.209422,68.4072961 L152.209422,67.3180596 L153.548779,67.3180596 L153.548779,75.1766989 C153.548779,76.2740038 153.387411,77.140014 153.064674,77.7747296 C152.462232,78.9473397 151.324585,79.5336447 149.651733,79.5336447 C148.721176,79.5336447 147.938539,79.3252106 147.303823,78.9083423 C146.669108,78.491474 146.314097,77.8392769 146.238792,76.9517509 L147.715313,76.9517509 C147.785239,77.339035 147.925092,77.6375664 148.13487,77.8473453 C148.462986,78.170082 148.979365,78.3314504 149.684007,78.3314504 C150.797448,78.3314504 151.526296,77.9387874 151.870548,77.1534614 C152.074948,76.690872 152.16908,75.8652039 152.152943,74.676457 C151.86248,75.1175305 151.512848,75.4456462 151.104048,75.660804 C150.695248,75.8759618 150.154664,75.9835407 149.482296,75.9835407 C148.54636,75.9835407 147.727415,75.6513908 147.025463,74.9870911 C146.323511,74.3227913 145.972534,73.2241417 145.972534,71.6911423 C145.972534,70.2442059 146.3262,69.1146274 147.033531,68.3024066 C147.740863,67.4901859 148.59477,67.0840755 149.595254,67.0840755 Z M152.209422,71.5217055 C152.209422,70.4512953 151.988885,69.6579009 151.547811,69.1415221 C151.106738,68.6251434 150.544638,68.366954 149.861512,68.366954 C148.839512,68.366954 148.140249,68.8456801 147.763723,69.8031324 C147.564702,70.3141322 147.465192,70.9838109 147.465192,71.8121685 C147.465192,72.7857577 147.662868,73.5267074 148.05822,74.0350177 C148.453573,74.5433281 148.984744,74.7974833 149.651733,74.7974833 C150.695248,74.7974833 151.429475,74.3268255 151.854411,73.3855101 C152.091085,72.8529945 152.209422,72.2317263 152.209422,71.5217055 Z" id="Shape" fill-rule="nonzero"></path>
                <path d="M157.641081,67.2777175 L159.117601,67.2777175 L159.117601,75.8786513 L157.641081,75.8786513 L157.641081,67.2777175 Z M160.214906,63.7598872 L158.060638,66.0916601 L156.947197,66.0916601 L158.423717,63.7598872 L160.214906,63.7598872 Z" id="Shape" fill-rule="nonzero"></path>
                <path d="M164.326456,73.5791521 C164.326456,73.9987099 164.479756,74.329515 164.786356,74.5715675 C165.092956,74.8136201 165.456034,74.9346464 165.875592,74.9346464 C166.386592,74.9346464 166.881455,74.8163096 167.360181,74.579636 C168.167023,74.1869729 168.570444,73.544189 168.570444,72.651284 L168.570444,71.4813634 C168.392939,71.5943212 168.164333,71.6884528 167.884628,71.763758 C167.604923,71.8390633 167.330597,71.8928527 167.06165,71.9251264 L166.182192,72.0380842 C165.655055,72.1080105 165.259703,72.2182789 164.996135,72.3688894 C164.549682,72.6216998 164.326456,73.0251207 164.326456,73.5791521 Z M167.844286,70.6422479 C168.177781,70.5992163 168.401007,70.4593638 168.513965,70.2226902 C168.578512,70.0935955 168.610786,69.9080219 168.610786,69.6659693 C168.610786,69.1711063 168.434625,68.8120617 168.082304,68.5888355 C167.729984,68.3656092 167.225707,68.2539961 166.569476,68.2539961 C165.811045,68.2539961 165.27315,68.4583961 164.955792,68.8671959 C164.778287,69.0931116 164.66264,69.4292957 164.60885,69.8757482 L163.253356,69.8757482 C163.280251,68.810717 163.625848,68.0697672 164.290148,67.652899 C164.954448,67.2360307 165.724982,67.0275966 166.60175,67.0275966 C167.61837,67.0275966 168.444039,67.2212386 169.078754,67.6085227 C169.708091,67.9958067 170.022759,68.5982486 170.022759,69.4158483 L170.022759,74.3940623 C170.022759,74.5446728 170.053688,74.6656991 170.115546,74.7571412 C170.177404,74.8485832 170.307843,74.8943043 170.506864,74.8943043 C170.571411,74.8943043 170.644027,74.8902701 170.724711,74.8822016 C170.805396,74.8741332 170.891459,74.8620306 170.982901,74.8458938 L170.982901,75.9189934 C170.756985,75.9835407 170.584859,76.0238828 170.466522,76.0400197 C170.348185,76.0561565 170.186817,76.0642249 169.982417,76.0642249 C169.482175,76.0642249 169.119096,75.8867197 168.893181,75.5317093 C168.774844,75.3434462 168.69147,75.0771884 168.64306,74.7329359 C168.347218,75.12022 167.922281,75.4564041 167.368249,75.7414882 C166.814218,76.0265723 166.203708,76.1691143 165.536719,76.1691143 C164.735256,76.1691143 164.080369,75.9257171 163.572059,75.4389225 C163.063748,74.9521279 162.809593,74.3429624 162.809593,73.6114258 C162.809593,72.8099629 163.059714,72.1886947 163.559956,71.7476212 C164.060198,71.3065477 164.716429,71.0349109 165.52865,70.932711 L167.844286,70.6422479 Z" id="Shape" fill-rule="nonzero"></path>
                <path d="M178.803935,71.6750054 C178.803935,72.4226788 178.908824,73.049326 179.118603,73.5549469 C179.48975,74.4532307 180.15405,74.9023727 181.111502,74.9023727 C182.122744,74.9023727 182.819318,74.4290255 183.201223,73.4823311 C183.411002,72.9605734 183.515891,72.2935842 183.515891,71.4813634 C183.515891,70.73369 183.400244,70.1097323 183.168949,69.6094904 C182.776286,68.7542381 182.085092,68.3266119 181.095366,68.3266119 C180.466029,68.3266119 179.92679,68.5995934 179.477648,69.1455563 C179.028506,69.6915193 178.803935,70.534669 178.803935,71.6750054 Z M180.950134,67.0437334 C181.665534,67.0437334 182.267976,67.2239281 182.75746,67.5843174 C183.026407,67.7779595 183.284596,68.0630436 183.532028,68.4395697 L183.532028,67.2373754 L184.911727,67.2373754 L184.911727,79.3238658 L183.451344,79.3238658 L183.451344,74.8862359 C183.209291,75.2735199 182.874452,75.5814646 182.446826,75.8100697 C182.019199,76.0386749 181.485339,76.1529775 180.845245,76.1529775 C179.925445,76.1529775 179.102466,75.7925882 178.376309,75.0718095 C177.650151,74.3510308 177.287072,73.2537259 177.287072,71.7798949 C177.287072,70.3975059 177.627291,69.2625484 178.307727,68.3750224 C178.988164,67.4874964 179.868966,67.0437334 180.950134,67.0437334 Z" id="Shape" fill-rule="nonzero"></path>
                <path d="M189.956102,67.2373754 L189.956102,72.9740208 C189.956102,73.4150943 190.026029,73.7754836 190.165881,74.0551888 C190.424071,74.5715675 190.905486,74.8297569 191.610128,74.8297569 C192.62137,74.8297569 193.309875,74.3779255 193.675643,73.4742627 C193.874664,72.9901576 193.974175,72.3258578 193.974175,71.4813634 L193.974175,67.2373754 L195.42649,67.2373754 L195.42649,75.8786513 L194.054859,75.8786513 L194.070996,74.6038412 C193.882733,74.9319569 193.648748,75.2089726 193.369043,75.4348883 C192.815012,75.8867197 192.142644,76.1126354 191.351939,76.1126354 C190.12016,76.1126354 189.281045,75.7011461 188.834592,74.8781674 C188.59254,74.4370939 188.471513,73.8480994 188.471513,73.1111839 L188.471513,67.2373754 L189.956102,67.2373754 Z" id="Path" fill-rule="nonzero"></path>
                <path d="M202.73809,67.0437334 C203.35129,67.0437334 203.945664,67.1876202 204.521211,67.4753938 C205.096758,67.7631674 205.535142,68.1356593 205.836363,68.5928697 C206.126826,69.0285643 206.320468,69.5368746 206.417289,70.1178007 C206.503352,70.5158427 206.546384,71.1505582 206.546384,72.0219474 L200.212676,72.0219474 C200.23957,72.8987155 200.44666,73.6020126 200.833944,74.1318388 C201.221228,74.6616649 201.82098,74.9265779 202.633201,74.9265779 C203.391632,74.9265779 203.996764,74.676457 204.448595,74.1762151 C204.706784,73.885752 204.889669,73.5495679 204.997248,73.1676628 L206.425358,73.1676628 C206.387705,73.4850206 206.262644,73.8386862 206.050176,74.2286598 C205.837708,74.6186333 205.599689,74.9373358 205.336121,75.1847673 C204.895048,75.615083 204.349085,75.905546 203.698232,76.0561565 C203.348601,76.1422196 202.953248,76.1852512 202.512175,76.1852512 C201.436386,76.1852512 200.524654,75.7939329 199.776981,75.0112963 C199.029308,74.2286598 198.655471,73.1326996 198.655471,71.7234159 C198.655471,70.335648 199.031997,69.2087589 199.785049,68.3427487 C200.538102,67.4767385 201.522449,67.0437334 202.73809,67.0437334 Z M205.053726,70.8681636 C204.994558,70.238827 204.857395,69.7358956 204.642237,69.3593694 C204.244195,68.6601065 203.579895,68.3104751 202.649338,68.3104751 C201.982349,68.3104751 201.422938,68.5511829 200.971107,69.0325985 C200.519275,69.5140141 200.279912,70.1258691 200.253018,70.8681636 L205.053726,70.8681636 Z" id="Shape" fill-rule="nonzero"></path>
                <path d="M214.686863,63.9858029 L216.139178,63.9858029 L216.139178,68.4072961 C216.48343,67.9716015 216.79272,67.6650016 217.067046,67.4874964 C217.535014,67.1808965 218.11863,67.0275966 218.817893,67.0275966 C220.071187,67.0275966 220.92106,67.4659806 221.367513,68.3427487 C221.609565,68.8214749 221.730592,69.4857746 221.730592,70.335648 L221.730592,75.8786513 L220.237934,75.8786513 L220.237934,70.432469 C220.237934,69.7977535 220.15725,69.3324747 219.995882,69.0366327 C219.732313,68.5632855 219.23745,68.3266119 218.511293,68.3266119 C217.908851,68.3266119 217.362888,68.5337013 216.873404,68.9478801 C216.38392,69.3620589 216.139178,70.1446955 216.139178,71.2957898 L216.139178,75.8786513 L214.686863,75.8786513 L214.686863,63.9858029 Z" id="Path" fill-rule="nonzero"></path>
                <path d="M226.436093,73.5791521 C226.436093,73.9987099 226.589393,74.329515 226.895993,74.5715675 C227.202593,74.8136201 227.565672,74.9346464 227.985229,74.9346464 C228.496229,74.9346464 228.991092,74.8163096 229.469818,74.579636 C230.27666,74.1869729 230.680081,73.544189 230.680081,72.651284 L230.680081,71.4813634 C230.502576,71.5943212 230.273971,71.6884528 229.994266,71.763758 C229.71456,71.8390633 229.440234,71.8928527 229.171287,71.9251264 L228.291829,72.0380842 C227.764693,72.1080105 227.36934,72.2182789 227.105772,72.3688894 C226.659319,72.6216998 226.436093,73.0251207 226.436093,73.5791521 Z M229.953923,70.6422479 C230.287418,70.5992163 230.510644,70.4593638 230.623602,70.2226902 C230.68815,70.0935955 230.720423,69.9080219 230.720423,69.6659693 C230.720423,69.1711063 230.544263,68.8120617 230.191942,68.5888355 C229.839621,68.3656092 229.335345,68.2539961 228.679113,68.2539961 C227.920682,68.2539961 227.382788,68.4583961 227.06543,68.8671959 C226.887925,69.0931116 226.772277,69.4292957 226.718488,69.8757482 L225.362994,69.8757482 C225.389888,68.810717 225.735485,68.0697672 226.399785,67.652899 C227.064085,67.2360307 227.834619,67.0275966 228.711387,67.0275966 C229.728008,67.0275966 230.553676,67.2212386 231.188391,67.6085227 C231.817728,67.9958067 232.132396,68.5982486 232.132396,69.4158483 L232.132396,74.3940623 C232.132396,74.5446728 232.163325,74.6656991 232.225183,74.7571412 C232.287041,74.8485832 232.41748,74.8943043 232.616501,74.8943043 C232.681049,74.8943043 232.753665,74.8902701 232.834349,74.8822016 C232.915033,74.8741332 233.001096,74.8620306 233.092538,74.8458938 L233.092538,75.9189934 C232.866622,75.9835407 232.694496,76.0238828 232.576159,76.0400197 C232.457823,76.0561565 232.296454,76.0642249 232.092054,76.0642249 C231.591812,76.0642249 231.228734,75.8867197 231.002818,75.5317093 C230.884481,75.3434462 230.801107,75.0771884 230.752697,74.7329359 C230.456855,75.12022 230.031918,75.4564041 229.477887,75.7414882 C228.923855,76.0265723 228.313345,76.1691143 227.646356,76.1691143 C226.844893,76.1691143 226.190006,75.9257171 225.681696,75.4389225 C225.173386,74.9521279 224.919231,74.3429624 224.919231,73.6114258 C224.919231,72.8099629 225.169351,72.1886947 225.669593,71.7476212 C226.169835,71.3065477 226.826067,71.0349109 227.638287,70.932711 L229.953923,70.6422479 Z" id="Shape" fill-rule="nonzero"></path>
                <path d="M235.845482,63.9858029 L237.257456,63.9858029 L237.257456,68.2862698 C237.574813,67.872091 237.954029,67.556078 238.395103,67.3382307 C238.836176,67.1203834 239.314902,67.0114597 239.831281,67.0114597 C240.90707,67.0114597 241.779804,67.3812622 242.449483,68.1208672 C243.119161,68.8604722 243.454001,69.9510534 243.454001,71.3926108 C243.454001,72.7588629 243.123196,73.8938204 242.461585,74.7974833 C241.799975,75.7011461 240.882865,76.1529775 239.710255,76.1529775 C239.054023,76.1529775 238.499992,75.9942986 238.048161,75.6769408 C237.779213,75.4886777 237.49144,75.1874568 237.18484,74.773278 L237.18484,75.8786513 L235.845482,75.8786513 L235.845482,63.9858029 Z M239.621502,74.870099 C240.406828,74.870099 240.994478,74.5581202 241.384451,73.9341625 C241.774425,73.3102048 241.969412,72.4872262 241.969412,71.4652266 C241.969412,70.5561848 241.774425,69.8031324 241.384451,69.2060695 C240.994478,68.6090065 240.420275,68.3104751 239.661844,68.3104751 C239.000234,68.3104751 238.420653,68.5552171 237.9231,69.0447011 C237.425548,69.5341851 237.176771,70.341027 237.176771,71.4652266 C237.176771,72.2774473 237.278971,72.9363681 237.483371,73.441989 C237.865276,74.3940623 238.577987,74.870099 239.621502,74.870099 Z" id="Shape" fill-rule="nonzero"></path>
                <polygon id="Path" fill-rule="nonzero" points="246.634571 64.026145 248.086886 64.026145 248.086886 75.8786513 246.634571 75.8786513"></polygon>
                <path d="M252.824662,73.5791521 C252.824662,73.9987099 252.977962,74.329515 253.284561,74.5715675 C253.591161,74.8136201 253.95424,74.9346464 254.373798,74.9346464 C254.884798,74.9346464 255.379661,74.8163096 255.858387,74.579636 C256.665229,74.1869729 257.06865,73.544189 257.06865,72.651284 L257.06865,71.4813634 C256.891144,71.5943212 256.662539,71.6884528 256.382834,71.763758 C256.103129,71.8390633 255.828803,71.8928527 255.559855,71.9251264 L254.680398,72.0380842 C254.153261,72.1080105 253.757909,72.2182789 253.49434,72.3688894 C253.047888,72.6216998 252.824662,73.0251207 252.824662,73.5791521 Z M256.342492,70.6422479 C256.675986,70.5992163 256.899213,70.4593638 257.012171,70.2226902 C257.076718,70.0935955 257.108992,69.9080219 257.108992,69.6659693 C257.108992,69.1711063 256.932831,68.8120617 256.58051,68.5888355 C256.228189,68.3656092 255.723913,68.2539961 255.067682,68.2539961 C254.309251,68.2539961 253.771356,68.4583961 253.453998,68.8671959 C253.276493,69.0931116 253.160846,69.4292957 253.107056,69.8757482 L251.751562,69.8757482 C251.778457,68.810717 252.124054,68.0697672 252.788354,67.652899 C253.452653,67.2360307 254.223187,67.0275966 255.099955,67.0275966 C256.116576,67.0275966 256.942244,67.2212386 257.57696,67.6085227 C258.206296,67.9958067 258.520965,68.5982486 258.520965,69.4158483 L258.520965,74.3940623 C258.520965,74.5446728 258.551894,74.6656991 258.613752,74.7571412 C258.675609,74.8485832 258.806049,74.8943043 259.00507,74.8943043 C259.069617,74.8943043 259.142233,74.8902701 259.222917,74.8822016 C259.303601,74.8741332 259.389664,74.8620306 259.481107,74.8458938 L259.481107,75.9189934 C259.255191,75.9835407 259.083065,76.0238828 258.964728,76.0400197 C258.846391,76.0561565 258.685023,76.0642249 258.480623,76.0642249 C257.980381,76.0642249 257.617302,75.8867197 257.391386,75.5317093 C257.273049,75.3434462 257.189676,75.0771884 257.141265,74.7329359 C256.845423,75.12022 256.420487,75.4564041 255.866455,75.7414882 C255.312424,76.0265723 254.701914,76.1691143 254.034924,76.1691143 C253.233461,76.1691143 252.578575,75.9257171 252.070264,75.4389225 C251.561954,74.9521279 251.307799,74.3429624 251.307799,73.6114258 C251.307799,72.8099629 251.55792,72.1886947 252.058162,71.7476212 C252.558404,71.3065477 253.214635,71.0349109 254.026856,70.932711 L256.342492,70.6422479 Z" id="Shape" fill-rule="nonzero"></path>
                <path d="M270.143127,67.0840755 C270.820875,67.0840755 271.412559,67.2508228 271.918179,67.5843174 C272.192506,67.7725805 272.472211,68.0469067 272.757295,68.4072961 L272.757295,67.3180596 L274.096652,67.3180596 L274.096652,75.1766989 C274.096652,76.2740038 273.935284,77.140014 273.612547,77.7747296 C273.010105,78.9473397 271.872458,79.5336447 270.199606,79.5336447 C269.269049,79.5336447 268.486412,79.3252106 267.851697,78.9083423 C267.216981,78.491474 266.861971,77.8392769 266.786665,76.9517509 L268.263186,76.9517509 C268.333112,77.339035 268.472965,77.6375664 268.682744,77.8473453 C269.010859,78.170082 269.527238,78.3314504 270.23188,78.3314504 C271.345322,78.3314504 272.074169,77.9387874 272.418421,77.1534614 C272.622821,76.690872 272.716953,75.8652039 272.700816,74.676457 C272.410353,75.1175305 272.060721,75.4456462 271.651922,75.660804 C271.243122,75.8759618 270.702538,75.9835407 270.03017,75.9835407 C269.094233,75.9835407 268.275289,75.6513908 267.573336,74.9870911 C266.871384,74.3227913 266.520408,73.2241417 266.520408,71.6911423 C266.520408,70.2442059 266.874073,69.1146274 267.581405,68.3024066 C268.288736,67.4901859 269.142644,67.0840755 270.143127,67.0840755 Z M272.757295,71.5217055 C272.757295,70.4512953 272.536758,69.6579009 272.095685,69.1415221 C271.654611,68.6251434 271.092511,68.366954 270.409385,68.366954 C269.387386,68.366954 268.688123,68.8456801 268.311596,69.8031324 C268.112575,70.3141322 268.013065,70.9838109 268.013065,71.8121685 C268.013065,72.7857577 268.210741,73.5267074 268.606094,74.0350177 C269.001446,74.5433281 269.532617,74.7974833 270.199606,74.7974833 C271.243122,74.7974833 271.977348,74.3268255 272.402284,73.3855101 C272.638958,72.8529945 272.757295,72.2317263 272.757295,71.5217055 Z" id="Shape" fill-rule="nonzero"></path>
                <path d="M279.181369,67.2373754 L279.181369,72.9740208 C279.181369,73.4150943 279.251296,73.7754836 279.391148,74.0551888 C279.649338,74.5715675 280.130753,74.8297569 280.835395,74.8297569 C281.846637,74.8297569 282.535142,74.3779255 282.90091,73.4742627 C283.099931,72.9901576 283.199442,72.3258578 283.199442,71.4813634 L283.199442,67.2373754 L284.651757,67.2373754 L284.651757,75.8786513 L283.280126,75.8786513 L283.296263,74.6038412 C283.108,74.9319569 282.874015,75.2089726 282.59431,75.4348883 C282.040279,75.8867197 281.367911,76.1126354 280.577206,76.1126354 C279.345427,76.1126354 278.506312,75.7011461 278.059859,74.8781674 C277.817807,74.4370939 277.69678,73.8480994 277.69678,73.1111839 L277.69678,67.2373754 L279.181369,67.2373754 Z" id="Path" fill-rule="nonzero"></path>
                <path d="M289.478285,73.5791521 C289.478285,73.9987099 289.631585,74.329515 289.938184,74.5715675 C290.244784,74.8136201 290.607863,74.9346464 291.027421,74.9346464 C291.538421,74.9346464 292.033284,74.8163096 292.51201,74.579636 C293.318852,74.1869729 293.722273,73.544189 293.722273,72.651284 L293.722273,71.4813634 C293.544767,71.5943212 293.316162,71.6884528 293.036457,71.763758 C292.756752,71.8390633 292.482426,71.8928527 292.213478,71.9251264 L291.334021,72.0380842 C290.806884,72.1080105 290.411532,72.2182789 290.147963,72.3688894 C289.701511,72.6216998 289.478285,73.0251207 289.478285,73.5791521 Z M292.996115,70.6422479 C293.32961,70.5992163 293.552836,70.4593638 293.665794,70.2226902 C293.730341,70.0935955 293.762615,69.9080219 293.762615,69.6659693 C293.762615,69.1711063 293.586454,68.8120617 293.234133,68.5888355 C292.881812,68.3656092 292.377536,68.2539961 291.721305,68.2539961 C290.962874,68.2539961 290.424979,68.4583961 290.107621,68.8671959 C289.930116,69.0931116 289.814469,69.4292957 289.760679,69.8757482 L288.405185,69.8757482 C288.43208,68.810717 288.777677,68.0697672 289.441977,67.652899 C290.106277,67.2360307 290.87681,67.0275966 291.753579,67.0275966 C292.770199,67.0275966 293.595867,67.2212386 294.230583,67.6085227 C294.85992,67.9958067 295.174588,68.5982486 295.174588,69.4158483 L295.174588,74.3940623 C295.174588,74.5446728 295.205517,74.6656991 295.267375,74.7571412 C295.329233,74.8485832 295.459672,74.8943043 295.658693,74.8943043 C295.72324,74.8943043 295.795856,74.8902701 295.87654,74.8822016 C295.957224,74.8741332 296.043288,74.8620306 296.13473,74.8458938 L296.13473,75.9189934 C295.908814,75.9835407 295.736688,76.0238828 295.618351,76.0400197 C295.500014,76.0561565 295.338646,76.0642249 295.134246,76.0642249 C294.634004,76.0642249 294.270925,75.8867197 294.045009,75.5317093 C293.926673,75.3434462 293.843299,75.0771884 293.794888,74.7329359 C293.499046,75.12022 293.07411,75.4564041 292.520078,75.7414882 C291.966047,76.0265723 291.355537,76.1691143 290.688547,76.1691143 C289.887085,76.1691143 289.232198,75.9257171 288.723888,75.4389225 C288.215577,74.9521279 287.961422,74.3429624 287.961422,73.6114258 C287.961422,72.8099629 288.211543,72.1886947 288.711785,71.7476212 C289.212027,71.3065477 289.868258,71.0349109 290.680479,70.932711 L292.996115,70.6422479 Z" id="Shape" fill-rule="nonzero"></path>
                <path d="M299.040974,67.2373754 L300.420673,67.2373754 L300.420673,68.7300328 C300.533631,68.4395697 300.810647,68.0859041 301.25172,67.6690358 C301.692794,67.2521675 302.201104,67.0437334 302.776651,67.0437334 C302.803546,67.0437334 302.849267,67.0464229 302.913815,67.0518018 C302.978362,67.0571808 303.08863,67.0679387 303.24462,67.0840755 L303.24462,68.6170749 C303.158557,68.6009381 303.079217,68.5901802 303.006601,68.5848013 C302.933986,68.5794223 302.854646,68.5767329 302.768583,68.5767329 C302.037046,68.5767329 301.474947,68.8120617 301.082284,69.2827194 C300.689621,69.7533772 300.493289,70.2953059 300.493289,70.9085057 L300.493289,75.8786513 L299.040974,75.8786513 L299.040974,67.2373754 Z" id="Path" fill-rule="nonzero"></path>
                <path d="M307.060943,73.5791521 C307.060943,73.9987099 307.214243,74.329515 307.520843,74.5715675 C307.827443,74.8136201 308.190521,74.9346464 308.610079,74.9346464 C309.121079,74.9346464 309.615942,74.8163096 310.094668,74.579636 C310.90151,74.1869729 311.304931,73.544189 311.304931,72.651284 L311.304931,71.4813634 C311.127426,71.5943212 310.89882,71.6884528 310.619115,71.763758 C310.33941,71.8390633 310.065084,71.8928527 309.796137,71.9251264 L308.916679,72.0380842 C308.389542,72.1080105 307.99419,72.2182789 307.730621,72.3688894 C307.284169,72.6216998 307.060943,73.0251207 307.060943,73.5791521 Z M310.578773,70.6422479 C310.912268,70.5992163 311.135494,70.4593638 311.248452,70.2226902 C311.312999,70.0935955 311.345273,69.9080219 311.345273,69.6659693 C311.345273,69.1711063 311.169112,68.8120617 310.816791,68.5888355 C310.464471,68.3656092 309.960194,68.2539961 309.303963,68.2539961 C308.545532,68.2539961 308.007637,68.4583961 307.690279,68.8671959 C307.512774,69.0931116 307.397127,69.4292957 307.343337,69.8757482 L305.987843,69.8757482 C306.014738,68.810717 306.360335,68.0697672 307.024635,67.652899 C307.688935,67.2360307 308.459469,67.0275966 309.336237,67.0275966 C310.352857,67.0275966 311.178526,67.2212386 311.813241,67.6085227 C312.442578,67.9958067 312.757246,68.5982486 312.757246,69.4158483 L312.757246,74.3940623 C312.757246,74.5446728 312.788175,74.6656991 312.850033,74.7571412 C312.911891,74.8485832 313.04233,74.8943043 313.241351,74.8943043 C313.305898,74.8943043 313.378514,74.8902701 313.459198,74.8822016 C313.539883,74.8741332 313.625946,74.8620306 313.717388,74.8458938 L313.717388,75.9189934 C313.491472,75.9835407 313.319346,76.0238828 313.201009,76.0400197 C313.082672,76.0561565 312.921304,76.0642249 312.716904,76.0642249 C312.216662,76.0642249 311.853583,75.8867197 311.627667,75.5317093 C311.509331,75.3434462 311.425957,75.0771884 311.377546,74.7329359 C311.081704,75.12022 310.656768,75.4564041 310.102736,75.7414882 C309.548705,76.0265723 308.938195,76.1691143 308.271206,76.1691143 C307.469743,76.1691143 306.814856,75.9257171 306.306546,75.4389225 C305.798235,74.9521279 305.54408,74.3429624 305.54408,73.6114258 C305.54408,72.8099629 305.794201,72.1886947 306.294443,71.7476212 C306.794685,71.3065477 307.450916,71.0349109 308.263137,70.932711 L310.578773,70.6422479 Z" id="Shape" fill-rule="nonzero"></path>
                <path d="M316.58329,67.2373754 L317.962989,67.2373754 L317.962989,68.463775 C318.371789,67.9581541 318.804794,67.5950753 319.262005,67.3745386 C319.719215,67.1540018 320.227525,67.0437334 320.786936,67.0437334 C322.013335,67.0437334 322.841693,67.4713596 323.272009,68.3266119 C323.508682,68.7945801 323.627019,69.4642589 323.627019,70.335648 L323.627019,75.8786513 L322.150498,75.8786513 L322.150498,70.432469 C322.150498,69.9053324 322.072504,69.4803957 321.916514,69.157659 C321.658325,68.6197644 321.190357,68.3508171 320.51261,68.3508171 C320.168357,68.3508171 319.885962,68.3857803 319.665426,68.4557066 C319.267384,68.5740434 318.917752,68.810717 318.616531,69.1657274 C318.374479,69.4508115 318.217145,69.7453088 318.144529,70.0492192 C318.071913,70.3531296 318.035605,70.7874794 318.035605,71.3522687 L318.035605,75.8786513 L316.58329,75.8786513 L316.58329,67.2373754 Z" id="Path" fill-rule="nonzero"></path>
                <path d="M327.678979,67.2777175 L329.155499,67.2777175 L329.155499,75.8786513 L327.678979,75.8786513 L327.678979,67.2777175 Z M330.252804,63.7598872 L328.098536,66.0916601 L326.985095,66.0916601 L328.461615,63.7598872 L330.252804,63.7598872 Z" id="Shape" fill-rule="nonzero"></path>
                <polygon id="Path" fill-rule="nonzero" points="333.597854 74.1197361 335.284153 74.1197361 335.284153 75.8786513 333.597854 75.8786513"></polygon>
            </g>
        </g>
    </g>
</svg>