<?xml version="1.0" encoding="UTF-8" standalone="no"?>
<!DOCTYPE svg PUBLIC "-//W3C//DTD SVG 1.1//EN" "http://www.w3.org/Graphics/SVG/1.1/DTD/svg11.dtd">
<svg width="100%" height="100%" viewBox="0 0 930 194" version="1.1" xmlns="http://www.w3.org/2000/svg" xmlns:xlink="http://www.w3.org/1999/xlink" xml:space="preserve" xmlns:serif="http://www.serif.com/" style="fill-rule:evenodd;clip-rule:evenodd;stroke-linejoin:round;stroke-miterlimit:2;">
    <g transform="matrix(1,0,0,1,-970.361914,-304.897993)">
        <g transform="matrix(4.166667,0,0,4.166667,0,0)">
            <g transform="matrix(1,0,0,1,-5.466797,0)">
                <g transform="matrix(1,0,0,1,316.672,119.5823)">
                    <path d="M0,-46.403C7.77,-46.546 15.051,-42.625 19.209,-36.058L13.771,-32.045C10.91,-36.92 5.651,-39.882 0,-39.8C-9.181,-39.8 -16.186,-32.73 -16.186,-23.202C-16.186,-13.674 -9.148,-6.614 0,-6.614C5.64,-6.545 10.883,-9.505 13.738,-14.369L19.177,-10.355C15.37,-4.025 8.299,-0.011 -0.065,-0.011C-12.857,0.196 -23.941,-10.355 -23.669,-23.202C-23.93,-36.058 -12.825,-46.599 0,-46.403" style="fill:white;fill-rule:nonzero;"/>
                </g>
                <g transform="matrix(1,0,0,1,0,-12277.107)">
                    <rect x="344.518" y="12351.036" width="7.212" height="44.935" style="fill:white;"/>
                </g>
                <g transform="matrix(1,0,0,1,377.0304,80.4125)">
                    <path d="M0,31.925C10.41,31.925 17.078,25.257 17.078,15.87C17.078,6.483 10.475,0.022 0,0.022L-6.798,0.022L-6.798,31.925L0,31.925ZM-14.01,-6.483L0.13,-6.483C14.761,-6.483 24.485,2.632 24.485,15.892C24.485,28.945 14.695,38.408 0.065,38.408L-14.075,38.408L-14.01,-6.483Z" style="fill:white;fill-rule:nonzero;"/>
                </g>
                <g transform="matrix(1,0,0,1,0,-12277.107)">
                    <rect x="410.087" y="12351.036" width="7.212" height="44.935" style="fill:white;"/>
                </g>
                <g transform="matrix(1,0,0,1,439.1291,112.4022)">
                    <path d="M0,-32.011L-15.098,-32.011L-15.098,-38.473L22.386,-38.473L22.386,-32.011L7.212,-32.011L7.212,6.462L0,6.462L0,-32.011Z" style="fill:white;fill-rule:nonzero;"/>
                </g>
                <g transform="matrix(0,-42.76976,42.76976,0,259.013058,116.024023)">
                    <path d="M0.892,0.114C0.876,0.116 0.861,0.113 0.847,0.107C0.833,0.101 0.821,0.092 0.81,0.081C0.8,0.071 0.791,0.06 0.785,0.047C0.772,0.018 0.772,-0.015 0.783,-0.045C0.789,-0.059 0.798,-0.071 0.809,-0.082C0.819,-0.092 0.83,-0.101 0.843,-0.107C0.858,-0.115 0.874,-0.118 0.891,-0.117C0.925,-0.117 0.953,-0.144 0.953,-0.179C0.953,-0.204 0.938,-0.227 0.914,-0.236C0.914,-0.236 0.913,-0.236 0.912,-0.236L0.91,-0.236C0.9,-0.24 0.89,-0.241 0.88,-0.24C0.864,-0.237 0.85,-0.227 0.841,-0.214C0.834,-0.207 0.825,-0.202 0.815,-0.199C0.802,-0.194 0.787,-0.191 0.773,-0.191C0.759,-0.191 0.746,-0.193 0.733,-0.198C0.705,-0.209 0.683,-0.231 0.671,-0.258C0.666,-0.272 0.663,-0.287 0.663,-0.301C0.663,-0.315 0.666,-0.328 0.67,-0.341C0.675,-0.356 0.683,-0.369 0.695,-0.379C0.718,-0.402 0.718,-0.44 0.696,-0.463C0.695,-0.463 0.695,-0.463 0.695,-0.463C0.69,-0.469 0.683,-0.473 0.676,-0.476C0.666,-0.481 0.656,-0.483 0.646,-0.483C0.612,-0.483 0.585,-0.455 0.585,-0.421C0.586,-0.404 0.583,-0.388 0.575,-0.373C0.568,-0.36 0.56,-0.349 0.55,-0.339C0.539,-0.328 0.526,-0.319 0.512,-0.313C0.483,-0.302 0.45,-0.302 0.421,-0.315C0.408,-0.321 0.396,-0.33 0.386,-0.34C0.376,-0.351 0.367,-0.364 0.361,-0.377C0.354,-0.391 0.352,-0.407 0.354,-0.422C0.353,-0.456 0.326,-0.483 0.292,-0.483C0.277,-0.483 0.263,-0.478 0.252,-0.469C0.25,-0.467 0.248,-0.465 0.245,-0.463C0.223,-0.441 0.222,-0.405 0.244,-0.382C0.246,-0.379 0.249,-0.376 0.252,-0.374C0.26,-0.366 0.267,-0.356 0.27,-0.345C0.275,-0.331 0.278,-0.316 0.278,-0.302C0.278,-0.288 0.276,-0.275 0.271,-0.262C0.26,-0.234 0.238,-0.212 0.211,-0.2C0.197,-0.195 0.182,-0.192 0.168,-0.192C0.154,-0.192 0.141,-0.194 0.128,-0.199C0.114,-0.203 0.101,-0.211 0.091,-0.222L0.09,-0.224C0.073,-0.241 0.048,-0.246 0.026,-0.237C-0.006,-0.224 -0.022,-0.189 -0.01,-0.156C-0.001,-0.132 0.022,-0.117 0.048,-0.117C0.063,-0.118 0.078,-0.116 0.092,-0.109C0.106,-0.103 0.119,-0.094 0.129,-0.084C0.14,-0.074 0.148,-0.062 0.155,-0.05C0.167,-0.02 0.168,0.012 0.156,0.042C0.15,0.056 0.141,0.069 0.131,0.08C0.121,0.09 0.109,0.099 0.097,0.105C0.082,0.113 0.065,0.116 0.049,0.115C0.015,0.114 -0.014,0.141 -0.014,0.175C-0.015,0.19 -0.01,0.205 0,0.216C0.003,0.22 0.005,0.224 0.009,0.227C0.032,0.25 0.069,0.25 0.092,0.227C0.092,0.227 0.092,0.227 0.092,0.227C0.101,0.215 0.113,0.206 0.127,0.202C0.141,0.196 0.155,0.194 0.17,0.194C0.183,0.194 0.197,0.196 0.21,0.2C0.237,0.212 0.26,0.234 0.272,0.261C0.277,0.275 0.28,0.289 0.28,0.304C0.28,0.317 0.278,0.331 0.273,0.344C0.27,0.353 0.265,0.363 0.258,0.371C0.25,0.377 0.243,0.384 0.238,0.393C0.221,0.421 0.23,0.458 0.258,0.475C0.265,0.48 0.273,0.482 0.282,0.483L0.301,0.483C0.327,0.479 0.349,0.459 0.353,0.432C0.353,0.428 0.354,0.425 0.354,0.422C0.352,0.407 0.354,0.392 0.361,0.378C0.374,0.351 0.395,0.329 0.421,0.316C0.451,0.304 0.484,0.303 0.513,0.315C0.527,0.321 0.54,0.329 0.55,0.34C0.561,0.35 0.569,0.361 0.576,0.374C0.584,0.389 0.587,0.406 0.585,0.422C0.586,0.455 0.612,0.482 0.646,0.483L0.649,0.483C0.655,0.483 0.661,0.482 0.667,0.481C0.677,0.478 0.688,0.472 0.696,0.465C0.719,0.442 0.719,0.404 0.696,0.381C0.696,0.381 0.696,0.381 0.696,0.381C0.684,0.372 0.675,0.36 0.67,0.346C0.665,0.332 0.662,0.318 0.662,0.303C0.662,0.29 0.665,0.276 0.669,0.264C0.68,0.236 0.702,0.213 0.73,0.201C0.743,0.196 0.758,0.193 0.773,0.193C0.786,0.193 0.8,0.196 0.813,0.2C0.828,0.205 0.841,0.213 0.851,0.226C0.875,0.248 0.912,0.248 0.935,0.224C0.943,0.216 0.949,0.206 0.951,0.195C0.953,0.189 0.954,0.183 0.954,0.176C0.954,0.142 0.926,0.114 0.892,0.114ZM0.758,0.069C0.772,0.075 0.785,0.083 0.795,0.094C0.806,0.104 0.814,0.116 0.821,0.128C0.826,0.138 0.829,0.149 0.83,0.16C0.825,0.162 0.82,0.164 0.816,0.166C0.802,0.172 0.788,0.174 0.773,0.175C0.759,0.175 0.746,0.173 0.733,0.168C0.718,0.164 0.705,0.155 0.695,0.143C0.672,0.12 0.635,0.119 0.612,0.143C0.589,0.166 0.589,0.203 0.612,0.226C0.623,0.235 0.632,0.247 0.637,0.261C0.647,0.287 0.647,0.316 0.638,0.343C0.636,0.349 0.634,0.354 0.631,0.359C0.622,0.359 0.612,0.356 0.603,0.351C0.589,0.345 0.577,0.337 0.566,0.326C0.556,0.316 0.547,0.304 0.541,0.292C0.533,0.277 0.53,0.261 0.532,0.244C0.53,0.21 0.5,0.184 0.466,0.186C0.434,0.188 0.409,0.213 0.407,0.244C0.409,0.26 0.407,0.275 0.4,0.289C0.394,0.302 0.385,0.315 0.375,0.326C0.365,0.336 0.353,0.345 0.34,0.351C0.331,0.356 0.321,0.359 0.311,0.36C0.309,0.356 0.307,0.352 0.305,0.347C0.3,0.334 0.297,0.319 0.298,0.305C0.297,0.291 0.3,0.278 0.304,0.265C0.309,0.25 0.317,0.237 0.33,0.227C0.351,0.203 0.349,0.165 0.325,0.143C0.302,0.123 0.268,0.123 0.246,0.143C0.237,0.155 0.225,0.164 0.211,0.169C0.197,0.174 0.183,0.177 0.168,0.176C0.155,0.177 0.141,0.174 0.129,0.17C0.122,0.168 0.115,0.165 0.11,0.161C0.111,0.152 0.113,0.142 0.117,0.134C0.124,0.12 0.132,0.107 0.143,0.097C0.153,0.086 0.164,0.078 0.177,0.071C0.192,0.063 0.208,0.06 0.225,0.062C0.259,0.062 0.287,0.035 0.287,0C0.287,-0.034 0.259,-0.062 0.225,-0.062L0.225,-0.062C0.209,-0.06 0.194,-0.063 0.18,-0.069C0.153,-0.082 0.132,-0.103 0.118,-0.13C0.114,-0.138 0.111,-0.146 0.11,-0.155C0.115,-0.158 0.12,-0.161 0.125,-0.163C0.139,-0.168 0.153,-0.17 0.168,-0.17C0.182,-0.17 0.195,-0.168 0.208,-0.164C0.223,-0.159 0.236,-0.15 0.246,-0.138C0.269,-0.115 0.306,-0.115 0.329,-0.138C0.352,-0.161 0.352,-0.198 0.329,-0.222C0.318,-0.23 0.309,-0.243 0.304,-0.256C0.299,-0.27 0.296,-0.285 0.296,-0.299C0.296,-0.313 0.298,-0.326 0.303,-0.339C0.305,-0.345 0.307,-0.35 0.31,-0.356C0.32,-0.355 0.33,-0.352 0.338,-0.347C0.351,-0.341 0.363,-0.332 0.373,-0.322C0.383,-0.311 0.392,-0.298 0.398,-0.284C0.405,-0.271 0.408,-0.255 0.406,-0.24C0.408,-0.206 0.437,-0.18 0.472,-0.182C0.503,-0.184 0.528,-0.209 0.53,-0.24C0.528,-0.256 0.531,-0.273 0.539,-0.287C0.545,-0.3 0.554,-0.312 0.564,-0.322C0.575,-0.332 0.588,-0.341 0.601,-0.347C0.61,-0.351 0.619,-0.354 0.629,-0.355C0.632,-0.35 0.634,-0.345 0.636,-0.34C0.641,-0.327 0.643,-0.312 0.643,-0.298C0.644,-0.284 0.641,-0.271 0.637,-0.258C0.632,-0.243 0.624,-0.23 0.611,-0.22C0.589,-0.196 0.592,-0.158 0.616,-0.136C0.639,-0.116 0.673,-0.116 0.695,-0.136C0.704,-0.148 0.716,-0.157 0.73,-0.162C0.757,-0.171 0.785,-0.171 0.812,-0.162C0.818,-0.16 0.824,-0.157 0.829,-0.154C0.828,-0.146 0.826,-0.137 0.822,-0.129C0.816,-0.115 0.807,-0.102 0.796,-0.092C0.786,-0.081 0.775,-0.073 0.762,-0.066C0.747,-0.058 0.731,-0.055 0.715,-0.057C0.68,-0.055 0.654,-0.025 0.656,0.009C0.658,0.04 0.683,0.065 0.715,0.067L0.714,0.061C0.729,0.059 0.744,0.062 0.758,0.069ZM0.951,-0.001C0.951,-0.031 0.927,-0.056 0.896,-0.056C0.866,-0.056 0.842,-0.032 0.841,-0.001C0.841,0.029 0.866,0.053 0.896,0.054C0.926,0.054 0.951,0.029 0.951,-0.001L0.951,-0.001ZM0.914,-0.237C0.914,-0.236 0.914,-0.236 0.914,-0.236C0.914,-0.236 0.915,-0.236 0.915,-0.236L0.914,-0.237ZM0.828,0.306C0.828,0.293 0.822,0.28 0.813,0.27C0.792,0.251 0.76,0.251 0.741,0.271C0.721,0.291 0.721,0.323 0.741,0.343C0.761,0.363 0.794,0.362 0.813,0.342C0.823,0.333 0.828,0.32 0.828,0.307L0.828,0.306ZM0.828,-0.306C0.828,-0.319 0.822,-0.332 0.813,-0.342C0.792,-0.361 0.76,-0.361 0.741,-0.341C0.721,-0.321 0.721,-0.289 0.741,-0.269C0.761,-0.249 0.794,-0.25 0.813,-0.27C0.823,-0.279 0.828,-0.292 0.828,-0.305L0.828,-0.306ZM0.524,0.426C0.524,0.396 0.499,0.372 0.469,0.372C0.439,0.372 0.414,0.396 0.414,0.426C0.414,0.456 0.439,0.481 0.469,0.481L0.469,0.481C0.499,0.481 0.524,0.456 0.524,0.426L0.524,0.426ZM0.469,-0.481C0.439,-0.481 0.414,-0.456 0.414,-0.426C0.414,-0.396 0.438,-0.372 0.469,-0.371L0.469,-0.371C0.499,-0.371 0.524,-0.396 0.524,-0.426C0.524,-0.456 0.499,-0.481 0.469,-0.481ZM0.201,0.27C0.181,0.251 0.148,0.251 0.129,0.272C0.109,0.292 0.11,0.324 0.13,0.344C0.15,0.363 0.181,0.363 0.201,0.344C0.211,0.333 0.216,0.32 0.216,0.307C0.216,0.294 0.211,0.28 0.201,0.27ZM0.201,-0.342C0.181,-0.361 0.148,-0.36 0.129,-0.34C0.109,-0.32 0.11,-0.288 0.13,-0.268C0.15,-0.249 0.181,-0.249 0.201,-0.268C0.211,-0.279 0.216,-0.292 0.216,-0.305C0.216,-0.318 0.211,-0.331 0.201,-0.342ZM0.096,-0.001C0.096,-0.031 0.072,-0.056 0.042,-0.056C0.011,-0.056 -0.013,-0.032 -0.013,-0.001C-0.013,0.029 0.011,0.053 0.041,0.054C0.071,0.054 0.096,0.029 0.096,-0.001L0.096,-0.001Z" style="fill:url(#_Linear1);fill-rule:nonzero;"/>
                </g>
            </g>
        </g>
    </g>
    <defs>
        <linearGradient id="_Linear1" x1="0" y1="0" x2="1" y2="0" gradientUnits="userSpaceOnUse" gradientTransform="matrix(1,0,0,-1,0,0.000208)"><stop offset="0" style="stop-color:rgb(29,170,186);stop-opacity:1"/><stop offset="1" style="stop-color:rgb(177,247,80);stop-opacity:1"/></linearGradient>
    </defs>
</svg>
