<?xml version="1.0" encoding="UTF-8"?>
<svg width="615px" height="173px" viewBox="0 0 615 173" version="1.1" xmlns="http://www.w3.org/2000/svg" xmlns:xlink="http://www.w3.org/1999/xlink">
    <title>Artboard 1 Copy</title>
    <defs>
        <path d="M0,0 L615,0 L615,172 L0,172 L0,0 Z" id="path-1"></path>
    </defs>
    <g id="Artboard-1-Copy" stroke="none" fill="none" transform="translate(0, 0.4339)" xlink:href="#path-1" fill-rule="evenodd">
        <path d="M232.079952,129.545732 C224.232266,125.026245 218.082674,118.545653 213.636771,110.104753 C209.187671,101.666249 206.965119,91.7759198 206.965119,80.4348831 C206.965119,69.3046494 209.148496,59.5190827 213.518448,51.0789815 C217.886802,42.6404772 223.99642,36.1215571 231.844106,31.5222209 C239.692591,26.9236833 248.665943,24.6240152 258.764961,24.6240152 C265.357465,24.6240152 271.466283,25.7994011 277.090618,28.1509714 C282.714153,30.5025417 287.580582,33.730062 291.689104,37.8327337 C293.47594,39.6173719 295.097283,41.5185906 296.553134,43.5355911 C299.419266,47.509705 297.478131,53.1279218 292.773198,54.5093197 L286.314207,56.4065458 C283.493645,57.234586 280.445232,56.2412572 278.666391,53.9032613 C276.497405,51.0518326 274.193306,48.7649405 271.753296,47.0417864 C268.273164,44.5864116 263.917603,43.358325 258.685813,43.358325 C253.035095,43.358325 248.1175,44.8746686 243.931428,47.9041619 C239.744557,50.9360507 236.526654,55.2471298 234.277719,60.8389963 C232.027986,66.4308628 230.902319,72.9625589 230.902319,80.4348831 C230.902319,87.9096028 232.040777,94.4670105 234.316894,100.111578 C236.59381,105.754548 239.836497,110.119126 244.048952,113.202119 C247.921628,116.038376 252.359535,117.569891 257.362675,117.797462 C261.687057,117.993892 266.033824,117.062048 269.883315,115.083375 C272.790221,113.588591 275.363743,111.628283 277.600686,109.20405 C278.831084,107.87136 279.909581,106.473194 280.838575,105.01035 C282.535869,102.335389 285.886486,101.213502 288.930902,102.098235 L295.729671,104.074513 C300.256321,105.390434 302.32937,110.696439 299.780631,114.656978 C299.764641,114.681732 299.749451,114.706485 299.733462,114.73044 C298.164084,117.159464 296.174981,119.629212 293.768549,122.138086 C289.425779,126.580917 284.324304,130.055172 278.464922,132.564046 C272.603942,135.071323 266.037821,136.32576 258.764961,136.32576 C248.82264,136.32576 239.928437,134.065219 232.079952,129.545732" id="Fill-1" fill="#000000"></path>
        <path d="M337.524033,108.223817 C339.066228,111.803473 341.080915,114.41695 343.567295,116.06265 C346.051276,117.709149 348.785494,118.5316 351.76835,118.5316 C353.599157,118.5316 355.365206,118.166687 357.065698,117.434466 C358.766189,116.703843 360.505856,115.528457 362.285496,113.908309 C364.116303,112.234661 365.59374,109.701832 366.720206,106.304232 C367.845073,102.907431 368.407106,99.0131668 368.407106,94.6238351 C368.407106,90.1310183 367.884247,86.2239781 366.837729,82.9046308 C365.789612,79.5868805 364.325766,77.0652306 362.442194,75.3404796 C360.609788,73.72113 358.844538,72.5577215 357.144047,71.8518512 C355.443555,71.1475778 353.651922,70.7946426 351.76835,70.7946426 C348.785494,70.7946426 346.051276,71.6170934 343.567295,73.2635918 C341.080915,74.9092918 339.066228,77.5099928 337.524033,81.0625009 C335.97944,84.6174044 335.208742,89.136891 335.208742,94.6238351 C335.208742,100.111897 335.97944,104.644958 337.524033,108.223817 M335.874708,133.699827 C331.087428,131.950322 327.176377,129.585178 324.142354,126.60599 C320.008248,122.529668 316.987017,117.697171 315.077062,112.104506 C313.166307,106.51264 312.212529,100.687613 312.212529,94.6238351 C312.212529,83.6504259 315.220968,74.1387433 321.237847,66.0907036 C324.27187,62.0151807 328.44515,58.8140108 333.756089,56.4887909 C339.066228,54.1643694 345.070315,53.000961 351.76835,53.000961 C358.518351,53.000961 364.53443,54.1499965 369.819786,56.4496646 C375.104342,58.7493327 379.288815,61.9632785 382.378001,66.0907036 C388.342115,74.1387433 391.324971,83.6504259 391.324971,94.6238351 C391.324971,98.491749 390.997984,102.109734 390.34321,105.479386 C389.688437,108.851434 388.499612,112.367212 386.772737,116.024323 C384.993897,119.838737 382.664215,123.209188 379.78769,126.135676 C376.804834,129.166766 372.880991,131.623738 368.015362,133.504994 C363.148933,135.385452 357.733263,136.325281 351.76835,136.325281 C345.960935,136.325281 340.663587,135.450928 335.874708,133.699827" id="Fill-2" fill="#000000"></path>
        <path d="M407.018743,26.974787 L470.586116,26.974787 C473.794425,26.974787 476.395929,29.5730925 476.395929,32.7790534 L476.395929,39.8273763 C476.395929,43.0325387 473.794425,45.6316427 470.586116,45.6316427 L428.299274,45.6316427 C426.167863,45.6316427 424.440189,47.3571923 424.440189,49.4859822 L424.440189,67.4872728 C424.440189,69.6160628 426.167863,71.3424108 428.299274,71.3424108 L465.092096,71.3424108 C468.300405,71.3424108 470.902709,73.9407163 470.902709,77.1458787 L470.902709,83.8819897 C470.902709,87.0871521 468.300405,89.6854576 465.092096,89.6854576 L428.299274,89.6854576 C426.167863,89.6854576 424.440189,91.4110072 424.440189,93.5407553 L424.440189,128.170722 C424.440189,131.376683 421.838685,133.97419 418.628777,133.97419 L407.018743,133.97419 C403.809634,133.97419 401.20813,131.376683 401.20813,128.170722 L401.20813,32.7790534 C401.20813,29.5730925 403.809634,26.974787 407.018743,26.974787" id="Fill-3" fill="#000000"></path>
        <path d="M504.532792,116.690268 C506.495513,118.284864 508.993885,119.080965 512.028707,119.080965 C515.324959,119.080965 518.333398,118.363117 521.054025,116.925026 C523.773853,115.488532 525.920454,113.464345 527.489831,110.850069 C529.060008,108.237391 529.844297,105.232651 529.844297,101.835051 L529.844297,99.2654915 C529.844297,97.8952726 528.562732,96.8811829 527.223605,97.1774249 C522.840061,98.1475973 519.398304,98.7855955 516.895136,99.0914194 C506.691386,100.50316 501.58991,104.396626 501.58991,110.771018 C501.58991,113.123387 502.570871,115.097269 504.532792,116.690268 M492.878787,133.346892 C488.377721,131.362629 484.912779,128.579073 482.479165,124.998617 C480.04635,121.419759 478.830343,117.277961 478.830343,112.574022 C478.830343,105.362806 481.785217,99.4196012 487.698164,94.7420125 C493.61111,90.0647432 502.218301,86.9418259 513.519735,85.375177 C520.715046,84.2876256 525.567884,83.5170771 528.079847,83.06433 C529.10318,82.8798774 529.844297,81.9943455 529.844297,80.9555024 L529.844297,78.5552239 C529.844297,75.4187322 528.679456,73.0679604 526.352172,71.498916 C524.02329,69.9322671 520.870145,69.1481442 516.895136,69.1481442 C509.908489,69.1481442 503.697337,71.1954876 498.264078,75.2893758 C495.710542,77.2137508 492.205626,77.2480862 489.718447,75.2390706 L487.19689,73.2045031 C483.803102,70.4640654 483.763128,65.2419025 487.194492,62.5477774 C495.29961,56.1837655 505.121209,53.000961 516.659289,53.000961 C529.164739,53.000961 538.215641,55.7829205 543.814392,61.3492352 C549.413143,66.9139528 552.212919,75.157624 552.212919,86.0794503 L552.212919,131.831347 C552.212919,133.015516 551.251945,133.974509 550.067117,133.974509 L532.617689,133.974509 C531.432861,133.974509 530.471888,133.015516 530.471888,131.831347 C530.471888,129.978038 528.3053,129.027828 526.901414,130.241541 C525.543899,131.414532 523.921756,132.462957 522.035785,133.386816 C518.032794,135.346325 513.571702,136.325281 508.654106,136.325281 C502.636428,136.325281 497.377455,135.332751 492.878787,133.346892" id="Fill-4" fill="#000000"></path>
        <path d="M570.417055,55.3517328 L579.922061,55.3517328 C583.213515,55.3517328 585.882176,58.017112 585.882176,61.3053179 L585.882176,62.0151807 C587.712983,59.4017038 590.303295,57.2473619 593.652312,55.5481628 C596.999731,53.8505606 600.663743,53.000961 604.640351,53.000961 C606.965236,53.000961 608.967931,53.1143474 610.647636,53.3411202 C613.154803,53.6796825 615,55.8483972 615,58.3748381 L615,67.3611105 C615,70.4257376 612.309753,72.742174 609.26134,72.3924329 C607.720744,72.2151668 606.180148,72.1265337 604.640351,72.1265337 C598.780171,72.1265337 594.345461,74.2433463 591.337021,78.4753743 C588.327782,82.7097978 586.823963,88.5883243 586.823963,96.1123911 L586.823963,127.457346 C586.823963,131.056965 583.902666,133.974669 580.298615,133.974669 L570.981487,133.974669 C567.377436,133.974669 564.45614,131.056965 564.45614,127.457346 L564.45614,61.3053179 C564.45614,58.017112 567.124801,55.3517328 570.417055,55.3517328" id="Fill-5" fill="#000000"></path>
        <path d="M160.572953,105.261397 L105.390516,160.375976 C95.228339,170.524827 78.7529961,170.524827 68.5908189,160.375976 L11.6383352,103.493527 C1.47698944,93.3438462 1.47698944,76.888763 11.6383352,66.7398807 L66.8207724,11.6253012 C76.9829496,1.47562034 93.4582925,1.47562034 103.62047,11.6253012 L160.572953,68.5077505 C170.734331,78.6574314 170.734331,95.1125146 160.572953,105.261397 Z" id="Fill-6" fill="#000000"></path>
        <path d="M99.5223406,70.4952067 C107.244508,78.2086767 107.244508,90.7139203 99.5223406,98.4270709 C91.7993737,106.140541 79.2788134,106.140541 71.5558465,98.4270709 C63.8328796,90.7139203 63.8328796,78.2086767 71.5558465,70.4952067 C79.2788134,62.7817367 91.7993737,62.7817367 99.5223406,70.4952067" id="Fill-8" fill="#FFFFFF"></path>
        <path d="M92.7659438,82.6562986 L87.3462758,82.6562986 L87.3462758,77.2424967 C87.3462758,76.2459739 86.5372031,75.4378961 85.5394533,75.4378961 C84.5409041,75.4378961 83.7318314,76.2459739 83.7318314,77.2424967 L83.7318314,82.6562986 L78.3120834,82.6562986 C77.3143337,82.6562986 76.505261,83.4643764 76.505261,84.4608992 C76.505261,85.4574221 77.3143337,86.2654999 78.3120834,86.2654999 L83.7318314,86.2654999 L83.7318314,91.6793018 C83.7318314,92.6759045 84.5409041,93.4839823 85.5394533,93.4839823 C86.5372031,93.4839823 87.3462758,92.6759045 87.3462758,91.6793018 L87.3462758,86.2654999 L92.7659438,86.2654999 C93.7636935,86.2654999 94.5727662,85.4574221 94.5727662,84.4608992 C94.5727662,83.4643764 93.7636935,82.6562986 92.7659438,82.6562986" id="Fill-9" fill="#000000"></path>
        <path d="M78.3120035,83.9203175 C78.0129984,83.9203175 77.7691573,84.1630603 77.7691573,84.4608992 C77.7691573,84.7595367 78.0129984,85.0030779 78.3120035,85.0030779 L84.9966071,85.0030779 L84.9966071,91.6801003 C84.9966071,91.9779392 85.2396487,92.2203626 85.5394533,92.2203626 C85.837659,92.2203626 86.0815001,91.9779392 86.0815001,91.6801003 L86.0815001,85.0030779 L92.7659438,85.0030779 C93.0649489,85.0030779 93.30879,84.7595367 93.30879,84.4608992 C93.30879,84.1630603 93.0649489,83.9203175 92.7659438,83.9203175 L86.0815001,83.9203175 L86.0815001,77.2432952 C86.0815001,76.9454562 85.837659,76.7011165 85.5394533,76.7011165 C85.2396487,76.7011165 84.9966071,76.9454562 84.9966071,77.2432952 L84.9966071,83.9203175 L78.3120035,83.9203175 Z M85.5394533,94.7468035 C83.8453574,94.7468035 82.4670556,93.3709951 82.4670556,91.6801003 L82.4670556,87.5295188 L78.3120035,87.5295188 C76.6179075,87.5295188 75.2404053,86.1521135 75.2404053,84.4608992 C75.2404053,82.769685 76.6179075,81.3938767 78.3120035,81.3938767 L82.4670556,81.3938767 L82.4670556,77.2432952 C82.4670556,75.552081 83.8453574,74.1754741 85.5394533,74.1754741 C87.2327498,74.1754741 88.6102521,75.552081 88.6102521,77.2432952 L88.6102521,81.3938767 L92.7659438,81.3938767 C94.4592402,81.3938767 95.837542,82.769685 95.837542,84.4608992 C95.837542,86.1521135 94.4592402,87.5295188 92.7659438,87.5295188 L88.6102521,87.5295188 L88.6102521,91.6801003 C88.6102521,93.3709951 87.2327498,94.7468035 85.5394533,94.7468035 L85.5394533,94.7468035 Z" id="Fill-10" fill="#000000"></path>
        <path d="M85.6010132,130.005427 C83.4664043,130.007023 81.7323344,128.273489 81.7307344,126.144699 C81.7291365,124.016707 83.460808,122.280777 85.5962163,122.279179 C87.7316247,122.277583 89.4656946,124.011118 89.4672938,126.139908 C89.468093,128.268698 87.7364215,130.004628 85.6010132,130.005427 M89.6375825,115.332266 L89.6375825,109.028141 C86.9529321,109.524806 84.1963286,109.527201 81.5100793,109.040917 L81.5100793,115.35143 C77.1329319,117.012301 73.991779,121.201211 73.9941761,126.150288 C73.9989743,132.539852 79.2083793,137.736463 85.6066095,137.732473 C92.0040403,137.727679 97.2070495,132.52468 97.2030544,126.135117 C97.1998541,121.172465 94.0355164,116.977168 89.6375825,115.332266" id="Fill-11" fill="#FFFFFF"></path>
        <path d="M85.5962163,39.292383 C87.7316247,39.2907871 89.4656946,41.0243216 89.4664951,43.1531116 C89.468093,45.2819015 87.7364215,47.0178315 85.6018127,47.0186311 C83.4656049,47.020227 81.731535,45.2866925 81.7307344,43.1579026 C81.7291365,41.0291126 83.460808,39.2931826 85.5962163,39.292383 M81.559647,53.965544 L81.559647,60.2696688 C84.2450969,59.7738028 87.0017004,59.7706089 89.6871502,60.2576913 L89.6871502,53.9463801 C94.0650971,52.2863072 97.2054505,48.0965994 97.2030534,43.1483206 C97.1982552,36.7579583 91.9888502,31.5613472 85.59062,31.5661349 C79.1932692,31.5701307 73.99026,36.7731297 73.9942551,43.163492 C73.9974553,48.1253453 77.1617931,52.3206425 81.559647,53.965544" id="Fill-12" fill="#FFFFFF"></path>
        <path d="M131.01142,84.6469488 C131.013018,86.7789327 129.277349,88.5108702 127.145938,88.5124683 C125.014527,88.5140642 123.27646,86.7845222 123.274861,84.6517397 C123.274061,82.5189573 125.00973,80.7878183 127.140342,80.7862202 C129.271753,80.7846243 131.00982,82.5141663 131.01142,84.6469488 M116.319394,80.6153432 L110.008307,80.6153432 C110.504783,83.2966923 110.507981,86.049906 110.020299,88.7328521 L116.338581,88.7328521 C118.001498,93.1044572 122.196364,96.2425459 127.150735,96.2393544 C133.548965,96.2345609 138.751974,91.0317216 138.747181,84.6421578 C138.74318,78.2517955 133.532976,73.0551844 127.135545,73.0599721 C122.166783,73.0631694 117.96712,76.2228175 116.319394,80.6153432" id="Fill-13" fill="#FFFFFF"></path>
        <path d="M40.1868475,84.6517397 C40.1844515,82.5189573 41.9209198,80.7870198 44.0523308,80.7862202 C46.1829422,80.7846243 47.9210095,82.5141663 47.9226096,84.6461503 C47.9242074,86.7797312 46.1885386,88.5108702 44.0571276,88.5124683 C41.9257167,88.5140642 40.1876494,86.7845222 40.1868475,84.6517397 M54.8780756,88.6833453 L61.1899621,88.6833453 C60.6926861,86.0011977 60.6902877,83.247984 61.1771704,80.5658364 L54.8588881,80.5658364 C53.1959718,76.1932731 49.0019051,73.0559829 44.0467344,73.0591745 C37.6485042,73.0639679 32.4462945,78.2669669 32.4502896,84.6565307 C32.4542893,91.0468931 37.6644938,96.2427855 44.0619245,96.2387953 C49.0306863,96.235599 53.2311489,93.0759509 54.8780756,88.6833453" id="Fill-14" fill="#FFFFFF"></path>
    </g>
</svg>