<?xml version="1.0" encoding="UTF-8"?>
<svg width="506px" height="75px" viewBox="0 0 506 75" version="1.1" xmlns="http://www.w3.org/2000/svg" xmlns:xlink="http://www.w3.org/1999/xlink">
    <title>Artboard 1 Copy 2</title>
    <defs>
        <path d="M0,0 L506,0 L506,75 L0,75 L0,0 Z" id="path-1"></path>
    </defs>
    <g id="Artboard-1-Copy-2" stroke="none" fill="none" xlink:href="#path-1" fill-rule="evenodd">
        <path d="M453.031909,0.125042368 C454.867897,0.128926396 456.613054,0.130780055 458.272636,0.131207567 L460.223394,0.131074701 C466.272851,0.128731128 471.11695,0.109283982 475.044049,0.105888128 L476.836805,0.10561059 C490.456509,0.114951019 491.907025,0.421532714 496.235214,2.75541712 C500.113859,4.84758943 505.228576,10.5781897 505.788307,17.2773749 C505.813423,17.5690807 505.795483,17.5484496 505.874419,20.9369722 C505.937536,23.7133629 505.969728,29.1906547 505.985489,34.871267 L505.987966,35.8194901 C505.992626,37.7179884 505.99555,39.6236606 505.997274,41.4440039 L505.998039,42.3466366 L505.998201,42.5697715 L505.999028,44.0989592 C505.999083,44.2416166 505.999132,44.3833602 505.999174,44.5241366 L505.999167,47.6896417 L505.999109,47.871399 L505.998184,49.7210878 L505.998079,49.8745938 L505.997287,50.8736601 C505.997209,50.9622699 505.99713,51.0489488 505.99705,51.1336433 L505.996337,51.84087 C505.996259,51.9131764 505.996181,51.9833378 505.996105,52.0513007 L505.995254,52.7579005 C505.995191,52.8074187 505.995129,52.8545243 505.99507,52.8991637 L505.994953,53.4362284 C505.995068,53.4731761 505.995197,53.5116294 505.995315,53.5515539 L505.995425,53.9496644 C505.979797,58.5031129 505.223697,75.1410516 483.533636,75.2024286 C476.483937,75.2223758 470.688479,75.235154 465.904662,75.2379632 L462.862662,75.2383284 C447.826412,75.2322403 444.253418,75.0993845 442.097923,74.7238168 L441.951394,74.6975294 C441.903218,74.6886377 441.85567,74.6796164 441.808627,74.6704639 L441.66889,74.642612 C441.622734,74.633196 441.576962,74.6236475 441.53145,74.613965 L441.341899,74.5725965 C441.279003,74.5585431 441.216283,74.5442245 441.153407,74.5296368 L440.963977,74.485063 C440.836934,74.454804 440.707934,74.4234535 440.574317,74.3909808 C425.773749,70.7933737 425.615877,55.3169856 425.596143,53.2438298 C425.524212,46.1746349 425.485312,40.4792765 425.476985,35.8663496 L425.47614,32.7951278 C425.495017,19.5667345 425.822954,16.7866899 426.378662,14.8175427 L426.430603,14.6377977 L426.457054,14.5491261 L426.510908,14.3731321 C426.556314,14.226869 426.60303,14.0810175 426.651019,13.9311909 C431.824939,-2.24143379 448.627619,0.115713526 453.031909,0.125042368 Z M473.311427,19.8908079 L473.031231,19.8906581 C473.021715,19.8907513 473.012461,19.8908586 473.003417,19.8909802 L472.951258,19.8918843 L472.901644,19.8931472 L472.877013,19.8939177 L472.826545,19.8957454 L472.800085,19.8968062 C471.585542,19.9466797 463.137557,20.2931026 459.971133,28.0134373 C459.964549,28.0294596 459.95795,28.045517 459.951339,28.0616253 L459.891518,28.2083986 L459.871457,28.2583747 L459.831201,28.3604718 C459.82448,28.3777578 459.817752,28.3951892 459.811021,28.4127818 L459.770597,28.5203978 C459.163811,30.167433 458.545255,33.375351 458.85526,49.6326708 C458.866024,50.1502422 458.9629,55.2649594 463.948449,53.6239801 C465.82521,53.0061727 465.996385,50.3645763 466.03149,47.6076125 L466.03769,46.9938305 L466.040028,46.7186868 L466.045692,46.1705924 C466.076071,43.8054849 466.208223,41.6014572 467.452147,40.786596 C468.62184,40.0207339 474.570771,40.2860677 476.355809,40.2815827 C476.673349,40.2808032 477.005767,40.2668554 477.346979,40.2481909 L477.690897,40.2282673 C477.921829,40.2143541 478.155768,40.1995967 478.390911,40.1864993 L478.744302,40.1684113 C481.339154,40.0494871 483.97057,40.2829313 484.238681,44.2018493 C484.423464,46.9097252 484.10413,46.8946556 484.260209,49.6254948 C484.619011,55.9547555 490.555384,54.0653062 491.260429,51.6294019 C491.290317,51.5257711 491.317666,51.4305285 491.342586,51.3345415 L491.360821,51.2622688 L491.378155,51.1888608 C491.383784,51.1641071 491.389264,51.1390215 491.394597,51.1134613 L491.410159,51.0352139 L491.42485,50.9532625 C491.508023,50.4627449 491.547252,49.7394682 491.551554,48.0186534 L491.551285,47.2178579 C491.545164,44.9654035 491.497275,41.3387196 491.420096,35.2797086 C491.233519,20.6434724 480.11605,20.2645779 478.099585,19.9246134 C475.176497,19.9093299 474.005647,19.8962114 473.447181,19.8917819 L473.336468,19.8909681 L473.311427,19.8908079 Z M443.729977,22.5000915 C443.130829,23.7083737 443.047478,26.9259564 443.040136,33.6407911 L443.039955,36.1071259 C443.040038,36.2521586 443.040131,36.3985482 443.04023,36.5463052 L443.040875,37.4493414 C443.040986,37.6026105 443.041097,37.7572683 443.041206,37.9133252 L443.04201,39.3559011 C443.042193,39.8495429 443.042263,40.3560631 443.042136,40.8757474 L443.041593,41.9327527 L443.041078,42.4745783 L443.041146,42.5014673 L443.042025,42.8355239 C443.044036,43.5690237 443.048968,45.1789409 443.057857,46.8013036 L443.06116,47.3730122 C443.073307,49.365953 443.091677,51.2227818 443.11822,51.3149122 C444.261003,55.2561688 449.156852,53.670445 449.522829,53.3392711 C451.051324,51.9546556 450.662024,51.7187435 450.694317,49.6319532 L450.694972,49.3194136 C450.695041,49.2855865 450.695116,49.2491472 450.695196,49.2101617 L450.696035,48.7923215 L450.696197,48.710063 L450.697093,48.2476566 C450.699785,46.8371121 450.70393,44.4780084 450.707193,41.7805747 L450.708099,41.0012002 C450.708538,40.607437 450.708955,40.2079551 450.709342,39.8045337 L450.710076,38.9929654 L450.710246,38.7888025 L450.711003,37.7628338 C450.711094,37.6256301 450.711179,37.4883181 450.71126,37.3509637 L450.712086,35.2957064 C450.712113,35.1595756 450.712134,35.0237319 450.712148,34.8882412 L450.712159,34.0800597 L450.712137,33.8797087 L450.711165,31.737973 L450.710867,31.3975885 L450.710141,30.7311004 C450.706075,27.4492329 450.695328,24.9556666 450.672789,24.5870612 C450.394717,19.9124141 444.431434,21.0896423 443.729977,22.5000915 Z M479.629874,27.0808893 C480.221897,27.5487138 481.018436,27.7119875 481.610459,28.1796332 C484.959872,30.8265258 484.181273,33.1702981 479.931268,33.1867507 L479.827598,33.1862306 C479.466622,33.1810159 479.090374,33.141373 474.563595,33.1187945 C473.833434,33.1152179 467.188428,33.7511445 466.827832,31.8379997 C466.736338,31.362843 466.196341,28.5031403 470.652657,27.1458053 C473.745527,26.2037183 478.919447,26.9750207 479.629874,27.0808893 Z" id="Combined-Shape" fill="#000000"></path>
        <path d="M203.670158,0.269460025 C211.814829,0.453640078 216.61717,0.500091847 219.567594,0.496405333 L219.986316,0.495518093 C222.827254,0.486944325 223.801129,0.430240327 224.510092,0.419562714 L224.609744,0.418360612 L224.802386,0.418079045 C224.834099,0.418288299 224.86573,0.418632423 224.897453,0.419121583 L225.041404,0.422336111 C225.057597,0.422809683 225.073878,0.423323327 225.090268,0.423878314 L225.190092,0.42771451 C225.207005,0.42843995 225.224071,0.429209275 225.241312,0.430023755 C234.159326,0.851795072 241.512966,8.26965999 242.257479,17.3956001 C242.273625,17.5959459 242.281658,18.6187122 242.283587,20.213566 L242.283557,21.989844 C242.280108,25.4970191 242.259056,30.5873981 242.232124,35.801039 L242.226047,36.9610615 C242.173651,46.8284118 242.103374,56.7497021 242.094224,56.8858458 C241.441205,66.8155733 232.844318,72.6739069 227.094522,73.5080346 C221.832696,74.2713007 202.112959,73.8589946 200.080347,73.7873078 C198.162084,73.7197018 196.211409,73.7729033 194.25747,73.8250999 L193.222886,73.8519701 L192.5333,73.8677957 C184.94975,74.0272362 177.446199,73.6315175 171.728201,65.5524839 C169.160088,61.9239956 168.684043,60.4110656 168.659296,49.7294316 L168.658592,48.1907338 C168.664784,42.8590353 168.75098,35.4632979 168.755864,24.8940994 L168.755709,22.7376182 C168.785131,17.6738507 168.115248,13.0914157 172.389832,7.76392909 C179.0761,-0.568879986 185.909477,0.267486616 189.314505,0.38050913 C189.690268,0.393008474 190.24541,0.399184369 190.921986,0.400661051 L191.731306,0.400425491 C192.77562,0.397923926 194.008434,0.387689468 195.279108,0.373944495 L195.975053,0.366124465 L196.673074,0.357760407 C199.462071,0.323419148 202.170537,0.279675735 203.233905,0.270384525 L203.670158,0.269460025 Z M194.694735,17.853431 C192.385846,17.867783 188.503613,17.4553405 187.177841,18.8071257 C186.070938,19.9344804 186.246751,21.593938 186.246751,24.5330615 L186.24664,26.2644787 C186.246587,26.5472934 186.246518,26.8272508 186.246434,27.1043807 L186.245769,28.733473 C186.243588,32.9885265 186.238424,36.5351685 186.236457,39.4964882 L186.236229,43.0574248 C186.244535,53.2574059 186.353243,54.4140791 186.996118,55.1670075 L187.056044,55.2345837 C187.076519,55.2568987 187.097495,55.2790832 187.118987,55.3013779 L187.185017,55.3688325 C188.462351,56.6574685 192.240532,56.3035107 194.696529,56.3038695 L196.31497,56.3043522 C203.452979,56.3078577 208.64753,56.3285026 212.452728,56.3314204 L214.054249,56.3314366 C222.000884,56.3242033 222.830204,56.1923328 223.581428,55.4928909 L223.652962,55.4245472 L223.725375,55.3526864 C225.027825,54.0435987 224.672611,50.3863336 224.676199,47.8514001 C224.680505,44.5161595 224.684526,41.5781098 224.686546,38.9881886 L224.687381,37.7220116 C224.68749,37.5157415 224.687583,37.3118322 224.687659,37.1102553 L224.687697,34.8014692 C224.682373,21.7820455 224.571909,19.9476524 224.000583,19.136298 L223.951197,19.069941 C223.883865,18.9841065 223.810554,18.907626 223.730757,18.8259628 L223.637575,18.7324973 C223.58618,18.6822606 223.534696,18.634808 223.479583,18.5899891 L223.411479,18.537461 C222.614758,17.9562506 220.884877,17.8510274 209.315362,17.8432281 L206.016907,17.843179 C205.820212,17.8432738 205.621219,17.8433825 205.419899,17.8435037 L204.183843,17.8443735 C201.444257,17.8465449 198.301965,17.8504457 194.694735,17.853431 Z M102.224928,0.384531185 L105.608581,0.384509953 C111.502511,0.382966162 116.503087,0.376015778 120.759415,0.373939207 L124.773181,0.373867997 C144.412169,0.385905506 145.270589,0.622391661 148.313704,2.52883389 C159.564108,9.57659493 157.936764,19.0523666 157.850831,22.7365417 C157.613483,32.9256111 158.864087,41.1575969 155.806917,46.3605793 C151.280276,54.0642297 147.451145,52.8981244 148.240329,56.7692352 C148.257492,56.8534789 148.275062,56.9293282 148.296755,57.0045533 L148.316445,57.0690604 C148.351233,57.1769214 148.396602,57.2880393 148.463382,57.4250674 L148.506107,57.5105747 C148.938043,58.3558752 150.13603,60.1902004 154.106018,67.2088019 C156.411857,71.2854522 157.208217,71.3203457 156.414189,72.6811009 C155.506421,74.2369347 155.207898,73.9747906 153.393438,73.9576184 C142.407977,73.8536464 140.436328,73.8290764 139.469599,73.6234122 L139.39326,73.6063347 C139.331215,73.5917642 139.272771,73.5763348 139.215455,73.5599661 L139.112972,73.5294707 C139.090232,73.5224608 139.067435,73.515293 139.044424,73.5079619 L138.974589,73.4854743 L138.902517,73.461977 C135.396666,72.3167019 130.192428,59.216675 127.837433,57.4194556 C127.797208,57.3887543 127.757828,57.3586984 127.718757,57.3292824 L127.640869,57.271302 L127.562853,57.2150188 C127.549787,57.2057791 127.536676,57.1966098 127.5235,57.1875106 L127.443505,57.1337552 L127.361001,57.0816733 C126.42214,56.5094 124.835581,56.2483637 116.63113,56.2393517 L115.878553,56.2392168 C113.438366,56.2409131 110.451644,56.2627347 106.782236,56.3033313 C103.758256,56.3368793 103.130173,55.9678518 102.063456,58.7748108 C101.928188,59.1310829 101.915989,63.5828782 101.914733,64.0011512 C101.913863,64.3181307 101.913212,64.6148457 101.912756,64.8927039 L101.911944,65.6711156 C101.911882,65.8321503 101.911894,65.9854299 101.911974,66.1313713 L101.912759,66.7399828 C101.916583,68.5505311 101.93211,68.9497697 101.935993,69.2091933 L101.93644,69.3904952 C101.901816,72.4164129 101.40972,74.1012628 96.0149576,73.9295206 C86.6649459,73.6318606 84.1913675,74.4869333 84.3110278,69.3736674 C84.3229598,68.8642039 84.3337205,68.4007502 84.343429,67.9374951 L84.3527911,67.4726095 C84.4059103,64.7153558 84.4239151,61.4354255 84.4311104,48.2772066 L84.4318801,46.7448943 C84.4320012,46.482308 84.4321187,46.2160794 84.4322328,45.9461456 L84.4328787,44.281578 C84.43298,43.9965721 84.4330784,43.7077353 84.4331738,43.4150049 L84.4337135,41.611395 C84.4337981,41.3028384 84.4338802,40.9902624 84.4339599,40.6736042 L84.4348128,36.6737365 C84.4348761,36.323415 84.4349377,35.9687599 84.4349977,35.6097083 L84.4358011,29.8863475 C84.4358495,29.4817605 84.4358973,29.072463 84.4359444,28.658392 L84.4369046,19.239644 C84.4369515,18.755665 84.4369991,18.2664726 84.4370473,17.772004 L84.4378458,9.95140454 C84.437965,8.85380112 84.4380903,7.73383604 84.438223,6.59100656 C84.524465,3.29314117 84.4764492,3.12368824 84.5269176,2.86718383 L84.5368935,2.82036022 C84.5681092,2.68204219 84.8054565,1.63326502 85.2543173,1.20072966 C85.3745769,1.08481161 85.4843712,0.9845208 85.6066782,0.897822071 L85.6747701,0.851867598 C86.2780486,0.465065927 87.2543092,0.373739032 91.0309467,0.36289262 L92.9816925,0.362818309 C95.2392622,0.367062632 98.2304262,0.382263972 102.224928,0.384531185 Z M112.174665,17.8444609 C104.343999,17.8475107 101.958148,16.8925602 101.921909,22.7422826 C101.906823,25.1769269 101.892817,27.2164011 101.89065,28.9296285 L101.890752,29.8593644 C101.901856,36.531341 102.155946,37.7091356 103.443048,38.4536678 C104.174503,38.8768133 105.814133,38.9783877 111.36736,38.9867379 L113.254608,38.9865422 C117.190845,38.981172 122.721942,38.9497153 130.543699,38.9450381 L131.907141,38.9445084 C134.510964,38.9439702 138.05413,39.5137472 139.690266,37.5288566 L139.756396,37.4505116 L139.77864,37.4227728 L139.800932,37.3928902 C139.808368,37.3824833 139.815806,37.371586 139.823242,37.3600649 L139.845538,37.3234978 C140.109167,36.8654956 140.363353,35.4537135 140.376074,27.1299068 L140.376376,26.0373056 C140.375463,25.0323975 140.371361,23.9365389 140.363736,22.7412062 C140.359072,22.0058422 140.581888,19.9479355 139.438207,18.7886474 C138.645604,17.985328 137.60032,17.8473658 133.764633,17.8428774 L133.248292,17.8430052 C131.561783,17.8455299 129.380393,17.8668807 126.525296,17.869577 C126.358138,17.8694965 126.194404,17.8694079 126.033972,17.8693116 L125.110011,17.8686445 C120.235306,17.8645019 118.688316,17.8528168 116.057722,17.8472892 L115.566509,17.8463551 C115.313951,17.8459251 115.050228,17.8455527 114.772025,17.8452484 L113.574136,17.8444186 C113.143861,17.8442792 112.67999,17.8442852 112.174665,17.8444609 Z M361.541081,0.265333806 C362.259187,0.265617259 362.963187,0.265682418 363.653402,0.265572135 L365.683009,0.264757817 C369.992269,0.262038796 373.73259,0.253717963 376.991739,0.251564052 L379.172278,0.251202763 C397.890701,0.259320291 399.154256,0.603827265 403.41682,4.02736891 C411.432448,10.4653466 411.079029,15.6993654 410.775841,28.1508584 C410.564148,36.8121503 404.206183,41.6357001 402.797887,42.4654288 C394.67103,47.2563276 391.022017,45.1422684 359.738103,45.5561461 C357.032739,45.5920262 355.052154,45.8204035 354.892487,49.6780592 C354.878135,50.0112065 354.365049,55.1056515 356.532211,55.9940443 C357.173748,56.2571894 363.634474,56.3322651 371.814864,56.3390594 L374.955112,56.3386405 C376.878019,56.3367495 378.862041,56.3321598 380.860483,56.3262358 L382.194401,56.3221038 C387.97953,56.3034718 393.798397,56.276235 398.525172,56.2732903 L400.116014,56.2732918 C402.688955,56.2750797 404.855166,56.2862165 406.398461,56.313019 C411.270987,56.3976962 411.079029,58.8476834 410.933714,65.7950338 C410.791987,72.5371138 410.607204,74.041343 406.385903,73.9209794 C405.671439,73.9006149 405.064953,73.8833309 404.505544,73.8686784 L404.22948,73.8615693 L403.959572,73.8548863 C403.915006,73.8538073 403.870626,73.8527456 403.826397,73.8517007 L403.562548,73.8456335 L403.300626,73.8399612 C403.082689,73.8353954 402.864996,73.8312279 402.643142,73.8274263 L402.374637,73.8230379 C401.109661,73.8033588 399.658916,73.794746 397.248761,73.7914938 L396.440076,73.7906261 C396.34634,73.7905486 396.251274,73.7904772 396.154843,73.7904116 L390.775339,73.7904956 C390.630037,73.7905455 390.482842,73.7905972 390.333719,73.7906506 L388.44941,73.7913533 C380.199376,73.7944685 373.729705,73.8284039 368.598705,73.8328949 L366.573218,73.8329367 C350.297808,73.8170507 348.880317,73.3634577 344.820925,70.0844714 C335.185308,62.3012926 337.400908,57.4699031 337.402702,28.118925 C337.401065,25.8439149 337.377779,23.8788857 337.373323,22.1509436 L337.372751,21.370001 C337.38017,16.017529 337.649142,13.0226863 339.544747,9.92732352 C346.419387,-1.29581209 356.412012,0.263360397 361.541081,0.265333806 Z M366.475725,17.8374138 L364.990037,17.8372525 C356.63004,17.8487658 355.772681,18.0991078 355.195675,19.5214997 C354.992952,20.0204134 354.042127,26.3188172 356.4156,27.6652204 L356.482732,27.7028911 L356.548812,27.7386511 C356.592835,27.7618654 356.637114,27.7838396 356.683568,27.804641 L356.755118,27.8349717 C357.503989,28.1345629 358.981225,28.1692233 367.983496,28.1776977 L368.893472,28.1784553 C369.04926,28.1785702 369.207129,28.1786803 369.367111,28.1787865 L370.352586,28.1793853 C370.521136,28.1794801 370.691858,28.1795732 370.864782,28.1796656 L372.481359,28.1805054 C372.667765,28.1806029 372.856462,28.1807027 373.047481,28.1808061 L374.221695,28.1814765 C377.628931,28.1835418 381.724462,28.1872211 386.655402,28.197682 L387.179076,28.197962 C392.028994,28.1905506 393.342491,27.8444053 393.31476,22.740668 L393.315403,22.619954 C393.326817,21.7289011 393.461868,19.8975238 392.369317,18.8162751 C391.563219,18.0178879 390.545088,17.8619087 386.928208,17.850448 L385.900431,17.8504677 C384.261336,17.8545867 382.172496,17.8747475 379.481163,17.8790853 C373.955169,17.8692631 369.725122,17.8417923 366.475725,17.8374138 Z M8.12052409,0.38714696 L43.9996646,0.386429356 C46.7622578,0.385270151 49.1002761,0.363101943 51.1121018,0.360745562 L51.8996683,0.3609564 C58.0647566,0.372644325 61.0239574,0.642939402 64.0010615,2.50945861 C73.3695447,8.38286872 73.8205647,15.6106925 73.698866,22.5271862 L73.6875776,23.1028043 C73.6773639,23.581826 73.6655061,24.0591232 73.6547988,24.5341379 C73.2911533,40.6502514 74.2181174,44.2734302 69.1972267,49.720936 C61.7578194,57.7923976 56.6284277,56.3120588 29.9333927,56.2730466 L28.1615917,56.2726587 C26.3587251,56.2745402 24.4619255,56.2835685 22.4645701,56.3027931 C17.7999874,56.3476433 17.6231162,57.5377345 17.6109528,62.2088653 C17.6087978,63.0366633 17.6074396,63.7607883 17.6066967,64.3953468 L17.6064952,66.4287333 C17.6065721,66.4898137 17.6066568,66.5494364 17.6067487,66.6076424 L17.6073832,66.9402082 C17.6075021,66.9929123 17.6076271,67.0442819 17.6077578,67.0943584 L17.6086057,67.379627 C17.6116305,68.2809859 17.6164969,68.6979469 17.6189653,68.9595209 L17.6196296,69.0336605 C17.6197269,69.0453499 17.6198172,69.056733 17.6198999,69.067851 L17.6199026,69.3336024 C17.619709,69.3529577 17.619466,69.3727333 17.6191694,69.393258 C17.5641254,73.2066975 16.3714312,73.8704209 10.4632916,73.8800831 L9.91309828,73.8792291 C8.41074445,73.8725173 6.62489452,73.8318111 4.50457508,73.7926665 C1.48517683,73.7369231 0.79807888,73.9814321 0.0440249601,71.0833393 C0.0179901703,70.9832795 0.00497249905,67.8912492 0.0011938727,63.0904046 L0.00141306576,55.6051228 C0.0132818834,36.783968 0.097011278,7.20951599 0.141035951,4.7729587 C0.24290691,-0.865429534 2.51638348,0.191958873 8.12052409,0.38714696 Z M26.0613771,17.8564808 C24.867644,17.8674242 23.6737316,17.8611452 22.480178,17.8720886 C16.4955103,17.9268059 17.6110784,20.3460259 17.6079389,26.3238405 C17.6042612,33.3269307 17.3756686,36.4336146 18.2823783,37.5267038 C19.8265314,39.3880231 20.460845,38.9570306 40.1938397,38.9420774 L42.2793685,38.9421059 C44.4330717,38.9437997 46.7936762,38.9508108 49.3825861,38.9660365 C52.5660535,38.9846942 54.033014,39.1554838 55.3575302,37.5150427 C55.3774815,37.4903326 55.397477,37.466849 55.4174432,37.4424497 L55.441384,37.4125939 L55.4771808,37.3643624 L55.5009279,37.32871 C55.5088241,37.3162452 55.5166991,37.3031541 55.5245482,37.2892994 L55.5480135,37.2453081 C55.8129685,36.7176739 56.0426187,35.1489879 56.0521513,27.1506636 L56.0521118,26.0540558 C56.050906,25.045099 56.0465408,23.9438601 56.0387151,22.741565 C56.0119844,18.6427945 55.3408459,17.8814175 51.1713916,17.8634774 C42.8014466,17.8611452 34.4313221,17.858813 26.0613771,17.8564808 Z M259.279029,0.396828235 C272.967311,0.37769321 322.081872,0.390211451 322.098018,0.390390283 C327.7922,0.481594609 326.478986,3.6775015 326.473604,10.1460342 C326.470016,15.5537354 327.508747,17.7406721 322.083666,17.8177487 C301.396958,18.1115697 300.568126,16.9471945 299.197504,19.3422916 C298.673654,20.2564809 298.578571,20.3394589 298.688006,65.5848522 C298.702358,71.5858108 299.367935,73.8802791 293.368771,73.6788392 C283.34206,73.3422755 282.369707,73.767327 281.431441,72.2975622 C280.825066,71.3507003 280.875299,71.2496066 280.869917,40.5485493 C280.866329,20.2455721 281.128254,19.8702037 279.463414,18.4754929 C277.721432,17.015866 257.761298,18.2054565 255.603106,17.7220736 C252.608906,17.0507382 252.804453,12.9569158 252.949768,6.57332828 C253.055614,1.81639675 252.718341,0.143780938 257.501166,0.272897651 C258.094983,0.288992532 258.685212,0.380912186 259.279029,0.396828235 Z" id="Combined-Shape" fill="#000000"></path>
    </g>
</svg>