<?xml version="1.0" encoding="UTF-8"?>
<svg width="386px" height="101px" viewBox="0 0 386 101" version="1.1" xmlns="http://www.w3.org/2000/svg" xmlns:xlink="http://www.w3.org/1999/xlink">
    <title>Group</title>
    <g id="Page-1" stroke="none" stroke-width="1" fill="none" fill-rule="evenodd">
        <g id="bootcamp" transform="translate(-1465, -188)" fill="#000000">
            <g id="Group" transform="translate(1465, 188)">
                <path d="M20.4271975,80.6289103 L20.4271975,64.7520191 C20.4271975,53.5189219 11.2641326,44.3811214 9.62203594e-05,44.3811214 L9.62203594e-05,56.6341357 C4.4892571,56.6341357 8.14178195,60.2756685 8.14178195,64.7520191 L8.14178195,80.6289103 C8.14178195,91.861048 17.3048468,100.999904 28.5688832,100.999904 L28.5688832,88.746314 C24.0797223,88.746314 20.4271975,85.1047812 20.4271975,80.6289103" id="Fill-1"></path>
                <path d="M0,56.6192625 L0,44.3667279 C4.48916088,44.3667279 8.14168573,40.7242356 8.14168573,36.2483647 L8.14168573,20.3714735 C8.14168573,9.13885603 17.3047506,0 28.568787,0 L28.568787,12.25359 C24.0796261,12.25359 20.4271012,15.8951229 20.4271012,20.3714735 L20.4271012,36.2483647 C20.4271012,47.481462 11.2640364,56.6192625 0,56.6192625" id="Fill-2"></path>
                <path d="M87.0789443,20.3714735 L87.0789443,36.2483647 C87.0789443,47.481462 96.2420092,56.6193584 107.506046,56.6193584 L107.506046,44.3667279 C103.016885,44.3667279 99.3643598,40.7242356 99.3643598,36.2483647 L99.3643598,20.3714735 C99.3643598,9.13885603 90.201295,0 78.9372586,0 L78.9372586,12.25359 C83.4264195,12.25359 87.0789443,15.8951229 87.0789443,20.3714735" id="Fill-3"></path>
                <path d="M107.506527,44.3811214 L107.506527,56.6342316 C103.017366,56.6342316 99.3648409,60.2757644 99.3648409,64.7521151 L99.3648409,80.6290063 C99.3648409,91.861144 90.2017761,101 78.9377397,101 L78.9377397,88.74641 C83.4269006,88.74641 87.0794254,85.1048771 87.0794254,80.6290063 L87.0794254,64.7521151 C87.0794254,53.5190178 96.2424903,44.3811214 107.506527,44.3811214" id="Fill-4"></path>
                <polygon id="Fill-5" points="43.6214038 65.1874678 63.8834871 65.1874678 63.8834871 59.293846 43.6214038 59.293846"></polygon>
                <path d="M28.3130332,52.2303278 L35.405436,35.8122444 L41.5673878,35.8122444 L48.5749241,52.2303278 L42.5815504,52.2303278 L39.3302644,43.3903749 C38.9352798,42.295996 38.6552786,41.2850988 38.4873741,40.3591227 C38.3175451,41.2850988 38.0346573,42.295996 37.6425593,43.3903749 L34.2642625,52.2303278 L28.3130332,52.2303278 Z" id="Fill-6"></path>
                <path d="M58.9296781,52.2303278 L66.0220808,35.8122444 L72.185476,35.8122444 L79.1917614,52.2303278 L73.1981952,52.2303278 L69.9483526,43.3903749 C69.553368,42.295996 69.2719235,41.2850988 69.1040189,40.3591227 C68.9346711,41.2850988 68.6527455,42.295996 68.2592042,43.3903749 L64.8842751,52.2303278 L58.9296781,52.2303278 Z" id="Fill-7"></path>
                <path d="M135.399366,46.7718668 L137.547004,46.7718668 C139.640278,46.7718668 141.237055,46.1769392 142.339259,44.9861244 C143.440982,43.7972287 143.9726,42.1405471 143.936036,40.0160798 C143.898991,37.8191656 143.330329,36.1533682 142.229087,35.0182079 C141.127364,33.8830476 139.548387,33.3149877 137.492158,33.3149877 L135.399366,33.3149877 C134.480942,33.3149877 134.021971,33.7726981 134.021971,34.688119 L134.021971,45.3992153 C134.021971,46.3141564 134.480942,46.7718668 135.399366,46.7718668 L135.399366,46.7718668 Z M132.810557,51.1656952 C131.67227,51.1656952 130.763469,50.8456817 130.084153,50.2056548 C129.403875,49.5641884 129.064698,48.7140177 129.064698,47.6508244 L129.064698,32.3261604 C129.064698,31.2648863 129.376452,30.4315078 130.001403,29.8269846 C130.625392,29.2229411 131.451444,28.9211593 132.480521,28.9211593 L137.492158,28.9211593 C139.915468,28.9211593 141.971216,29.406697 143.660846,30.3768128 C145.349032,31.3474085 146.643677,32.6653651 147.543818,34.3302029 C148.442998,35.9974396 148.893309,37.8930517 148.893309,40.0160798 C148.893309,42.212994 148.433857,44.1551448 147.516395,45.8382143 C146.597972,47.5232028 145.349032,48.8315638 143.771018,49.7652164 C142.192042,50.6998285 140.429285,51.1656952 138.483709,51.1656952 L132.810557,51.1656952 Z" id="Fill-8"></path>
                <path d="M161.83639,51.166175 C160.771231,51.166175 159.908616,50.8370457 159.247582,50.1783073 C158.587029,49.5181295 158.256031,48.6588429 158.256031,47.5966092 L158.256031,32.3261604 C158.256031,31.265366 158.567785,30.4319876 159.192736,29.8269846 C159.816725,29.2234209 160.642777,28.921639 161.671373,28.921639 L169.988179,28.921639 C171.530592,28.921639 172.301317,29.6542636 172.301317,31.1185532 C172.301317,31.7413081 172.080972,32.2628294 171.640283,32.6845563 C171.199594,33.1053237 170.649213,33.3154675 169.988179,33.3154675 L164.315027,33.3154675 C163.579903,33.3154675 163.213304,33.6820196 163.213304,34.4132049 L163.213304,36.6101191 C163.213304,37.344183 163.579903,37.7092959 164.315027,37.7092959 L169.162128,37.7092959 C169.895808,37.7092959 170.464951,37.9108036 170.869077,38.3133393 C171.272721,38.7173144 171.475265,39.2474717 171.475265,39.9062101 C171.475265,40.4929814 171.245298,41.0053868 170.786808,41.4443859 C170.326875,41.8829051 169.785635,42.1031243 169.162128,42.1031243 L164.315027,42.1031243 C163.579903,42.1031243 163.213304,42.4696765 163.213304,43.202301 L163.213304,45.6194344 C163.213304,46.3525388 163.579903,46.7176516 164.315027,46.7176516 L170.53856,46.7176516 C171.235676,46.7176516 171.79616,46.9181998 172.219048,47.3212153 C172.640012,47.7251904 172.852178,48.2740591 172.852178,48.9692608 C172.852178,49.5920157 172.631834,50.1149763 172.191144,50.5347841 C171.750455,50.956511 171.199594,51.166175 170.53856,51.166175 L161.83639,51.166175 Z" id="Fill-9"></path>
                <path d="M189.650329,51.7160033 C187.960699,51.7160033 186.381723,51.4310138 184.9134,50.864873 C183.444597,50.296813 182.288028,49.5378005 181.444175,48.5854365 C181.039088,48.145478 180.837506,47.632113 180.837506,47.0472607 C180.837506,46.4245058 181.076132,45.8756371 181.553867,45.3992153 C182.030638,44.9242327 182.599782,44.6853021 183.261297,44.6853021 C183.885286,44.6853021 184.418347,44.9055213 184.859036,45.3445203 C185.482544,45.9303321 186.272032,46.3885223 187.226538,46.7171719 C188.181525,47.0472607 189.117268,47.2108658 190.036172,47.2108658 C190.990197,47.2108658 191.816249,47.0012018 192.514328,46.5794749 C193.211444,46.1596671 193.561205,45.4903735 193.561205,44.5749526 C193.561205,43.8063445 193.238867,43.2109371 192.597077,42.7896899 C191.954325,42.3698821 190.880506,42.0306774 189.375139,41.773995 C186.694439,41.3340364 184.674293,40.592296 183.316624,39.5502131 C181.957511,38.5057312 181.278676,37.031846 181.278676,35.127118 C181.278676,33.0774964 182.067683,31.4385667 183.64714,30.2117684 C185.225154,28.98497 187.300146,28.371331 189.870673,28.371331 C192.514328,28.371331 194.625402,29.0502202 196.20486,30.4041603 C196.828368,30.9170455 197.140603,31.521089 197.140603,32.2158109 C197.140603,32.8025823 196.911598,33.3068314 196.452627,33.7266392 C195.992694,34.1483661 195.451935,34.3580301 194.827465,34.3580301 C194.349731,34.3580301 193.909523,34.2308884 193.505879,33.9742059 C192.109721,33.0952483 190.641398,32.6562493 189.099467,32.6562493 C188.181525,32.6562493 187.410319,32.8400051 186.785849,33.205118 C186.161378,33.5716702 185.850106,34.1205389 185.850106,34.8536432 C185.850106,35.6222514 186.3365,36.2262948 187.309287,36.6652938 C188.282075,37.1052524 189.705655,37.5082679 191.578104,37.8738605 C192.605737,38.0580962 193.62423,38.3781097 194.635024,38.8358201 C195.644376,39.2935306 196.48871,39.9800962 197.168507,40.8950374 C197.847341,41.8104583 198.186999,43.055968 198.186999,44.6301274 C198.186999,46.7171719 197.388851,48.4203921 195.791593,49.7378689 C194.194335,51.0558255 192.146766,51.7160033 189.650329,51.7160033" id="Fill-10"></path>
                <path d="M214.655114,41.2788616 L217.904475,41.2788616 C218.125301,41.2788616 218.298979,41.1963394 218.427914,41.0327343 C218.555887,40.8676899 218.58331,40.6575461 218.510663,40.399904 L217.078423,36.501209 C216.858079,35.9149174 216.582888,35.6222514 216.252372,35.6222514 C215.921374,35.6222514 215.646183,35.9336288 215.42632,36.5563837 L214.048925,40.4550788 C213.974836,40.6748182 213.994561,40.8676899 214.104252,41.0327343 C214.214424,41.1963394 214.397724,41.2788616 214.655114,41.2788616 M208.375773,51.7160033 C207.788348,51.7160033 207.227864,51.4962639 206.696247,51.0558255 C206.163667,50.6173063 205.897618,50.0492464 205.897618,49.3540446 C205.897618,49.0618584 205.952944,48.7490416 206.062635,48.4203921 L213.002529,30.3494654 C213.258956,29.6907269 213.681364,29.1951138 214.269751,28.8664643 C214.856214,28.5358956 215.461921,28.371331 216.086873,28.371331 C216.747906,28.371331 217.381517,28.5358956 217.987225,28.8664643 C218.592932,29.1951138 219.023999,29.6907269 219.28187,30.3494654 L226.717298,48.3100426 C226.790425,48.4563756 226.82747,48.604148 226.82747,48.7490416 L226.82747,49.1890002 C226.82747,49.9580881 226.5696,50.5621316 226.056264,51.0011306 C225.541485,51.4410891 224.973304,51.6613083 224.348353,51.6613083 C223.907663,51.6613083 223.476115,51.5413632 223.05467,51.303872 C222.632262,51.0659009 222.328687,50.6907127 222.145869,50.1783073 L220.548129,45.8929092 C220.511085,45.67269 220.364349,45.5642597 220.10744,45.5642597 L212.672012,45.5642597 C212.415104,45.5642597 212.249605,45.67269 212.176477,45.8929092 L210.634065,50.2320427 C210.377156,50.7079848 210.046639,51.074537 209.642995,51.3307397 C209.238388,51.5874222 208.816943,51.7160033 208.375773,51.7160033" id="Fill-11"></path>
                <path d="M241.312483,38.8084726 L244.672017,38.8084726 C245.589478,38.8084726 246.314498,38.5522699 246.847559,38.0393847 C247.379177,37.5269793 247.646188,36.8677611 247.646188,36.0612504 C247.646188,35.2201954 247.379177,34.5509018 246.847559,34.0572079 C246.314498,33.5615948 245.589478,33.3154675 244.672017,33.3154675 L241.312483,33.3154675 C240.761622,33.3154675 240.48595,33.589422 240.48595,34.1397301 L240.48595,37.98421 C240.48595,38.5335585 240.761622,38.8084726 241.312483,38.8084726 M238.06264,51.7160033 C237.401607,51.7160033 236.831982,51.4861885 236.355691,51.0289578 C235.877957,50.5726867 235.63885,50.0324541 235.63885,49.4096992 L235.63885,32.4916846 C235.63885,31.4299307 235.978026,30.5682452 236.658304,29.9095068 C237.337139,29.2502886 238.246421,28.921639 239.384708,28.921639 L244.892362,28.921639 C247.131409,28.921639 248.940833,29.5808572 250.317747,30.8988138 C251.694179,32.2162907 252.382154,33.8643362 252.382154,35.8410312 C252.382154,37.0140941 252.0704,38.1132709 251.446892,39.137602 C250.82146,40.1624128 249.922762,40.9866754 248.747911,41.6094303 C249.261728,41.865633 249.729359,42.2134738 250.152248,42.6524728 C250.574174,43.0924313 250.913832,43.6235482 251.171221,44.2453435 L252.988824,48.4203921 C253.172124,48.8589113 253.264976,49.2254635 253.264976,49.5181295 C253.264976,50.1783073 253.006624,50.7185399 252.492327,51.1383478 C251.97851,51.5600747 251.409848,51.7702185 250.785859,51.7702185 C250.380771,51.7702185 249.98723,51.6613083 249.601867,51.4410891 C249.216023,51.2213498 248.91341,50.873509 248.692585,50.3970871 L246.599792,45.3992153 C246.232711,44.5202577 245.746317,43.8888667 245.139648,43.5036031 C244.534422,43.1197788 243.827202,42.9273869 243.019432,42.9273869 L241.587673,42.9273869 C240.853031,42.9273869 240.48595,43.2939391 240.48595,44.0265637 L240.48595,49.4096992 C240.48595,50.0324541 240.246843,50.5726867 239.770071,51.0289578 C239.292818,51.4861885 238.723193,51.7160033 238.06264,51.7160033" id="Fill-12"></path>
                <path d="M267.749027,38.8084726 L271.109523,38.8084726 C272.026984,38.8084726 272.752004,38.5522699 273.284584,38.0393847 C273.816202,37.5269793 274.083694,36.8677611 274.083694,36.0612504 C274.083694,35.2201954 273.816202,34.5509018 273.284584,34.0572079 C272.752004,33.5615948 272.026984,33.3154675 271.109523,33.3154675 L267.749027,33.3154675 C267.198646,33.3154675 266.923937,33.589422 266.923937,34.1397301 L266.923937,37.98421 C266.923937,38.5335585 267.198646,38.8084726 267.749027,38.8084726 M264.499184,51.7160033 C263.839594,51.7160033 263.269007,51.4861885 262.792716,51.0289578 C262.314982,50.5726867 262.076837,50.0324541 262.076837,49.4096992 L262.076837,32.4916846 C262.076837,31.4299307 262.415051,30.5682452 263.094848,29.9095068 C263.774645,29.2502886 264.683446,28.921639 265.821733,28.921639 L271.329868,28.921639 C273.569396,28.921639 275.377377,29.5808572 276.75429,30.8988138 C278.130723,32.2162907 278.820623,33.8643362 278.820623,35.8410312 C278.820623,37.0140941 278.506944,38.1132709 277.883917,39.137602 C277.258004,40.1624128 276.360268,40.9866754 275.184455,41.6094303 C275.698272,41.865633 276.167346,42.2134738 276.588791,42.6524728 C277.011199,43.0924313 277.350857,43.6235482 277.609208,44.2453435 L279.425849,48.4203921 C279.609148,48.8589113 279.700558,49.2254635 279.700558,49.5181295 C279.700558,50.1783073 279.445093,50.7185399 278.930795,51.1383478 C278.415535,51.5600747 277.847354,51.7702185 277.222883,51.7702185 C276.818277,51.7702185 276.424255,51.6613083 276.039373,51.4410891 C275.653048,51.2213498 275.349954,50.873509 275.129128,50.3970871 L273.037779,45.3992153 C272.669255,44.5202577 272.182861,43.8888667 271.577154,43.5036031 C270.971447,43.1197788 270.264227,42.9273869 269.456938,42.9273869 L268.024698,42.9273869 C267.290056,42.9273869 266.923937,43.2939391 266.923937,44.0265637 L266.923937,49.4096992 C266.923937,50.0324541 266.683386,50.5726867 266.206615,51.0289578 C265.730324,51.4861885 265.16118,51.7160033 264.499184,51.7160033" id="Fill-13"></path>
                <path d="M298.922018,47.3212153 C300.795428,47.3212153 302.327256,46.6260136 303.52087,45.2341708 C304.714965,43.842328 305.311531,42.0858522 305.311531,39.9613848 C305.311531,37.837877 304.714965,36.0986732 303.52087,34.7432938 C302.327256,33.3893536 300.795428,32.711424 298.922018,32.711424 C297.013487,32.711424 295.443652,33.3893536 294.212512,34.7432938 C292.982335,36.0986732 292.367968,37.837877 292.367968,39.9613848 C292.367968,42.0858522 292.982335,43.842328 294.212512,45.2341708 C295.443652,46.6260136 297.013487,47.3212153 298.922018,47.3212153 M298.922018,51.7160033 C296.755135,51.7160033 294.800419,51.1935225 293.056425,50.15048 C291.312431,49.1069578 289.935517,47.6877675 288.926166,45.8929092 C287.915852,44.0999701 287.411657,42.1218357 287.411657,39.9613848 C287.411657,37.7280073 287.915852,35.7412369 288.926166,34.0015533 C289.935517,32.2623496 291.303771,30.889698 293.029002,29.8816795 C294.754233,28.8755801 296.720015,28.371331 298.922018,28.371331 C301.126426,28.371331 303.081143,28.8755801 304.788573,29.8816795 C306.495041,30.889698 307.836834,32.2623496 308.809622,34.0015533 C309.781448,35.7412369 310.269285,37.7280073 310.269285,39.9613848 C310.269285,42.158299 309.772788,44.1450694 308.782199,45.9207365 C307.790648,47.6973631 306.440196,49.1069578 304.733728,50.15048 C303.025816,51.1935225 301.088419,51.7160033 298.922018,51.7160033" id="Fill-14"></path>
                <path d="M323.211885,51.166175 C322.147207,51.166175 321.284592,50.8370457 320.624039,50.1783073 C319.963005,49.5181295 319.632007,48.6588429 319.632007,47.5966092 L319.632007,31.0082038 C319.632007,30.3134818 319.871596,29.7444623 320.347886,29.3059431 C320.824658,28.8664643 321.431328,28.6462451 322.16597,28.6462451 C322.863087,28.6462451 323.441371,28.8664643 323.901304,29.3059431 C324.359794,29.7444623 324.588799,30.3134818 324.588799,31.0082038 L324.588799,45.0144314 C324.588799,46.1136082 325.140141,46.6619971 326.240902,46.6619971 L331.143811,46.6619971 C331.804364,46.6619971 332.346084,46.8735803 332.768492,47.2938678 C333.189937,47.715115 333.40114,48.2553477 333.40114,48.9145658 C333.40114,49.5733043 333.189937,50.1149763 332.768492,50.5347841 C332.346084,50.956511 331.804364,51.166175 331.143811,51.166175 L323.211885,51.166175 Z" id="Fill-15"></path>
                <path d="M346.069032,51.166175 C345.003391,51.166175 344.140776,50.8370457 343.481185,50.1783073 C342.819189,49.5181295 342.488191,48.6588429 342.488191,47.5966092 L342.488191,31.0082038 C342.488191,30.3134818 342.727299,29.7444623 343.205514,29.3059431 C343.681805,28.8664643 344.288474,28.6462451 345.023117,28.6462451 C345.720233,28.6462451 346.297074,28.8664643 346.757489,29.3059431 C347.21646,29.7444623 347.445945,30.3134818 347.445945,31.0082038 L347.445945,45.0144314 C347.445945,46.1136082 347.997288,46.6619971 349.09853,46.6619971 L354.000957,46.6619971 C354.660548,46.6619971 355.201787,46.8735803 355.626119,47.2938678 C356.047083,47.715115 356.257806,48.2553477 356.257806,48.9145658 C356.257806,49.5733043 356.047083,50.1149763 355.626119,50.5347841 C355.201787,50.956511 354.660548,51.166175 354.000957,51.166175 L346.069032,51.166175 Z" id="Fill-16"></path>
                <path d="M374.654176,47.3212153 C376.527587,47.3212153 378.059415,46.6260136 379.253028,45.2341708 C380.447123,43.842328 381.043689,42.0858522 381.043689,39.9613848 C381.043689,37.837877 380.447123,36.0986732 379.253028,34.7432938 C378.059415,33.3893536 376.527587,32.711424 374.654176,32.711424 C372.744683,32.711424 371.174848,33.3893536 369.944671,34.7432938 C368.713531,36.0986732 368.099164,37.837877 368.099164,39.9613848 C368.099164,42.0858522 368.713531,43.842328 369.944671,45.2341708 C371.174848,46.6260136 372.744683,47.3212153 374.654176,47.3212153 M374.654176,51.7160033 C372.487294,51.7160033 370.531615,51.1935225 368.788583,50.15048 C367.043146,49.1069578 365.666714,47.6877675 364.657362,45.8929092 C363.64801,44.0999701 363.142854,42.1218357 363.142854,39.9613848 C363.142854,37.7280073 363.64801,35.7412369 364.657362,34.0015533 C365.666714,32.2623496 367.034486,30.889698 368.76116,29.8816795 C370.486391,28.8755801 372.451211,28.371331 374.654176,28.371331 C376.857141,28.371331 378.811858,28.8755801 380.519769,29.8816795 C382.2272,30.889698 383.567549,32.2623496 384.540818,34.0015533 C385.512644,35.7412369 386,37.7280073 386,39.9613848 C386,42.158299 385.504946,44.1450694 384.512914,45.9207365 C383.521364,47.6973631 382.172354,49.1069578 380.464443,50.15048 C378.756531,51.1935225 376.820578,51.7160033 374.654176,51.7160033" id="Fill-17"></path>
                <path d="M130.626355,78.8100151 C129.581883,78.8100151 128.522978,78.587397 127.449639,78.1407215 C127.121528,77.9032302 126.88242,77.6268767 126.73376,77.3154993 C126.584137,77.0026825 126.510048,76.698022 126.510048,76.4005582 C126.510048,75.8651233 126.688536,75.3901408 127.046476,74.9722521 C127.404416,74.5572421 127.866755,74.3485376 128.433974,74.3485376 C128.672119,74.3485376 128.926141,74.393637 129.194596,74.4819166 C129.64202,74.6613544 130.07405,74.749634 130.491646,74.749634 C130.998727,74.749634 131.393712,74.5788322 131.677562,74.2372286 C131.96045,73.8946654 132.102856,73.3222875 132.102856,72.5191352 L132.102856,61.9893959 C132.102856,61.4242147 132.288561,60.9631457 132.661896,60.6066689 C133.034269,60.2487528 133.518739,60.0697947 134.115786,60.0697947 C134.711871,60.0697947 135.196822,60.2487528 135.569676,60.6066689 C135.94253,60.9631457 136.128716,61.4242147 136.128716,61.9893959 L136.128716,72.8314722 C136.128716,74.7947333 135.599023,76.2810929 134.54108,77.2929496 C133.482175,78.3043266 132.176946,78.8100151 130.626355,78.8100151" id="Fill-18"></path>
                <path d="M153.085149,75.2397776 C154.606874,75.2397776 155.851484,74.6760357 156.820904,73.5456732 C157.790324,72.4153107 158.275275,70.9874844 158.275275,69.2617145 C158.275275,67.5373839 157.790324,66.1244308 156.820904,65.0228551 C155.851484,63.9227188 154.606874,63.3724107 153.085149,63.3724107 C151.534077,63.3724107 150.259157,63.9227188 149.260389,65.0228551 C148.260179,66.1244308 147.761276,67.5373839 147.761276,69.2617145 C147.761276,70.9874844 148.260179,72.4153107 149.260389,73.5456732 C150.259157,74.6760357 151.534077,75.2397776 153.085149,75.2397776 M153.085149,78.8098231 C151.325278,78.8098231 149.73668,78.3861771 148.320317,77.5384052 C146.903953,76.6901536 145.785391,75.5386807 144.965113,74.0806283 C144.144834,72.6230556 143.734454,71.0172308 143.734454,69.2617145 C143.734454,67.447665 144.144834,65.8341637 144.965113,64.4212106 C145.785391,63.0087372 146.895774,61.8932479 148.298186,61.0742629 C149.699635,60.2567172 151.295931,59.8474645 153.085149,59.8474645 C154.874847,59.8474645 156.462965,60.2567172 157.850462,61.0742629 C159.236997,61.8932479 160.325731,63.0087372 161.116181,64.4212106 C161.905669,65.8341637 162.301616,67.447665 162.301616,69.2617145 C162.301616,71.0460176 161.898934,72.6604785 161.09405,74.103178 C160.288686,75.5463572 159.192736,76.6901536 157.805239,77.5384052 C156.418222,78.3861771 154.845019,78.8098231 153.085149,78.8098231" id="Fill-19"></path>
                <path d="M176.170819,78.8100151 C175.663256,78.8100151 175.171089,78.6761563 174.694317,78.4084389 C174.216583,78.1407215 173.874039,77.7396251 173.665721,77.2041902 L168.251402,62.7474489 C168.162398,62.4797314 168.117174,62.2278467 168.117174,61.9893959 C168.117174,61.4242147 168.325973,60.9631457 168.743569,60.6066689 C169.161165,60.2487528 169.638899,60.0697947 170.175809,60.0697947 C170.533749,60.0697947 170.898424,60.1676699 171.27224,60.3600618 C171.644613,60.5538931 171.890456,60.8590334 172.009769,61.2754827 L175.63439,71.9390807 C175.812879,72.445249 176.036591,72.6980932 176.305046,72.6980932 C176.573501,72.6980932 176.797213,72.4591626 176.975702,71.9837003 L180.824035,61.3205821 C180.972215,60.9041328 181.21902,60.5989925 181.561564,60.4051612 C181.90459,60.2122895 182.255794,60.1148941 182.613253,60.1148941 C183.268994,60.1148941 183.776557,60.3389515 184.134497,60.7841877 C184.492436,61.2303834 184.671406,61.7072851 184.671406,62.212014 L184.671406,62.5022811 C184.671406,62.607353 184.641097,62.718662 184.58144,62.8371678 L178.765882,77.2041902 C178.557083,77.7396251 178.20636,78.1407215 177.714193,78.4084389 C177.222026,78.6761563 176.707247,78.8100151 176.170819,78.8100151" id="Fill-20"></path>
                <path d="M194.961211,78.3635315 C194.09619,78.3635315 193.395225,78.095814 192.858316,77.5608589 C192.321887,77.0254241 192.052951,76.3268639 192.052951,75.4637391 L192.052951,63.0599778 C192.052951,62.1982923 192.306011,61.5208424 192.814054,61.0305069 C193.320654,60.5392118 193.991791,60.2940441 194.826984,60.2940441 L201.582616,60.2940441 C202.835405,60.2940441 203.461799,60.8889717 203.461799,62.0783472 C203.461799,62.5845154 203.282829,63.0086413 202.92489,63.3497651 C202.56695,63.692808 202.119525,63.8626503 201.582616,63.8626503 L196.975104,63.8626503 C196.377575,63.8626503 196.079773,64.1610737 196.079773,64.7555215 L196.079773,66.5393448 C196.079773,67.1361916 196.377575,67.4326958 196.975104,67.4326958 L200.91196,67.4326958 C201.508045,67.4326958 201.970384,67.5963009 202.298495,67.9239909 C202.626606,68.2516809 202.790662,68.6815641 202.790662,69.216999 C202.790662,69.6934208 202.603995,70.1098702 202.231622,70.4658672 C201.857806,70.8233035 201.41856,71.0022616 200.91196,71.0022616 L196.975104,71.0022616 C196.377575,71.0022616 196.079773,71.2997254 196.079773,71.8941733 L196.079773,73.8569547 C196.079773,74.4523621 196.377575,74.7498259 196.975104,74.7498259 L202.030521,74.7498259 C202.596297,74.7498259 203.051419,74.9139108 203.394445,75.2396816 C203.73747,75.568811 203.909224,76.0140471 203.909224,76.5792284 C203.909224,77.0853966 203.730735,77.5095225 203.372795,77.8511261 C203.014856,78.1936892 202.56695,78.3635315 202.030521,78.3635315 L194.961211,78.3635315 Z" id="Fill-21"></path>
                <path d="M213.527892,78.8100151 C212.930845,78.8100151 212.446375,78.6387335 212.073521,78.2971299 C211.700186,77.956006 211.514,77.5016541 211.514,76.9355132 L211.514,62.4360714 C211.514,61.6621857 211.753108,61.073975 212.229879,60.6728786 C212.707132,60.2713025 213.244042,60.0697947 213.840608,60.0697947 C214.258205,60.0697947 214.660406,60.1676699 215.048655,60.3600618 C215.436423,60.5538931 215.764534,60.8590334 216.032989,61.2754827 L222.475904,70.9574501 C222.594255,71.1661546 222.773706,71.2697871 223.012333,71.2697871 C223.310135,71.2697871 223.460239,71.0913089 223.460239,70.7348321 L223.14656,61.9447763 C223.116732,61.3503285 223.295702,60.8887798 223.683951,60.5615696 C224.070757,60.235319 224.562924,60.0697947 225.160452,60.0697947 C225.756538,60.0697947 226.241007,60.235319 226.614342,60.5615696 C226.986715,60.8887798 227.173382,61.3503285 227.173382,61.9447763 L227.173382,76.4005582 C227.173382,77.1442177 226.934756,77.7242721 226.457503,78.1407215 C225.98025,78.5576506 225.44334,78.7649157 224.846774,78.7649157 C224.459006,78.7649157 224.070757,78.6684799 223.683951,78.4746486 C223.295702,78.2817769 222.968072,77.9771164 222.699617,77.560667 L216.301444,67.5658829 C216.182131,67.3586178 216.003161,67.2535459 215.764534,67.2535459 C215.436423,67.2535459 215.272367,67.4473771 215.272367,67.8336003 L215.540822,76.9355132 C215.570169,77.5016541 215.39168,77.956006 215.004393,78.2971299 C214.616144,78.6387335 214.123977,78.8100151 213.527892,78.8100151" id="Fill-22"></path>
            </g>
        </g>
    </g>
</svg>