<?xml version="1.0" encoding="UTF-8"?>
<svg width="52px" height="121px" viewBox="0 0 52 121" version="1.1" xmlns="http://www.w3.org/2000/svg" xmlns:xlink="http://www.w3.org/1999/xlink">
    <title>Path</title>
    <g id="Page-1" stroke="none" stroke-width="1" fill="none" fill-rule="evenodd">
        <path d="M38.3580214,120.004345 C34.9991478,120.021517 31.7742437,118.688317 29.4080214,116.304345 C26.9834606,114.134107 25.5918024,111.038303 25.5780214,107.784345 L25.5780214,32.5043454 C25.5780214,29.8376787 24.4413548,29.1710121 22.1680214,30.5043454 L17.0580214,33.3443454 C16.3449847,33.711536 15.5734663,33.9517895 14.7780214,34.0543454 C14.0252474,34.1507811 13.2669406,34.1975489 12.5080214,34.1943454 C9.20084357,34.3136902 5.99850492,33.0233041 3.69802143,30.6443454 C1.4085849,28.2380988 0.180174051,25.0139706 0.288021431,21.6943454 C0.288021431,16.7743454 2.9546881,13.1776787 8.28802143,10.9043454 L30.1580214,2.09434539 C32.2348321,1.2313888 34.4503425,0.750345266 36.6980214,0.674345393 C40.6408075,0.525419044 44.4781376,1.96666978 47.3480214,4.67434539 C50.1355175,7.4441982 51.6305764,11.2580501 51.4680214,15.1843454 L51.1880214,108.364345 C51.2845792,111.541943 49.9877964,114.603082 47.6380214,116.744345 C45.0839315,118.992371 41.7569052,120.161132 38.3580214,120.004345 Z" id="Path" fill="#FFFFFF"></path>
    </g>
</svg>