<?xml version="1.0" encoding="UTF-8"?>
<svg width="1055px" height="794px" viewBox="0 0 1055 794" version="1.1" xmlns="http://www.w3.org/2000/svg" xmlns:xlink="http://www.w3.org/1999/xlink">
    <title>Group</title>
    <g id="Page-1" stroke="none" stroke-width="1" fill="none" fill-rule="evenodd">
        <g id="Group" transform="translate(-0.012, 2.0243)">
            <path d="M682.61,438.93 C647.206323,330.433849 604.694291,224.38761 555.35,121.48" id="Path" stroke="#12243F" stroke-width="4.05989673" stroke-linecap="round" stroke-linejoin="round"></path>
            <path d="M770.72,394.55 C727.326667,289.01 678.853333,185.756667 625.3,84.79" id="Path" stroke="#12243F" stroke-width="4.05989673" stroke-linecap="round" stroke-linejoin="round"></path>
            <line x1="850.32" y1="370.88" x2="701.51" y2="60.98" id="Path" stroke="#12243F" stroke-width="4.05989673" stroke-linecap="round" stroke-linejoin="round"></line>
            <line x1="921.74" y1="337.56" x2="766" y2="0.68" id="Path" stroke="#12243F" stroke-width="4.05989673" stroke-linecap="round" stroke-linejoin="round"></line>
            <path d="M516,209.78 C647.656774,164.886328 773.363427,104.143503 890.35,28.89" id="Path" stroke="#12243F" stroke-width="4.05989673" stroke-linecap="round" stroke-linejoin="round"></path>
            <line x1="525.56" y1="300.61" x2="931.65" y2="125.2" id="Path" stroke="#12243F" stroke-width="4.05989673" stroke-linecap="round" stroke-linejoin="round"></line>
            <line x1="583.65" y1="379.94" x2="983.4" y2="204.31" id="Path" stroke="#12243F" stroke-width="4.05989673" stroke-linecap="round" stroke-linejoin="round"></line>
            <path d="M85.54,364.02 C66.28,359.02 50.36,342.62 45.92,323.23 C41.48,303.84 48.65,282.15 63.79,269.23 C78.93,256.3105 101.49,252.68 119.93,260.16 L113.36,276.35 C100.466476,271.150114 85.7515217,273.546083 75.1736226,282.567714 C64.5957236,291.589345 59.9075861,305.741798 63.0075646,319.294359 C66.1075432,332.84692 76.4819865,343.553996 89.93,347.08 L85.54,364.02 Z" id="Path" fill="#724EA0"></path>
            <path d="M81.55,535.55 C74.0461257,538.04757 66.0860497,538.870202 58.23,537.96 C38.48,535.56 20.52,521.44 13.53,502.82 C6.54,484.2 10.77,461.74 24.05,446.94 L37.05,458.61 C27.6328687,468.955463 24.7885888,483.696998 29.6808483,496.803361 C34.5731078,509.909725 46.381093,519.181956 60.2737707,520.826482 C74.1664485,522.471009 87.8129327,516.211915 95.63,504.61 L110.04,514.5 C103.091193,524.434059 93.0869574,531.825746 81.55,535.55 Z" id="Path" fill="#724EA0"></path>
            <path d="M291.37,328.16 C274.27,333.76 254.31,330.48 240.13,319.35 C224.49,307.07 216.44,285.69 220.13,266.14 C223.82,246.59 239.03,229.58 258.04,223.78 L263.13,240.5 C249.808532,244.538648 239.840748,255.653888 237.27173,269.334982 C234.702711,283.016075 239.959261,296.990121 250.908189,305.586234 C261.857118,314.182346 276.67943,315.972414 289.36,310.23 L296.58,326.15 C294.879635,326.910544 293.140584,327.581464 291.37,328.16 Z" id="Path" fill="#724EA0"></path>
            <path d="M326.66,364.06 C314.170298,368.219403 300.612784,367.833361 288.38,362.97 L295.03,346.81 C307.900352,352.126382 322.659873,349.837255 333.315239,340.872153 C343.970605,331.907052 348.750277,317.756494 345.713399,304.166525 C342.676521,290.576557 332.327997,279.806616 318.87,276.23 L323.36,259.34 C342.57,264.44 358.36,280.91 362.73,300.34 C367.1,319.77 359.73,341.34 344.55,354.21 C339.267468,358.601355 333.195568,361.944464 326.66,364.06 L326.66,364.06 Z" id="Path" fill="#724EA0"></path>
            <path d="M196.64,431.07 L186.93,416.54 C198.534275,408.81869 204.872025,395.276978 203.366683,381.420147 C201.861342,367.563316 192.76354,355.698449 179.771922,350.649123 C166.780305,345.599797 152.057902,348.206694 141.59,357.41 L130.07,344.27 C145.07,331.17 167.54,327.2 186.07,334.41 C204.6,341.62 218.52,359.76 220.68,379.54 C222.84,399.32 213.18,420.02 196.64,431.07 Z" id="Path" fill="#724EA0"></path>
            <path d="M66.94,474.75 L57.23,460.22 C68.7732339,452.473997 75.0561721,438.955491 73.5350797,425.137637 C72.0139874,411.319783 62.9408546,399.491699 49.989065,394.442149 C37.0372753,389.392599 22.3524715,391.95811 11.88,401.1 L0.36,387.96 C15.36,374.85 37.83,370.89 56.36,378.1 C74.89,385.31 88.81,403.45 90.97,423.22 C93.13,442.99 83.47,463.7 66.94,474.75 Z" id="Path" fill="#724EA0"></path>
            <path d="M185.76,505.84 C175.440405,509.287148 164.332735,509.610672 153.83,506.77 C134.67,501.4 119.06,484.77 114.97,465.25 C110.88,445.73 118.48,424.25 133.85,411.61 L144.94,425.13 C134.151379,433.951292 129.172858,448.04636 132.027804,461.686698 C134.88275,475.327036 145.096005,486.24244 158.516706,489.99668 C171.937407,493.750919 186.331905,489.719165 195.85,479.54 L208.6,491.49 C202.303368,498.104262 194.451484,503.037473 185.76,505.84 Z" id="Path" fill="#724EA0"></path>
            <path d="M241.77,578.83 L224.46,576.46 C226.36294,562.654937 220.420081,548.938965 209.046621,540.886304 C197.673162,532.833643 182.761935,531.784461 170.372917,538.165149 C157.9839,544.545837 150.178939,557.294486 150.13,571.23 L132.65,571.15 C132.75,551.26 144.65,531.78 162.39,522.68 C180.13,513.58 202.86,515.18 219.11,526.68 C235.36,538.18 244.46,559.11 241.77,578.83 Z" id="Path" fill="#724EA0"></path>
            <path d="M154.22,308.49 C152.98,308.9 151.74,309.25 150.47,309.56 L146.32,292.56 C159.861971,289.268953 170.444274,278.710551 173.765933,265.176056 C177.087592,251.641561 172.595755,237.383638 162.116042,228.197148 C151.636329,219.010657 136.912973,216.424589 123.93,221.49 L117.6,205.19 C136.24,197.98 158.66,201.97 173.6,215.09 C188.54,228.21 195.41,250.01 190.68,269.33 C186.26,287.4 171.85,302.71 154.22,308.49 Z" id="Path" fill="#724EA0"></path>
            <path d="M260,499.78 C242.87,489.66 232.07,469.52 233.14,449.66 C234.21,429.8 247.08,410.92 265.14,402.66 C283.78648,394.475598 305.404971,397.048225 321.61,409.38 L310.84,423.15 C299.874839,414.617897 285.078522,412.881281 272.435772,418.642566 C259.793022,424.403852 251.395846,436.709714 250.64068,450.582755 C249.885515,464.455796 256.897318,477.60043 268.84,484.7 L260,499.78 Z" id="Path" fill="#724EA0"></path>
            <path d="M149.07,635.4 C143.815966,637.13431 138.322766,638.035222 132.79,638.070405 C112.9,638.15 93.32,626.37 84.07,608.76 C74.82,591.15 76.21,568.35 87.56,552.01 L101.91,562.01 C93.9963496,573.445325 93.0952249,588.331622 99.5716967,600.638037 C106.048169,612.944451 118.828475,620.630649 132.734956,620.582737 C146.641438,620.534826 159.368479,612.760748 165.76,600.41 L181.29,608.41 C174.45003,621.239337 162.899685,630.914812 149.07,635.4 Z" id="Path" fill="#724EA0"></path>
            <path d="M888.06,614.77 C826.13,570.69 801.06,491.95 782.66,418.19 C764.26,344.43 746.37,265.5 692,212.4 C617,139.16 492.69,139.7 398,184.74 C295.81,233.37 215.52,331.74 201,443.98 C186.48,556.22 245,677.59 347.5,725.61 C439.89,768.9 547.6,750.61 649.5,754.54 C733.29,757.8 831.64,808.4 913.59,785.54 C946.3,776.43 970.9,755.38 972.76,719.88 C975.83,663.03 927.11,642.57 888.06,614.77 Z" id="Path" fill="#724EA0"></path>
            <path d="M912.93,589.75 C851.01,545.67 825.93,466.92 807.54,393.17 C789.15,319.42 771.24,240.48 716.86,187.37 C641.86,114.13 517.55,114.67 422.86,159.71 C320.67,208.34 240.38,306.71 225.86,418.95 C211.34,531.19 269.86,652.56 372.35,700.58 C464.74,743.86 572.45,725.58 674.35,729.51 C758.14,732.77 856.48,783.37 938.43,760.51 C971.14,751.4 995.75,730.35 997.6,694.85 C1000.7,638.01 952,617.55 912.93,589.75 Z" id="Path" stroke="#12243F" stroke-width="2.88965753" stroke-linecap="round" stroke-linejoin="round"></path>
        </g>
    </g>
</svg>