<?xml version="1.0" encoding="UTF-8"?>
<svg width="86px" height="120px" viewBox="0 0 86 120" version="1.1" xmlns="http://www.w3.org/2000/svg" xmlns:xlink="http://www.w3.org/1999/xlink">
    <title>Path</title>
    <g id="Page-1" stroke="none" stroke-width="1" fill="none" fill-rule="evenodd">
        <path d="M41.9180214,119.614345 C32.4446881,119.421012 24.2080214,117.621012 17.2080214,114.214345 C10.6318101,111.215396 5.23657643,106.119116 1.86802143,99.7243454 C0.843816408,97.8826168 0.258621525,95.8293014 0.158021431,93.7243454 C0.0806196285,90.2841321 1.80594812,87.0534071 4.70802143,85.2043454 C7.43508679,83.2233732 10.7077536,82.1336485 14.0780214,82.0843454 C16.0296654,82.0583386 17.9649363,82.4433485 19.7580214,83.2143454 C21.4809728,83.9932368 22.8155436,85.436016 23.4580214,87.2143454 C26.8713548,94.6076787 33.3113548,98.3010121 42.7780214,98.2943454 C47.3533766,98.4284183 51.7950057,96.7416782 55.1280214,93.6043454 C58.4140093,90.5772252 60.2360591,86.2808318 60.1280214,81.8143454 C60.1280214,70.8343454 52.4613548,65.6276787 37.1280214,66.1943454 C34.1239825,66.5204869 31.125054,65.5366343 28.8980214,63.4943454 C26.7883055,61.4567382 25.6494231,58.6149901 25.7680214,55.6843454 C25.6303032,52.8171453 26.7215355,50.0272283 28.7680214,48.0143454 C30.8012185,46.1051748 33.5104516,45.0833658 36.2980214,45.1743454 C43.1180214,45.1743454 47.9013548,44.2276787 50.6480214,42.3343454 C53.3946881,40.4410121 54.7680214,37.1243454 54.7680214,32.3843454 C54.7680214,28.6043454 53.5346881,25.8110121 51.0680214,24.0043454 C48.5992957,22.1976438 45.6067381,21.249298 42.5480214,21.3043454 C39.5000328,21.3152216 36.4919427,21.9981025 33.7380214,23.3043454 C30.9976279,24.5493745 28.6446683,26.5119018 26.9280214,28.9843454 C25.8321225,30.6928656 24.2464062,32.0311405 22.3780214,32.8243454 C20.6559773,33.4909643 18.8245813,33.8301117 16.9780214,33.8243454 C13.8329523,33.8457382 10.7758782,32.7867056 8.31802143,30.8243454 C5.84007437,29.0037618 4.40664427,26.088374 4.47802143,23.0143454 C4.48594909,21.6359913 4.77874301,20.2741591 5.33802143,19.0143454 C8.47951436,12.8379576 13.6431157,7.92494801 19.9680214,5.09434539 C26.9402916,1.81820642 34.5650277,0.166750129 42.2680214,0.264345393 C53.4413548,0.264345393 62.4413548,3.15434539 69.2680214,8.93434539 C76.0946881,14.7143454 79.5013548,22.3343454 79.4880214,31.7943454 C79.4880214,40.7010121 75.9846881,48.1843454 68.9780214,54.2443454 C73.9540307,56.7548321 78.097316,60.6515347 80.9080214,65.4643454 C83.8569272,70.1940484 85.4322943,75.6507044 85.4580214,81.2243454 C85.4580214,92.7843454 81.4313548,102.117679 73.3780214,109.224345 C65.3246881,116.331012 54.8380214,119.794345 41.9180214,119.614345 Z" id="Path" fill="#FFFFFF"></path>
    </g>
</svg>