<?xml version="1.0" encoding="UTF-8"?>
<svg width="85px" height="118px" viewBox="0 0 85 118" version="1.1" xmlns="http://www.w3.org/2000/svg" xmlns:xlink="http://www.w3.org/1999/xlink">
    <title>Path</title>
    <g id="Page-1" stroke="none" stroke-width="1" fill="none" fill-rule="evenodd">
        <path d="M17.2980214,117.554345 C13.8482284,117.616487 10.5196671,116.282177 8.06802143,113.854345 C5.55346237,111.508387 4.15695129,108.202583 4.22802143,104.764345 C4.22802143,100.417679 6.12135476,96.4410121 9.90802143,92.8343454 L32.3580214,72.0943454 C40.6913548,64.3343454 46.4646881,57.9443454 49.6780214,52.9243454 C52.7316917,48.4350813 54.4101855,43.1528647 54.5080214,37.7243454 C54.5080214,33.3643454 53.2313548,29.8610121 50.6780214,27.2143454 C48.1246881,24.5676787 44.6680214,23.2343454 40.3080214,23.2143454 C36.5481071,23.0684521 32.8790598,24.3918914 30.0780214,26.9043454 C27.3047229,29.5907195 25.4232534,33.0639332 24.6880214,36.8543454 C24.1871598,39.6020211 22.7271247,42.0826633 20.5680214,43.8543454 C18.2770272,45.69265 15.4037996,46.6503925 12.4680214,46.5543454 C9.27916849,46.6419426 6.19586308,45.4078966 3.94802143,43.1443454 C1.7215501,41.0062001 0.572587346,37.9814547 0.818021431,34.9043454 C0.97490382,25.3216724 5.40538122,16.3103454 12.8980214,10.3343454 C20.5646881,3.98767873 30.1746881,0.814345393 41.7280214,0.814345393 C53.4680214,0.814345393 62.8013548,4.17434539 69.7280214,10.8943454 C76.6546881,17.6143454 80.1113548,26.2810121 80.0980214,36.8943454 C80.089035,43.5169373 78.3665409,50.0245203 75.0980214,55.7843454 C71.7646881,61.7843454 66.7946881,68.0810121 60.1880214,74.6743454 L44.2780214,90.5843454 C41.2380214,93.6110121 41.9046881,95.1276787 46.2780214,95.1343454 L72.1280214,94.5643454 C75.9080214,94.3743454 78.9480214,95.3643454 81.2180214,97.5643454 C83.528484,99.8387086 84.7674939,102.985285 84.6280214,106.224345 C84.8107074,109.292223 83.6715883,112.291592 81.4984283,114.464752 C79.3252684,116.637912 76.3258992,117.777031 73.2580214,117.594345 L17.2980214,117.554345 Z" id="Path" fill="#FFFFFF"></path>
    </g>
</svg>