<?xml version="1.0" encoding="UTF-8"?>
<svg width="249px" height="71px" viewBox="0 0 249 71" version="1.1" xmlns="http://www.w3.org/2000/svg" xmlns:xlink="http://www.w3.org/1999/xlink">
    <title>Group</title>
    <defs>
        <rect id="path-1" x="0" y="0" width="248.7" height="44.49"></rect>
    </defs>
    <g id="Page-1" stroke="none" stroke-width="1" fill="none" fill-rule="evenodd">
        <g id="4-・-Large" transform="translate(-1155, -242)">
            <g id="Group" transform="translate(1155, 242)">
                <g id="FGV" transform="translate(124.35, 22.245)">
                    <polygon id="Caminho_1" fill="#003A79" points="-4.55 -21.345 -4.55 21.355 7.25 21.355 7.25 6.155 27.55 6.155 27.55 -3.745 7.25 -3.745 7.25 -11.045 29.65 -11.045 29.65 -21.345"></polygon>
                    <g id="Grupo_1-Clipped" transform="translate(-124.35, -22.245)">
                        <mask id="mask-2" fill="white">
                            <use xlink:href="#path-1"></use>
                        </mask>
                        <g id="Retângulo_1"></g>
                        <g id="Grupo_1" mask="url(#mask-2)">
                            <path d="M181.2,44.5 C178.027997,44.5429528 174.875272,44.0005484 171.9,42.9 C169.152512,41.8729356 166.636962,40.3092157 164.5,38.3 C162.404211,36.327124 160.736358,33.9444778 159.6,31.3 C158.37679,28.4590205 157.763567,25.392908 157.8,22.3 L157.8,22.3 C157.761004,16.3749317 160.102883,10.6823634 164.3,6.5 C166.391877,4.45757118 168.8749,2.8589121 171.6,1.8 C174.551907,0.595740318 177.711937,-0.0158783349 180.9,2.69662764e-15 C184.24506,-0.0618220581 187.571197,0.51516093 190.7,1.7 C193.435514,2.81132844 195.969399,4.36544465 198.2,6.3 L191.2,14.7 C189.788518,13.4754751 188.204982,12.4647073 186.5,11.7 C184.720659,10.9896685 182.81522,10.6494115 180.9,10.7 C179.418309,10.6841036 177.950946,10.9912262 176.6,11.6 C175.278864,12.1925922 174.089037,13.042469 173.1,14.1 C171.05394,16.3820748 169.915448,19.3350389 169.9,22.4 L169.9,22.4 C169.894076,24.0424887 170.199463,25.6712228 170.8,27.2 C171.321952,28.6222934 172.139996,29.9175291 173.2,31 C174.265356,32.0332121 175.522204,32.8484649 176.9,33.4 C178.390354,34.0125055 179.988798,34.3185906 181.6,34.3 C184.027282,34.3945019 186.428199,33.7681755 188.5,32.5 L188.5,27.3 L180.1,27.3 L180.1,18.6 L199.8,18.6 L199.8,37.9 C197.352706,39.8665282 194.621752,41.4511559 191.7,42.6 C188.356216,43.9078492 184.790061,44.5531534 181.2,44.5" id="Caminho_2" fill="#003A79"></path>
                            <polygon id="Caminho_3" fill="#003A79" points="203 0.9 216.2 0.9 225.9 27.9 235.6 0.9 248.7 0.9 231.3 43.6 220.3 43.6"></polygon>
                            <polygon id="Caminho_4" fill="#008ED1" points="61.1 14.8 75.8 1 109 1 80.9 27.1"></polygon>
                            <polygon id="Caminho_5" fill="#003A79" points="0 1 34.2 1 71.3 43.7 37.2 43.7"></polygon>
                        </g>
                    </g>
                </g>
                <g id="Fundação-Getulio-Var" transform="translate(37, 52)" fill="#003A79" fill-rule="nonzero">
                    <polygon id="Path" points="10.3169213 5.40984857 4.47428162 5.40984857 4.47428162 8.09003104 9.58955613 8.09003104 9.58955613 10.1140036 4.47428162 10.1140036 4.47428162 15 2.05500187 15 2.05500187 3.36215753 10.3169213 3.36215753"></polygon>
                    <path d="M17.2901394,13.782454 C17.2690563,13.8088078 17.2163487,13.8878692 17.1320165,14.0196383 C17.0476843,14.1514073 16.9475399,14.2673641 16.8315831,14.3675086 C16.478442,14.6837543 16.1371602,14.8998555 15.8077376,15.0158123 C15.478315,15.131769 15.0922316,15.1897474 14.6494876,15.1897474 C13.3739632,15.1897474 12.514829,14.7311911 12.072085,13.8140786 C11.8243592,13.3080854 11.7004963,12.5622726 11.7004963,11.5766401 L11.7004963,6.38230415 L14.0090901,6.38230415 L14.0090901,11.5766401 C14.0090901,12.066821 14.0670684,12.4357743 14.1830252,12.6835001 C14.3885849,13.1209734 14.7917982,13.33971 15.3926651,13.33971 C16.1621963,13.33971 16.6892725,13.028735 16.9738937,12.4067851 C17.121475,12.0694563 17.1952657,11.6240769 17.1952657,11.0706469 L17.1952657,6.38230415 L19.480141,6.38230415 L19.480141,15 L17.2901394,15 L17.2901394,13.782454 Z" id="Path"></path>
                    <path d="M25.7101817,8.05050032 C24.9459212,8.05050032 24.4214804,8.37465218 24.1368592,9.02295591 C23.9892779,9.36555544 23.9154872,9.80302868 23.9154872,10.3353756 L23.9154872,15 L21.6701426,15 L21.6701426,6.39811644 L23.8443319,6.39811644 L23.8443319,7.65519317 C24.1342238,7.21244917 24.4083035,6.89356807 24.6665708,6.69854987 C25.1303978,6.35067958 25.7180878,6.17674443 26.4296407,6.17674443 C27.3203995,6.17674443 28.0490823,6.40997565 28.6156892,6.87643809 C29.1822961,7.34290052 29.4655996,8.11638485 29.4655996,9.19689105 L29.4655996,15 L27.1570058,15 L27.1570058,9.7582272 C27.1570058,9.30494167 27.0963921,8.95707138 26.9751645,8.71461633 C26.7537925,8.27187232 26.3321316,8.05050032 25.7101817,8.05050032 Z" id="Path"></path>
                    <path d="M39.387809,3.36215753 L39.387809,15 L37.1978074,15 L37.1978074,13.8061724 C36.8762909,14.3174363 36.509973,14.689025 36.0988535,14.9209386 C35.6877341,15.1528521 35.1764702,15.2688089 34.5650618,15.2688089 C33.5583463,15.2688089 32.7110713,14.8616425 32.0232368,14.0473098 C31.3354024,13.232977 30.9914852,12.1880485 30.9914852,10.9125241 C30.9914852,9.44198149 31.3301316,8.28504923 32.0074246,7.44172731 C32.6847175,6.59840539 33.5899708,6.17674443 34.7231847,6.17674443 C35.2449901,6.17674443 35.7088172,6.29138351 36.1146658,6.52066165 C36.5205145,6.7499398 36.8499371,7.06750321 37.1029337,7.47335188 L37.1029337,3.36215753 L39.387809,3.36215753 Z M33.3158912,10.7464951 C33.3158912,11.5423801 33.4740141,12.177507 33.7902598,12.6518755 C34.1012347,13.1315149 34.5756033,13.3713345 35.2133655,13.3713345 C35.8511277,13.3713345 36.3360378,13.1341503 36.6680958,12.6597817 C37.0001538,12.1854131 37.1661828,11.5713693 37.1661828,10.8176504 C37.1661828,9.76349797 36.9000094,9.009779 36.3676624,8.55649347 C36.0408752,8.28241385 35.6613803,8.14537404 35.2291778,8.14537404 C34.5703326,8.14537404 34.0867402,8.39441754 33.7784006,8.89250455 C33.470061,9.39059156 33.3158912,10.0085884 33.3158912,10.7464951 Z" id="Shape"></path>
                    <path d="M41.7596519,7.31522902 C42.355248,6.5562393 43.3777758,6.17674443 44.8272354,6.17674443 C45.7707018,6.17674443 46.6087529,6.36385649 47.3413889,6.73808059 C48.0740248,7.11230469 48.4403427,7.81858679 48.4403427,8.8569269 L48.4403427,12.8099984 C48.4403427,13.084078 48.4456135,13.416136 48.456155,13.8061724 C48.4719673,14.1013351 48.5167688,14.301624 48.5905594,14.4070393 C48.6643501,14.5124545 48.7750361,14.5994221 48.9226175,14.667942 L48.9226175,15 L46.4717131,15 C46.4031932,14.8260649 46.3557564,14.6626712 46.3294026,14.5098191 C46.3030487,14.356967 46.2819657,14.1830319 46.2661534,13.9880137 C45.9551785,14.3253425 45.5967666,14.612599 45.190918,14.8497833 C44.7060079,15.1291337 44.1578486,15.2688089 43.5464402,15.2688089 C42.7663675,15.2688089 42.1220168,15.0461192 41.6133883,14.6007398 C41.1047597,14.1553604 40.8504455,13.5241866 40.8504455,12.7072185 C40.8504455,11.6477954 41.2589295,10.8808995 42.0758976,10.4065309 C42.5239124,10.1482636 43.1827577,9.96378692 44.0524334,9.85310092 L44.8193292,9.7582272 C45.2357194,9.70551958 45.5335175,9.63963506 45.7127234,9.56057363 C46.0342399,9.42353382 46.1949981,9.21006796 46.1949981,8.92017605 C46.1949981,8.567035 46.0724529,8.32326225 45.8273625,8.18885782 C45.582272,8.05445339 45.2225425,7.98725118 44.748174,7.98725118 C44.215827,7.98725118 43.8389675,8.11902023 43.6175955,8.38255833 C43.4594727,8.57757652 43.3540574,8.84111462 43.3013498,9.17317262 L41.1271605,9.17317262 C41.1745973,8.41945366 41.3854278,7.80013913 41.7596519,7.31522902 Z M43.4357542,13.3713345 C43.6465847,13.5452697 43.904852,13.6322373 44.2105562,13.6322373 C44.6954663,13.6322373 45.1421634,13.4899267 45.5506475,13.2053055 C45.9591315,12.9206844 46.1712797,12.4015143 46.187092,11.6477954 L46.187092,10.8097442 C46.0447814,10.8993472 45.9011531,10.9718202 45.7562072,11.0271632 C45.6112612,11.0825062 45.41229,11.1338961 45.1592934,11.1813329 L44.6533002,11.2762067 C44.1789317,11.3605388 43.8389675,11.4633187 43.6334078,11.5845462 C43.2855375,11.790106 43.1116024,12.1089871 43.1116024,12.5411895 C43.1116024,12.9259552 43.219653,13.2026702 43.4357542,13.3713345 Z" id="Shape"></path>
                    <path d="M53.4528374,17.8936483 C53.7690831,17.8936483 53.9957259,17.8264461 54.1327657,17.6920417 C54.2698055,17.5576373 54.3383254,17.4166444 54.3383254,17.269063 C54.3383254,17.047691 54.2618993,16.8922036 54.1090472,16.8026006 C53.9561952,16.7129976 53.7928015,16.6681962 53.6188664,16.6681962 C53.5187219,16.6681962 53.415942,16.6800554 53.3105268,16.7037738 C53.2051116,16.7274922 53.0865194,16.7604345 52.9547504,16.8026006 L52.6147862,16.4863549 L53.3974944,15.3004334 C52.4065911,15.3004334 51.5843523,14.889314 50.9307778,14.0670751 C50.2772033,13.2448363 49.950416,12.177507 49.950416,10.8650872 C49.950416,9.3840031 50.3114632,8.23234161 51.0335576,7.41010274 C51.755652,6.58786387 52.751826,6.17674443 54.0220797,6.17674443 C55.1025859,6.17674443 55.9867562,6.41919949 56.6745906,6.90410959 C57.3624251,7.38901969 57.7695914,8.24551851 57.8960897,9.47360606 L55.587496,9.47360606 C55.5453299,9.15208958 55.4372793,8.86219767 55.2633441,8.60393033 C55.0103475,8.25606004 54.6176758,8.08212489 54.0853288,8.08212489 C53.3263391,8.08212489 52.807169,8.45898438 52.5278187,9.21270334 C52.3802373,9.61328125 52.3064467,10.1456282 52.3064467,10.8097442 C52.3064467,11.4422357 52.3802373,11.9508642 52.5278187,12.3356298 C52.7966275,13.0524534 53.3026207,13.4108653 54.0457981,13.4108653 C54.5728743,13.4108653 54.9470984,13.2685547 55.1684704,12.9839335 C55.3898424,12.6993124 55.5242468,12.3303591 55.5716837,11.8770735 L57.8723713,11.8770735 C57.8196637,12.5622726 57.5719379,13.2105763 57.1291939,13.8219847 C56.4229118,14.8076172 55.4583623,15.3004334 54.2355455,15.3004334 L53.7374585,16.0357047 C53.9113937,15.9988094 54.0352566,15.9737733 54.1090472,15.9605964 C54.1828379,15.9474195 54.2618993,15.940831 54.3462315,15.940831 C54.7731633,15.940831 55.1131274,16.0449286 55.366124,16.2531237 C55.6191206,16.4613188 55.7456188,16.7604345 55.7456188,17.1504709 C55.7456188,17.635381 55.5479653,18.0188289 55.1526581,18.3008147 C54.757351,18.5828005 54.2487224,18.7237933 53.6267725,18.7237933 C53.3579637,18.7237933 53.0338118,18.6684503 52.6543169,18.5577643 C52.4803818,18.5050567 52.2352914,18.4207245 51.9190456,18.3047678 L52.2194791,17.6248395 C52.5199125,17.7144424 52.7254722,17.7724208 52.8361582,17.7987746 C53.0891548,17.8620238 53.2947145,17.8936483 53.4528374,17.8936483 Z" id="Path"></path>
                    <path d="M59.7698456,7.31522902 C60.3654417,6.5562393 61.3879696,6.17674443 62.8374291,6.17674443 C63.7808955,6.17674443 64.6189467,6.36385649 65.3515826,6.73808059 C66.0842185,7.11230469 66.4505364,7.81858679 66.4505364,8.8569269 L66.4505364,12.8099984 C66.4505364,13.084078 66.4558072,13.416136 66.4663487,13.8061724 C66.482161,14.1013351 66.5269625,14.301624 66.6007532,14.4070393 C66.6745438,14.5124545 66.7852298,14.5994221 66.9328112,14.667942 L66.9328112,15 L64.4819068,15 C64.4133869,14.8260649 64.3659501,14.6626712 64.3395963,14.5098191 C64.3132425,14.356967 64.2921594,14.1830319 64.2763471,13.9880137 C63.9653722,14.3253425 63.6069603,14.612599 63.2011117,14.8497833 C62.7162016,15.1291337 62.1680423,15.2688089 61.5566339,15.2688089 C60.7765612,15.2688089 60.1322105,15.0461192 59.623582,14.6007398 C59.1149534,14.1553604 58.8606392,13.5241866 58.8606392,12.7072185 C58.8606392,11.6477954 59.2691232,10.8808995 60.0860913,10.4065309 C60.5341061,10.1482636 61.1929514,9.96378692 62.0626271,9.85310092 L62.829523,9.7582272 C63.2459132,9.70551958 63.5437112,9.63963506 63.7229171,9.56057363 C64.0444336,9.42353382 64.2051918,9.21006796 64.2051918,8.92017605 C64.2051918,8.567035 64.0826466,8.32326225 63.8375562,8.18885782 C63.5924658,8.05445339 63.2327362,7.98725118 62.7583677,7.98725118 C62.2260207,7.98725118 61.8491612,8.11902023 61.6277892,8.38255833 C61.4696664,8.57757652 61.3642511,8.84111462 61.3115435,9.17317262 L59.1373542,9.17317262 C59.184791,8.41945366 59.3956215,7.80013913 59.7698456,7.31522902 Z M61.4459479,13.3713345 C61.6567784,13.5452697 61.9150458,13.6322373 62.2207499,13.6322373 C62.70566,13.6322373 63.1523571,13.4899267 63.5608412,13.2053055 C63.9693252,12.9206844 64.1814734,12.4015143 64.1972857,11.6477954 L64.1972857,10.8097442 C64.0549751,10.8993472 63.9113469,10.9718202 63.7664009,11.0271632 C63.6214549,11.0825062 63.4224837,11.1338961 63.1694871,11.1813329 L62.663494,11.2762067 C62.1891254,11.3605388 61.8491612,11.4633187 61.6436015,11.5845462 C61.2957312,11.790106 61.1217961,12.1089871 61.1217961,12.5411895 C61.1217961,12.9259552 61.2298467,13.2026702 61.4459479,13.3713345 Z M64.1103181,4.99872913 C63.9469245,4.99872913 63.715011,4.95919842 63.4145775,4.88013699 C63.2406424,4.83797089 63.0746134,4.79053403 62.9164905,4.73782641 L62.2760929,4.52436055 C62.18649,4.49273598 62.0995224,4.47033524 62.0151902,4.45715834 C61.930858,4.44398143 61.8465258,4.43739298 61.7621937,4.43739298 C61.5619047,4.43739298 61.3985111,4.49537136 61.2720128,4.61132812 C61.1455145,4.73255565 61.0559115,4.89858465 61.0032039,5.10941513 L59.9754053,5.10941513 C60.0913621,4.56652665 60.2415788,4.15540721 60.4260555,3.87605683 C60.7633843,3.37533444 61.2641066,3.12497324 61.9282227,3.12497324 C62.0705332,3.12497324 62.2102084,3.14078553 62.3472482,3.1724101 C62.484288,3.20403467 62.6002448,3.23829463 62.6951185,3.27518996 L63.438296,3.55190497 C63.659668,3.62569563 63.8046139,3.67313249 63.8731338,3.69421554 C63.9416537,3.71529859 64.0180798,3.72584011 64.102412,3.72584011 C64.3554086,3.72584011 64.5332968,3.6586379 64.6360766,3.52423347 C64.7388565,3.38982903 64.8139648,3.23038848 64.8614017,3.04591182 L65.9129187,3.04591182 C65.818045,3.59934182 65.6296153,4.06316888 65.3476295,4.43739298 C65.0656437,4.81161708 64.6532066,4.99872913 64.1103181,4.99872913 Z" id="Shape"></path>
                    <path d="M75.6374746,7.47335188 C76.3648397,8.38519371 76.7285223,9.46306453 76.7285223,10.7069644 C76.7285223,11.9719472 76.3648397,13.0537711 75.6374746,13.9524361 C74.9101094,14.851101 73.8058848,15.3004334 72.3248007,15.3004334 C70.8437166,15.3004334 69.7394919,14.851101 69.0121268,13.9524361 C68.2847616,13.0537711 67.921079,11.9719472 67.921079,10.7069644 C67.921079,9.46306453 68.2847616,8.38519371 69.0121268,7.47335188 C69.7394919,6.56151006 70.8437166,6.10558915 72.3248007,6.10558915 C73.8058848,6.10558915 74.9101094,6.56151006 75.6374746,7.47335188 Z M72.3168945,8.01096961 C71.6580493,8.01096961 71.1507384,8.24420082 70.794962,8.71066326 C70.4391856,9.1771257 70.2612974,9.8425594 70.2612974,10.7069644 C70.2612974,11.5713693 70.4391856,12.2381207 70.794962,12.7072185 C71.1507384,13.1763164 71.6580493,13.4108653 72.3168945,13.4108653 C72.9757398,13.4108653 73.4817329,13.1763164 73.834874,12.7072185 C74.188015,12.2381207 74.3645856,11.5713693 74.3645856,10.7069644 C74.3645856,9.8425594 74.188015,9.1771257 73.834874,8.71066326 C73.4817329,8.24420082 72.9757398,8.01096961 72.3168945,8.01096961 Z" id="Shape"></path>
                    <path d="M90.1689654,14.7153789 C89.5259324,15.110686 88.7353181,15.3083396 87.7971225,15.3083396 C86.2527892,15.3083396 84.9878063,14.7733572 84.0021739,13.7033926 C82.9743753,12.6281571 82.460476,11.1576145 82.460476,9.29176477 C82.460476,7.40483198 82.979646,5.89212329 84.0179861,4.7536387 C85.0563263,3.61515411 86.4293597,3.04591182 88.1370866,3.04591182 C89.6181708,3.04591182 90.8080453,3.42145361 91.7067102,4.17253719 C92.6053751,4.92362077 93.1205921,5.86049872 93.2523611,6.98317102 L90.8567998,6.98317102 C90.6723231,6.18728596 90.221673,5.63122057 89.5048494,5.31497485 C89.1042715,5.1410397 88.6588921,5.05407213 88.1687112,5.05407213 C87.2305156,5.05407213 86.4596666,5.40853088 85.8561644,6.11744836 C85.2526621,6.82636585 84.950911,7.89237746 84.950911,9.3154832 C84.950911,10.7491305 85.2776983,11.7637521 85.9312727,12.3593482 C86.5848472,12.9549443 87.3280247,13.2527424 88.1608051,13.2527424 C88.9777732,13.2527424 89.6471599,13.0168758 90.1689654,12.5451426 C90.6907708,12.0734094 91.0122873,11.4554126 91.1335148,10.6911521 L88.4375201,10.6911521 L88.4375201,8.7462409 L93.2918919,8.7462409 L93.2918919,15 L91.6790387,15 L91.4339483,13.5452697 C90.9648504,14.0986997 90.5431895,14.4887361 90.1689654,14.7153789 Z" id="Path"></path>
                    <path d="M102.810888,12.4700342 C102.75291,12.9812982 102.486736,13.5004682 102.012368,14.0275444 C101.274461,14.8655956 100.241392,15.2846211 98.9131595,15.2846211 C97.816841,15.2846211 96.8496562,14.9314801 96.011605,14.225198 C95.1735539,13.5189159 94.7545283,12.3698898 94.7545283,10.7781196 C94.7545283,9.28649401 95.1327055,8.14273866 95.8890598,7.3468536 C96.6454142,6.55096854 97.6270936,6.15302601 98.8340981,6.15302601 C99.5509217,6.15302601 100.19659,6.28743044 100.771103,6.5562393 C101.345616,6.82504816 101.819985,7.2493445 102.194209,7.82912832 C102.531538,8.34039223 102.750274,8.93335295 102.850419,9.60801049 C102.908397,10.0033176 102.932116,10.5725599 102.921574,11.3157374 L97.0235913,11.3157374 C97.0552159,12.1801423 97.3266602,12.78628 97.8379241,13.1341503 C98.148899,13.3502515 98.5231231,13.4583021 98.9605964,13.4583021 C99.4244234,13.4583021 99.8012829,13.3265331 100.091175,13.062995 C100.249298,12.9206844 100.388973,12.7230308 100.5102,12.4700342 L102.810888,12.4700342 Z M100.581356,9.82938249 C100.54446,9.23378639 100.363937,8.78181855 100.039785,8.47347897 C99.715633,8.16513939 99.3137374,8.01096961 98.8340981,8.01096961 C98.3122926,8.01096961 97.9077617,8.17436323 97.6205051,8.50115047 C97.3332486,8.82793771 97.152725,9.27068172 97.0789343,9.82938249 L100.581356,9.82938249 Z" id="Shape"></path>
                    <path d="M108.384719,13.395053 L108.384719,15.0790614 L107.31739,15.1185921 C106.252696,15.1554875 105.52533,14.9710108 105.135294,14.5651621 C104.882297,14.3068948 104.755799,13.9089523 104.755799,13.3713345 L104.755799,8.06631261 L103.554065,8.06631261 L103.554065,6.46136558 L104.755799,6.46136558 L104.755799,4.05789812 L106.985331,4.05789812 L106.985331,6.46136558 L108.384719,6.46136558 L108.384719,8.06631261 L106.985331,8.06631261 L106.985331,12.620251 C106.985331,12.973392 107.030133,13.1934463 107.119736,13.2804139 C107.209339,13.3673815 107.483419,13.4108653 107.941975,13.4108653 C108.010495,13.4108653 108.082968,13.4095476 108.159394,13.4069122 C108.23582,13.4042768 108.310928,13.4003237 108.384719,13.395053 Z" id="Path"></path>
                    <path d="M115.357937,13.782454 C115.336854,13.8088078 115.284146,13.8878692 115.199814,14.0196383 C115.115482,14.1514073 115.015337,14.2673641 114.899381,14.3675086 C114.54624,14.6837543 114.204958,14.8998555 113.875535,15.0158123 C113.546112,15.131769 113.160029,15.1897474 112.717285,15.1897474 C111.441761,15.1897474 110.582627,14.7311911 110.139883,13.8140786 C109.892157,13.3080854 109.768294,12.5622726 109.768294,11.5766401 L109.768294,6.38230415 L112.076888,6.38230415 L112.076888,11.5766401 C112.076888,12.066821 112.134866,12.4357743 112.250823,12.6835001 C112.456382,13.1209734 112.859596,13.33971 113.460463,13.33971 C114.229994,13.33971 114.75707,13.028735 115.041691,12.4067851 C115.189273,12.0694563 115.263063,11.6240769 115.263063,11.0706469 L115.263063,6.38230415 L117.547939,6.38230415 L117.547939,15 L115.357937,15 L115.357937,13.782454 Z" id="Path"></path>
                    <polygon id="Path" points="119.769565 3.34634525 122.022815 3.34634525 122.022815 15 119.769565 15"></polygon>
                    <path d="M126.537223,6.38230415 L126.537223,15 L124.252348,15 L124.252348,6.38230415 L126.537223,6.38230415 Z M126.537223,3.27518996 L126.537223,5.35450557 L124.252348,5.35450557 L124.252348,3.27518996 L126.537223,3.27518996 Z" id="Shape"></path>
                    <path d="M135.906003,7.47335188 C136.633368,8.38519371 136.99705,9.46306453 136.99705,10.7069644 C136.99705,11.9719472 136.633368,13.0537711 135.906003,13.9524361 C135.178637,14.851101 134.074413,15.3004334 132.593329,15.3004334 C131.112244,15.3004334 130.00802,14.851101 129.280655,13.9524361 C128.55329,13.0537711 128.189607,11.9719472 128.189607,10.7069644 C128.189607,9.46306453 128.55329,8.38519371 129.280655,7.47335188 C130.00802,6.56151006 131.112244,6.10558915 132.593329,6.10558915 C134.074413,6.10558915 135.178637,6.56151006 135.906003,7.47335188 Z M132.585422,8.01096961 C131.926577,8.01096961 131.419266,8.24420082 131.06349,8.71066326 C130.707714,9.1771257 130.529825,9.8425594 130.529825,10.7069644 C130.529825,11.5713693 130.707714,12.2381207 131.06349,12.7072185 C131.419266,13.1763164 131.926577,13.4108653 132.585422,13.4108653 C133.244268,13.4108653 133.750261,13.1763164 134.103402,12.7072185 C134.456543,12.2381207 134.633113,11.5713693 134.633113,10.7069644 C134.633113,9.8425594 134.456543,9.1771257 134.103402,8.71066326 C133.750261,8.24420082 133.244268,8.01096961 132.585422,8.01096961 Z" id="Shape"></path>
                    <polygon id="Path" points="142.42857 3.34634525 145.029692 3.34634525 147.559657 12.1933192 150.113341 3.34634525 152.643307 3.34634525 148.666517 15 146.36583 15"></polygon>
                    <path d="M153.346954,7.31522902 C153.94255,6.5562393 154.965078,6.17674443 156.414537,6.17674443 C157.358004,6.17674443 158.196055,6.36385649 158.928691,6.73808059 C159.661327,7.11230469 160.027645,7.81858679 160.027645,8.8569269 L160.027645,12.8099984 C160.027645,13.084078 160.032916,13.416136 160.043457,13.8061724 C160.059269,14.1013351 160.104071,14.301624 160.177861,14.4070393 C160.251652,14.5124545 160.362338,14.5994221 160.509919,14.667942 L160.509919,15 L158.059015,15 C157.990495,14.8260649 157.943058,14.6626712 157.916705,14.5098191 C157.890351,14.356967 157.869268,14.1830319 157.853455,13.9880137 C157.54248,14.3253425 157.184069,14.612599 156.77822,14.8497833 C156.29331,15.1291337 155.745151,15.2688089 155.133742,15.2688089 C154.353669,15.2688089 153.709319,15.0461192 153.20069,14.6007398 C152.692062,14.1553604 152.437747,13.5241866 152.437747,12.7072185 C152.437747,11.6477954 152.846232,10.8808995 153.6632,10.4065309 C154.111214,10.1482636 154.77006,9.96378692 155.639735,9.85310092 L156.406631,9.7582272 C156.823021,9.70551958 157.12082,9.63963506 157.300025,9.56057363 C157.621542,9.42353382 157.7823,9.21006796 157.7823,8.92017605 C157.7823,8.567035 157.659755,8.32326225 157.414664,8.18885782 C157.169574,8.05445339 156.809845,7.98725118 156.335476,7.98725118 C155.803129,7.98725118 155.42627,8.11902023 155.204898,8.38255833 C155.046775,8.57757652 154.941359,8.84111462 154.888652,9.17317262 L152.714462,9.17317262 C152.761899,8.41945366 152.97273,7.80013913 153.346954,7.31522902 Z M155.023056,13.3713345 C155.233887,13.5452697 155.492154,13.6322373 155.797858,13.6322373 C156.282768,13.6322373 156.729465,13.4899267 157.137949,13.2053055 C157.546434,12.9206844 157.758582,12.4015143 157.774394,11.6477954 L157.774394,10.8097442 C157.632083,10.8993472 157.488455,10.9718202 157.343509,11.0271632 C157.198563,11.0825062 156.999592,11.1338961 156.746595,11.1813329 L156.240602,11.2762067 C155.766234,11.3605388 155.42627,11.4633187 155.22071,11.5845462 C154.87284,11.790106 154.698904,12.1089871 154.698904,12.5411895 C154.698904,12.9259552 154.806955,13.2026702 155.023056,13.3713345 Z" id="Shape"></path>
                    <path d="M166.360465,8.46161976 C165.453894,8.46161976 164.845121,8.75678243 164.534146,9.34710777 C164.360211,9.67916577 164.273244,10.1904297 164.273244,10.8808995 L164.273244,15 L162.00418,15 L162.00418,6.38230415 L164.154651,6.38230415 L164.154651,7.88447132 C164.502522,7.30995826 164.80559,6.91728649 165.063858,6.70645601 C165.485519,6.35331496 166.033678,6.17674443 166.708336,6.17674443 C166.750502,6.17674443 166.786079,6.17806213 166.815068,6.18069751 C166.844058,6.18333289 166.908625,6.18728596 167.008769,6.19255672 L167.008769,8.50115047 C166.866458,8.48533818 166.73996,8.47479666 166.629274,8.4695259 C166.518588,8.46425514 166.428985,8.46161976 166.360465,8.46161976 Z" id="Path"></path>
                    <path d="M170.764187,16.5100733 C171.006642,16.715633 171.415126,16.8184129 171.989639,16.8184129 C172.801336,16.8184129 173.344225,16.5469686 173.618305,16.0040802 C173.79751,15.6562099 173.887113,15.0711553 173.887113,14.2489164 L173.887113,13.6954864 C173.671012,14.0644397 173.439099,14.3411548 173.191373,14.5256314 C172.743358,14.868231 172.160939,15.0395307 171.444115,15.0395307 C170.337255,15.0395307 169.453085,14.650812 168.791604,13.8733746 C168.130124,13.0959372 167.799383,12.0431025 167.799383,10.7148705 C167.799383,9.43407534 168.118264,8.35752221 168.756027,7.4852111 C169.393789,6.61289999 170.297724,6.17674443 171.467834,6.17674443 C171.900036,6.17674443 172.276896,6.24262896 172.598412,6.37439801 C173.146571,6.60104077 173.589315,7.01743097 173.926644,7.6235686 L173.926644,6.38230415 L176.116646,6.38230415 L176.116646,14.557256 C176.116646,15.6693868 175.929534,16.5074379 175.55531,17.0714095 C174.912277,18.0412297 173.678918,18.5261398 171.855235,18.5261398 C170.753645,18.5261398 169.85498,18.3100385 169.15924,17.877836 C168.463499,17.4456336 168.078734,16.7999652 168.004943,15.940831 L170.455847,15.940831 C170.519096,16.2043691 170.621876,16.3941165 170.764187,16.5100733 Z M170.384692,12.0589148 C170.690396,12.78628 171.238555,13.1499625 172.02917,13.1499625 C172.556246,13.1499625 173.001625,12.9509913 173.365308,12.5530487 C173.728991,12.1551062 173.910832,11.5212971 173.910832,10.6516214 C173.910832,9.83465325 173.738214,9.21270334 173.392979,8.78577162 C173.047745,8.3588399 172.585235,8.14537404 172.005451,8.14537404 C171.214837,8.14537404 170.669313,8.51696276 170.36888,9.2601402 C170.210757,9.65544735 170.131695,10.1429928 170.131695,10.7227766 C170.131695,11.223499 170.216028,11.6688784 170.384692,12.0589148 Z" id="Shape"></path>
                    <path d="M178.543832,7.31522902 C179.139428,6.5562393 180.161956,6.17674443 181.611415,6.17674443 C182.554881,6.17674443 183.392933,6.36385649 184.125569,6.73808059 C184.858204,7.11230469 185.224522,7.81858679 185.224522,8.8569269 L185.224522,12.8099984 C185.224522,13.084078 185.229793,13.416136 185.240335,13.8061724 C185.256147,14.1013351 185.300948,14.301624 185.374739,14.4070393 C185.44853,14.5124545 185.559216,14.5994221 185.706797,14.667942 L185.706797,15 L183.255893,15 C183.187373,14.8260649 183.139936,14.6626712 183.113582,14.5098191 C183.087228,14.356967 183.066145,14.1830319 183.050333,13.9880137 C182.739358,14.3253425 182.380946,14.612599 181.975098,14.8497833 C181.490188,15.1291337 180.942028,15.2688089 180.33062,15.2688089 C179.550547,15.2688089 178.906196,15.0461192 178.397568,14.6007398 C177.888939,14.1553604 177.634625,13.5241866 177.634625,12.7072185 C177.634625,11.6477954 178.043109,10.8808995 178.860077,10.4065309 C179.308092,10.1482636 179.966937,9.96378692 180.836613,9.85310092 L181.603509,9.7582272 C182.019899,9.70551958 182.317697,9.63963506 182.496903,9.56057363 C182.81842,9.42353382 182.979178,9.21006796 182.979178,8.92017605 C182.979178,8.567035 182.856633,8.32326225 182.611542,8.18885782 C182.366452,8.05445339 182.006722,7.98725118 181.532354,7.98725118 C181.000007,7.98725118 180.623147,8.11902023 180.401775,8.38255833 C180.243652,8.57757652 180.138237,8.84111462 180.085529,9.17317262 L177.91134,9.17317262 C177.958777,8.41945366 178.169608,7.80013913 178.543832,7.31522902 Z M180.219934,13.3713345 C180.430764,13.5452697 180.689032,13.6322373 180.994736,13.6322373 C181.479646,13.6322373 181.926343,13.4899267 182.334827,13.2053055 C182.743311,12.9206844 182.955459,12.4015143 182.971272,11.6477954 L182.971272,10.8097442 C182.828961,10.8993472 182.685333,10.9718202 182.540387,11.0271632 C182.395441,11.0825062 182.19647,11.1338961 181.943473,11.1813329 L181.43748,11.2762067 C180.963111,11.3605388 180.623147,11.4633187 180.417587,11.5845462 C180.069717,11.790106 179.895782,12.1089871 179.895782,12.5411895 C179.895782,12.9259552 180.003833,13.2026702 180.219934,13.3713345 Z" id="Shape"></path>
                    <path d="M193.16229,6.7776113 C193.836948,7.20981378 194.224349,7.95299122 194.324493,9.00714362 L192.071242,9.00714362 C192.039618,8.71725171 191.957921,8.48797357 191.826152,8.31930918 C191.578426,8.01360499 191.156765,7.86075289 190.561169,7.86075289 C190.070988,7.86075289 189.7218,7.93717894 189.513605,8.09003104 C189.30541,8.24288313 189.201312,8.42208904 189.201312,8.62764876 C189.201312,8.8859161 189.311998,9.07302815 189.53337,9.18898491 C189.754742,9.31021244 190.537451,9.51840753 191.881495,9.81357021 C192.777524,10.0244007 193.449547,10.3432818 193.897561,10.7702135 C194.340305,11.202416 194.561677,11.7426691 194.561677,12.3909728 C194.561677,13.2448363 194.244114,13.9418945 193.608987,14.4821476 C192.97386,15.0224007 191.992181,15.2925273 190.663949,15.2925273 C189.309363,15.2925273 188.309236,15.0065885 187.663568,14.4347108 C187.017899,13.8628331 186.695065,13.1341503 186.695065,12.2486622 L188.97994,12.2486622 C189.027377,12.6492402 189.130157,12.9338613 189.28828,13.1025257 C189.56763,13.4029591 190.084165,13.5531758 190.837884,13.5531758 C191.280628,13.5531758 191.632451,13.4872913 191.893354,13.3555223 C192.154257,13.2237532 192.284708,13.0260996 192.284708,12.7625615 C192.284708,12.509565 192.179293,12.3171821 191.968462,12.1854131 C191.757632,12.053644 190.974924,11.8270013 189.620338,11.5054848 C188.645247,11.2630298 187.957413,10.9599609 187.556835,10.5962784 C187.156257,10.2378665 186.955968,9.72133187 186.955968,9.04667434 C186.955968,8.25078928 187.26826,7.56690791 187.892846,6.99503023 C188.517431,6.42315256 189.396331,6.13721372 190.529544,6.13721372 C191.60478,6.13721372 192.482362,6.35067958 193.16229,6.7776113 Z" id="Path"></path>
                </g>
            </g>
        </g>
    </g>
</svg>