<?xml version="1.0" encoding="UTF-8"?>
<svg width="537px" height="108px" viewBox="0 0 537 108" version="1.1" xmlns="http://www.w3.org/2000/svg" xmlns:xlink="http://www.w3.org/1999/xlink">
    <title>Frame</title>
    <defs>
        <path d="M0,0 L537,0 L537,108 L0,108 L0,0 Z" id="path-1"></path>
    </defs>
    <g id="Frame" stroke="none" fill="none" xlink:href="#path-1" fill-rule="evenodd">
        <path d="M158.147216,1.22161589 L131.885052,1.22161589 C130.162356,1.22161589 128.76186,2.61989404 128.76186,4.33931126 L128.76186,9.28227815 C128.76186,11.0016954 130.162356,12.4006887 131.885052,12.4006887 L158.147216,12.4006887 C159.86848,12.4006887 161.268976,11.0016954 161.268976,9.28227815 L161.268976,4.33931126 C161.268976,2.61989404 159.86848,1.22161589 158.147216,1.22161589" id="Fill-1" fill="#E7693D"></path>
        <path d="M149.014636,31.8392583 L140.737676,31.8392583 C139.718808,31.8392583 138.88968,31.0117351 138.88968,29.9918146 L138.88968,20.9498543 L150.862632,20.9498543 L150.862632,23.152053 L147.637768,23.152053 C146.006004,23.152053 144.683552,24.4723709 144.683552,26.1030993 C144.683552,27.734543 146.006004,29.0562914 147.637768,29.0562914 L150.862632,29.0562914 L150.862632,29.9918146 C150.862632,31.0117351 150.03422,31.8392583 149.014636,31.8392583 M153.652168,15.0463311 L136.10086,15.0463311 C134.379596,15.0463311 132.9791,16.4446093 132.9791,18.1640265 L132.9791,29.9918146 C132.9791,34.2674702 136.459576,37.7434252 140.737676,37.7434252 L149.014636,37.7434252 C153.293452,37.7434252 156.773928,34.2674702 156.773928,29.9918146 L156.773928,18.1640265 C156.773928,16.4446093 155.373432,15.0463311 153.652168,15.0463311" id="Fill-2" fill="#E7693D"></path>
        <path d="M175.576088,69.474755 C175.576088,50.2264371 161.87686,37.7456424 145.01506,37.7456424 C128.156124,37.7456424 114.456896,50.2264371 114.456896,69.474755 C114.456896,88.7237881 128.156124,100.302675 145.01506,100.302675 C161.87686,100.302675 175.576088,88.7237881 175.576088,69.474755 M107.230308,69.474755 C107.230308,45.8649536 124.092108,30.8279205 145.01506,30.8279205 C165.941592,30.8279205 182.801244,45.8649536 182.801244,69.474755 C182.801244,93.0852715 165.941592,107.520795 145.01506,107.520795 C124.092108,107.520795 107.230308,93.0852715 107.230308,69.474755" id="Fill-4" fill="#36619E"></path>
        <path d="M284.352956,6.75965563 L243.280332,106.770087 L234.54728,106.770087 L193.473224,6.75965563 C192.386336,4.10900662 194.33672,1.20230464 197.205732,1.20230464 C198.84752,1.20230464 200.327492,2.19933775 200.943968,3.7192053 L238.913448,97.4463258 L276.88436,3.7192053 C277.500836,2.19933775 278.97866,1.20230464 280.622596,1.20230464 C283.48946,1.20230464 285.441276,4.10900662 284.352956,6.75965563" id="Fill-5" fill="#36619E"></path>
        <path d="M300.78802,102.483703 L300.78802,5.18829139 C300.78802,2.98680795 302.573724,1.20301987 304.777572,1.20301987 C306.979272,1.20301987 308.767124,2.98680795 308.767124,5.18829139 L308.767124,102.483703 C308.767124,104.683756 306.979272,106.468975 304.777572,106.468975 C302.573724,106.468975 300.78802,104.683756 300.78802,102.483703" id="Fill-6" fill="#36619E"></path>
        <path d="M374.169428,106.121301 L338.545564,106.121301 C336.586588,106.121301 334.999216,104.534201 334.999216,102.578758 C334.999216,100.622599 336.586588,99.0369298 338.545564,99.0369298 L374.169428,99.0369298 C398.592188,99.0369298 418.46262,79.1878172 418.46262,54.7884 C418.46262,30.3909139 398.592188,10.5418013 374.169428,10.5418013 L344.676672,10.5418013 C342.719128,10.5418013 341.129608,8.95470199 341.129608,6.99854305 C341.129608,5.04166887 342.719128,3.456 344.676672,3.456 L374.169428,3.456 C402.503696,3.456 425.557464,26.4843179 425.557464,54.7884 C425.557464,83.0929828 402.503696,106.121301 374.169428,106.121301" id="Fill-8" fill="#E7693D"></path>
        <path d="M515.787068,73.0844583 L487.48502,9.02336424 L459.182972,73.0844583 L515.787068,73.0844583 Z M529.484864,104.11622 L518.947492,80.6044053 L456.022548,80.6044053 L445.62766,104.1012 C444.992568,105.540962 443.56558,106.468617 441.991096,106.468617 C439.107764,106.468617 437.183872,103.49826 438.36384,100.871213 L483.119568,1.20301987 L492.001548,1.20301987 L536.75298,100.861915 C537.935096,103.493968 536.00834,106.468617 533.119996,106.468617 C531.55124,106.468617 530.127116,105.547399 529.484864,104.11622 L529.484864,104.11622 Z" id="Fill-7" fill="#36619E"></path>
        <path d="M89.6840121,89.1443444 C91.2821241,90.652053 91.2542001,93.2283179 89.5859201,94.6594967 C79.4666921,103.334543 66.7699357,107.671709 54.1976917,107.671709 C18.6690557,107.671709 0.154010936,82.8596026 0.00365093599,54.4370066 C-0.297785064,26.3162384 18.0690477,-2.03281101e-14 54.1976917,-2.03281101e-14 C66.7126557,-2.03281101e-14 79.3499841,4.29854305 89.4455841,12.8927682 C91.1618361,14.3539868 91.1997841,16.986755 89.4935561,18.4601325 C88.1231321,19.6452715 86.0868281,19.6495629 84.7185521,18.4622781 C76.0177201,10.889404 65.1080997,7.21883444 54.1976917,7.21883444 C23.4877357,7.21883444 7.67988765,28.8731921 7.83167965,54.1366093 C8.13311565,78.7985166 23.7891717,100.153907 54.1976917,100.153907 C65.0407957,100.153907 76.0084121,96.4018013 84.7070961,89.0163179 C86.1562801,87.785404 88.2992681,87.8397616 89.6840121,89.1443444" id="Fill-3" fill="#36619E"></path>
    </g>
</svg>