<svg xmlns="http://www.w3.org/2000/svg" xmlns:xlink="http://www.w3.org/1999/xlink" viewBox="0 0 69.27 69.47"><defs><style>.cls-1{fill:none;}.cls-2{clip-path:url(#clip-path);}.cls-3{fill:url(#linear-gradient);}</style><clipPath id="clip-path"><path class="cls-1" d="M30.62,65.37a3.91,3.91,0,1,0,3.91-3.91,3.92,3.92,0,0,0-3.91,3.91M10.13,54a3.72,3.72,0,1,0,5.26,0,3.72,3.72,0,0,0-5.26,0M54,54a3.73,3.73,0,1,0,2.64-1.09A3.72,3.72,0,0,0,54,54M4.09,30.82A3.91,3.91,0,1,0,8,34.73a3.92,3.92,0,0,0-3.91-3.91Zm61.08,0a3.91,3.91,0,1,0,3.91,3.91,3.91,3.91,0,0,0-3.91-3.91Zm-55-20.71a3.72,3.72,0,1,0,5.26,0,3.72,3.72,0,0,0-5.26,0m43.85,0A3.73,3.73,0,1,0,56.62,9,3.74,3.74,0,0,0,54,10.11m-23.36-6A3.91,3.91,0,1,0,34.53.19,3.91,3.91,0,0,0,30.62,4.1M39,17.19A5.67,5.67,0,0,1,39.54,14a9.19,9.19,0,0,1,1.87-2.67,8.87,8.87,0,0,1,2.46-1.76,4.82,4.82,0,0,1,2.25-.64,7.57,7.57,0,0,1,.47,1A8.72,8.72,0,0,1,47.13,13a8.46,8.46,0,0,1-.47,2.84,5.47,5.47,0,0,1-1.84,2.72,4.24,4.24,0,1,0,6,6,5.32,5.32,0,0,1,2.5-1.77,8.8,8.8,0,0,1,5.9-.08,6.12,6.12,0,0,1,1.14.49,5.35,5.35,0,0,1-.56,2,9,9,0,0,1-1.86,2.68,9.23,9.23,0,0,1-2.46,1.76,5.75,5.75,0,0,1-3.39.64,4.45,4.45,0,1,0,0,8.9,5.62,5.62,0,0,1,3.17.54,9,9,0,0,1,2.68,1.87,8.87,8.87,0,0,1,1.76,2.46,5,5,0,0,1,.63,2.09,9.68,9.68,0,0,1-.92.41,8.59,8.59,0,0,1-3.06.55,8.67,8.67,0,0,1-2.84-.47,5.55,5.55,0,0,1-2.72-1.85,4.24,4.24,0,0,0-6,6,5.4,5.4,0,0,1,1.78,2.5,8.85,8.85,0,0,1,.54,3.06,8.63,8.63,0,0,1-.47,2.84A5.94,5.94,0,0,1,46,60.55a5.57,5.57,0,0,1-2-.56,9.19,9.19,0,0,1-2.68-1.86,9.68,9.68,0,0,1-1.77-2.46A5.75,5.75,0,0,1,39,52.28a4.45,4.45,0,1,0-8.89,0,5.63,5.63,0,0,1-.54,3.17,9.23,9.23,0,0,1-1.87,2.68,9.08,9.08,0,0,1-2.46,1.76,5.14,5.14,0,0,1-1.88.61,6.11,6.11,0,0,1-.53-1.11,9,9,0,0,1-.08-5.91,5.55,5.55,0,0,1,1.85-2.72,4.24,4.24,0,0,0-6-6,5.4,5.4,0,0,1-2.5,1.78,8.85,8.85,0,0,1-3.06.54,8.73,8.73,0,0,1-2.85-.47A6,6,0,0,1,9,46.09a5.05,5.05,0,0,1,.62-2A9.4,9.4,0,0,1,14,39.74a5.67,5.67,0,0,1,3.18-.54,4.45,4.45,0,0,0,0-8.9,5.74,5.74,0,0,1-3.39-.64,9.28,9.28,0,0,1-4.33-4.44,5.24,5.24,0,0,1-.55-2A7.24,7.24,0,0,1,10,22.77,8.54,8.54,0,0,1,13,22.23a8.72,8.72,0,0,1,2.84.46,5.5,5.5,0,0,1,2.72,1.86,4.24,4.24,0,0,0,6-6,5.4,5.4,0,0,1-1.78-2.5,8.88,8.88,0,0,1-.07-5.9,6.29,6.29,0,0,1,.52-1.21A5.81,5.81,0,0,1,25,9.47a9.28,9.28,0,0,1,4.44,4.33,5.68,5.68,0,0,1,.65,3.39,4.45,4.45,0,1,0,8.89,0M17.68,2.82a.76.76,0,0,0-.06.16.85.85,0,0,0-.06.17,4.24,4.24,0,0,0-.11,2.15,4.45,4.45,0,0,0,1.81,2.79,4.43,4.43,0,0,1,1.11,1.84A8.63,8.63,0,0,1,20.92,13a8.73,8.73,0,0,1-.47,2.85,8.41,8.41,0,0,1-4.35,4.49,9,9,0,0,1-5.91.08,5.93,5.93,0,0,1-2.77-1.86,4.24,4.24,0,0,0-6,0A4.34,4.34,0,0,0,.49,20,4.51,4.51,0,0,0,0,22a4.44,4.44,0,0,0,4.44,4.45,6.15,6.15,0,0,1,3.43.68,9.08,9.08,0,0,1,2.46,1.76,9,9,0,0,1,1.87,2.68,8.8,8.8,0,0,1-.1,6.56,8.91,8.91,0,0,1-1.77,2.46,8.87,8.87,0,0,1-2.67,1.87A5.67,5.67,0,0,1,4.48,43,4.45,4.45,0,0,0,1.06,50.3a3.47,3.47,0,0,0,.4.46,4.23,4.23,0,0,0,5.84.14,5.2,5.2,0,0,0,.58-.57A4.54,4.54,0,0,1,10,49,8.63,8.63,0,0,1,13,48.44a8.73,8.73,0,0,1,2.85.47,8.36,8.36,0,0,1,4.48,4.35,8.63,8.63,0,0,1,.55,3.06,8.73,8.73,0,0,1-.47,2.85,5.62,5.62,0,0,1-1.71,2.63l-.09.09-.05,0a4.24,4.24,0,0,0-.91,4.63A4.45,4.45,0,0,0,26.26,65a5.63,5.63,0,0,1,.54-3.17,9.19,9.19,0,0,1,1.86-2.68,9.39,9.39,0,0,1,2.46-1.76,8.83,8.83,0,0,1,6.57-.11,9.23,9.23,0,0,1,2.68,1.87,9.39,9.39,0,0,1,1.76,2.46A6.18,6.18,0,0,1,42.81,65a4.45,4.45,0,0,0,4.45,4.45,4.39,4.39,0,0,0,2.75-1,3.76,3.76,0,0,0,.77-.61,4.22,4.22,0,0,0,0-6A5.32,5.32,0,0,1,49,59.41a8.8,8.8,0,0,1-.08-5.9A8.4,8.4,0,0,1,53.28,49a8.85,8.85,0,0,1,3.06-.54,9,9,0,0,1,2.85.46,5.49,5.49,0,0,1,2,1.08,4.41,4.41,0,0,0,1.62,1.41,4.23,4.23,0,0,0,6.4-3.26,4,4,0,0,0,.06-.7A4.45,4.45,0,0,0,64.78,43a5.63,5.63,0,0,1-3.17-.54,9.28,9.28,0,0,1-4.44-4.33,8.75,8.75,0,0,1-.1-6.56,9.19,9.19,0,0,1,1.86-2.68,9.39,9.39,0,0,1,2.46-1.76,6.18,6.18,0,0,1,3.43-.68A4.45,4.45,0,0,0,69.27,22a4.65,4.65,0,0,0-.21-1.35,4.23,4.23,0,0,0-7.13-2.08,5.37,5.37,0,0,1-2.5,1.77,8.63,8.63,0,0,1-3.06.55,8.73,8.73,0,0,1-2.85-.47A8.41,8.41,0,0,1,49,16.08,9,9,0,0,1,49,10.17,5.81,5.81,0,0,1,50.81,7.4,4.23,4.23,0,0,0,48.61.25,4.29,4.29,0,0,0,47.26,0a4.46,4.46,0,0,0-4.45,4.46,5.63,5.63,0,0,1-.54,3.17,9.19,9.19,0,0,1-1.86,2.68A9.39,9.39,0,0,1,38,12.1a8.78,8.78,0,0,1-6.57.1,9.19,9.19,0,0,1-2.68-1.86,9.39,9.39,0,0,1-1.76-2.46,6.18,6.18,0,0,1-.68-3.43,4.44,4.44,0,0,0-8.58-1.63"/></clipPath><linearGradient id="linear-gradient" x1="-925.37" y1="100.78" x2="-924.37" y2="100.78" gradientTransform="translate(-7188.2 -66253.87) rotate(-90) scale(71.67)" gradientUnits="userSpaceOnUse"><stop offset="0" stop-color="#1daaba"/><stop offset="1" stop-color="#b1f750"/></linearGradient></defs><g id="Layer_2" data-name="Layer 2"><g id="Layer_1-2" data-name="Layer 1"><g class="cls-2"><rect class="cls-3" width="69.27" height="69.47"/></g></g></g></svg>