<?xml version="1.0" encoding="UTF-8"?>
<svg width="154px" height="154px" viewBox="0 0 154 154" version="1.1" xmlns="http://www.w3.org/2000/svg" xmlns:xlink="http://www.w3.org/1999/xlink">
    <title>Frame Copy 3</title>
    <g id="Frame-Copy-3" stroke="none" fill="none" fill-rule="evenodd" stroke-width="1">
        <g id="Group" transform="translate(30, 32)" fill="#FFFFFF">
            <path d="M79.2973281,63.5414839 C74.7049322,63.5414839 70.8195262,60.4503699 69.6010321,56.2351221 L88.9936242,56.2351221 C87.7741172,60.4503699 83.8887112,63.5414839 79.2973281,63.5414839 L79.2973281,63.5414839 Z M50.3046635,13.13825 C57.5123145,13.5901376 64.0382975,15.797786 69.7347322,19.7215917 C70.8813118,20.5106179 71.889127,21.3037059 72.7632421,22.0551594 L50.3046635,22.0551594 L50.3046635,13.13825 Z M22.2327064,22.0551594 C26.4402081,18.4471673 33.8443577,13.8328368 44.6953365,13.1392655 L44.6953365,22.0551594 L22.2327064,22.0551594 Z M15.7026719,63.5414839 C11.1112888,63.5414839 7.2258828,60.4503699 6.00738869,56.2351221 L25.3989679,56.2351221 C24.1804738,60.4503699 20.2950678,63.5414839 15.7026719,63.5414839 L15.7026719,63.5414839 Z M15.7026719,31.6849341 L24.2513754,50.6103913 L7.15498124,50.6103913 L15.7026719,31.6849341 Z M87.8450188,50.6103913 L70.7496375,50.6103913 L79.2973281,31.6849341 L87.8450188,50.6103913 Z M34.2170974,85.3752692 C37.7044417,81.9023356 42.4811818,79.8642719 47.5,79.8642719 C52.5198311,79.8642719 57.2965711,81.9023356 60.7839155,85.3752692 L34.2170974,85.3752692 Z M94.747793,52.263589 L94.7498187,52.2625735 L81.8518104,23.7063261 C81.7819217,23.550958 81.6968398,23.4057447 81.6016291,23.2676397 L81.602642,23.2676397 C81.5965647,23.257485 81.5783329,23.2331135 81.551998,23.1955408 C81.5479465,23.189448 81.5428821,23.1833551 81.5388306,23.1762467 C81.0870863,22.5466506 78.3381312,18.8746834 73.142059,15.2443507 C68.4443236,11.9633424 60.7940443,8.10554272 50.3046635,7.50742638 L50.3046635,2.81185765 C50.3046635,1.2591923 49.0486929,0 47.5,0 C45.9513071,0 44.6953365,1.2591923 44.6953365,2.81185765 L44.6953365,7.50742638 C34.2049429,8.10554272 26.5556764,11.9633424 21.857941,15.2443507 C16.2708973,19.1478469 13.5108005,23.1011014 13.3963451,23.2676397 C13.3963451,23.2676397 13.397358,23.2686552 13.397358,23.2696707 C13.3021473,23.4067602 13.2180783,23.5519735 13.1481896,23.7063261 L0.251194132,52.2625735 C0.247142613,52.2696819 0.245116854,52.2778057 0.241065336,52.2859295 C0.214730467,52.3438117 0.192447117,52.4037249 0.171176646,52.4646536 C0.161047851,52.4930869 0.147880416,52.5225358 0.1387645,52.5519846 C0.122558427,52.603774 0.108378113,52.6565788 0.0952106789,52.7103992 C0.0840690038,52.7500028 0.0729273286,52.7885909 0.0638114125,52.82921 C0.055708376,52.8698292 0.0496310986,52.9104483 0.0425409417,52.9520828 C0.0344379052,53.0059032 0.0243091095,53.058708 0.0192447117,53.1125283 C0.0151931934,53.1440081 0.0141803139,53.1754879 0.0111416752,53.2069677 C0.00607727738,53.2709428 0.00303863869,53.3339024 0.00202575913,53.3978775 C0.00202575913,53.4060014 0,53.4141252 0,53.422249 C0,62.1035676 7.04457736,69.1651992 15.7026719,69.1651992 C24.3617793,69.1651992 31.4053437,62.1035676 31.4053437,53.422249 C31.4053437,53.4141252 31.4043309,53.4070168 31.4043309,53.3978775 C31.4043309,53.3339024 31.3992665,53.2709428 31.3952149,53.2069677 C31.3931892,53.1754879 31.3921763,53.1440081 31.3881248,53.1125283 C31.3820475,53.058708 31.3729316,53.0048877 31.3638157,52.9520828 C31.3557126,52.9104483 31.3506482,52.8688137 31.3415323,52.82921 C31.3334293,52.7885909 31.3222876,52.7500028 31.3111459,52.7103992 C31.2979785,52.6565788 31.2837982,52.603774 31.2675921,52.5519846 C31.2574633,52.5215203 31.2463216,52.4930869 31.23518,52.4636381 C31.2139095,52.4027094 31.1906133,52.3438117 31.1642784,52.2859295 C31.1612398,52.2778057 31.159214,52.2696819 31.1551625,52.2625735 L20.0529896,27.6798902 L44.6953365,27.6798902 L44.6953365,74.407095 C37.1615383,75.2885296 30.3377687,79.6814859 26.4472983,86.3115396 L26.1829367,86.7613962 C25.6724454,87.6316606 25.6663681,88.7080669 26.1657178,89.5844241 C26.6660803,90.4597659 27.5948908,91 28.6006802,91 L66.4003327,91 C67.4061221,91 68.3359455,90.4597659 68.8352951,89.5844241 C69.3346447,88.7080669 69.3275546,87.6316606 68.8170633,86.7613962 L68.5537146,86.3115396 C64.6622313,79.6814859 57.8384617,75.2885296 50.3046635,74.407095 L50.3046635,27.6798902 L74.9480233,27.6798902 L63.8448375,52.2625735 L63.8468633,52.263589 C63.6858154,52.6169752 63.5946563,53.0089496 63.5946563,53.422249 C63.5946563,62.1035676 70.6392336,69.1651992 79.2973281,69.1651992 C87.9554226,69.1651992 95,62.1035676 95,53.422249 C95,53.0089496 94.9088408,52.6169752 94.747793,52.263589 L94.747793,52.263589 Z" id="Fill-106"></path>
        </g>
    </g>
</svg>