<?xml version="1.0" encoding="UTF-8"?>
<svg width="154px" height="154px" viewBox="0 0 154 154" version="1.1" xmlns="http://www.w3.org/2000/svg" xmlns:xlink="http://www.w3.org/1999/xlink">
    <title>Frame Copy 2</title>
    <g id="Frame-Copy-2" stroke="none" fill="none" fill-rule="evenodd" stroke-width="1">
        <g id="Group" transform="translate(35.6714, 14.1031)" fill="#FFFFFF">
            <path d="M62.5168395,74.876 L62.5168395,122.431 C62.5168395,123.557 61.8448395,124.51 60.7768395,124.89 C59.7188395,125.26 58.5888395,124.942 57.8858395,124.062 L41.6878395,103.884 L25.4798395,124.057 C24.7768395,124.937 23.6458395,125.255 22.5888395,124.885 C21.5208395,124.51 20.8488395,123.551 20.8488395,122.431 L20.8488395,74.876 C19.2028395,75.459 17.4308395,75.188 16.0038395,74.1 C14.3678395,72.859 13.6328395,70.916 14.0498395,68.905 L18.2748395,48.29 L1.79083946,33.854 C0.202839458,32.468 -0.376160542,30.399 0.243839458,28.389 C0.873839458,26.378 2.52583946,25.008 4.62083946,24.763 L27.3608395,22.096 L37.0358395,2.866 C37.9418395,1.063 39.6718395,0 41.6878395,0 C43.7048395,0 45.4338395,1.063 46.3408395,2.866 L56.0248395,22.096 L78.7668395,24.763 C80.8498395,25.008 82.5018395,26.383 83.1318395,28.389 C83.7518395,30.405 83.1738395,32.468 81.5848395,33.854 L65.1008395,48.29 L69.3368395,68.905 C69.7428395,70.916 69.0078395,72.859 67.3828395,74.1 C65.9338395,75.184 64.1628395,75.459 62.5168395,74.876 L62.5168395,74.876 Z M31.2678395,108.536 L26.0478395,115.022 L26.0478395,72.25 L31.2678395,69.577 L31.2678395,108.536 Z M46.8978395,102.05 L43.7148395,98.091 C43.2038395,97.455 42.5058395,97.111 41.6878395,97.111 C40.8648395,97.111 40.1618395,97.45 39.6508395,98.091 L36.4778395,102.05 L36.4778395,66.899 L41.6878395,64.217 L46.8978395,66.895 L46.8978395,102.05 Z M52.1078395,69.572 L57.3178395,72.25 L57.3178395,115.027 L52.1078395,108.542 L52.1078395,69.572 Z M52.6288395,26.936 L41.6878395,5.205 L30.7468395,26.936 L5.21983946,29.936 L23.9848395,46.362 L19.1498395,69.947 L41.6878395,58.366 L64.2258395,69.952 L59.3908395,46.368 L78.1568395,29.936 L52.6288395,26.936 Z" id="Fill-104"></path>
        </g>
    </g>
</svg>