<?xml version="1.0" encoding="UTF-8"?>
<svg width="154px" height="154px" viewBox="0 0 154 154" version="1.1" xmlns="http://www.w3.org/2000/svg" xmlns:xlink="http://www.w3.org/1999/xlink">
    <title>Frame</title>
    <g id="Frame" stroke="none" fill="none" fill-rule="evenodd">
        <path d="M119.5705,99.1197 C119.4115,98.7967 118.5685,98.3957 117.2625,98.5657 C116.1235,98.7107 114.6595,99.4437 113.3695,100.0907 C113.0645,100.2427 112.7665,100.3927 112.4765,100.5327 C107.9395,102.7327 100.8845,106.2807 96.1195,108.8717 C95.2965,109.3197 94.5545,109.7607 93.8375,110.1867 C92.5085,110.9767 91.2525,111.7237 89.8705,112.2617 C89.8205,112.2817 89.7715,112.3017 89.7225,112.3177 C87.6775,113.0847 85.3475,113.3877 82.1025,112.6947 C79.4565,112.1317 76.9285,111.0397 74.4845,109.9827 C71.6835,108.7727 69.0385,107.6307 66.9285,107.6307 C65.5915,107.6307 64.5065,106.5467 64.5065,105.2087 C64.5065,103.8717 65.5915,102.7867 66.9285,102.7867 C70.0405,102.7867 73.1315,104.1227 76.4045,105.5367 C78.6325,106.4987 80.9365,107.4947 83.1125,107.9587 C85.2225,108.4087 86.6255,108.3017 88.0135,107.7857 C90.6675,106.5427 91.2365,105.5787 91.2245,105.3367 C91.1865,104.5227 88.6935,101.9917 81.2305,99.3627 C78.7775,98.4977 76.0605,97.4747 73.4325,96.4867 C66.4625,93.8647 57.7975,90.6027 54.8085,90.7707 C46.8135,91.2277 39.3695,96.3207 34.4585,99.9537 L39.2925,117.9967 C41.5075,116.6687 43.8315,115.7117 47.0365,115.6487 C47.1865,115.6457 47.3375,115.6437 47.4885,115.6437 C54.0725,115.6437 63.1095,118.3837 71.1045,120.8067 C74.6195,121.8717 77.9395,122.8787 80.6185,123.5147 C84.2155,124.3687 85.2705,124.2097 85.5075,124.1407 C89.5445,122.9647 111.8945,107.6677 118.4405,101.1567 C119.4825,100.1197 119.6865,99.3577 119.5705,99.1207 L119.5705,99.1197 Z M52.5685,86.1227 C53.2175,86.0367 53.8725,85.9737 54.5325,85.9347 C58.5355,85.7067 66.5995,88.7417 75.1385,91.9537 C77.8635,92.9777 80.4355,93.9467 82.8405,94.7937 C90.2675,97.4107 94.5975,100.3577 95.7545,103.5727 C97.4355,102.6807 99.2855,101.7217 101.1495,100.7697 L101.1495,37.4637 L96.3215,37.4637 L96.3215,40.1067 C96.3215,41.4447 95.2375,42.5287 93.8995,42.5287 L59.8185,42.5287 C58.4805,42.5287 57.3965,41.4447 57.3965,40.1067 L57.3965,37.4637 L52.5685,37.4637 L52.5685,86.1227 Z M62.2395,37.6847 L91.4775,37.6847 L91.4775,34.0217 C91.4755,32.1057 89.9235,30.5537 88.0065,30.5517 L65.7115,30.5517 C63.7945,30.5537 62.2415,32.1057 62.2395,34.0217 L62.2395,37.6847 Z M121.8565,104.5917 C115.5155,110.8967 92.4755,127.1557 86.8625,128.7907 C86.2185,128.9657 85.5535,129.0487 84.8865,129.0367 C81.7425,129.0367 76.9445,127.6397 69.6995,125.4427 C62.0285,123.1177 53.3535,120.4887 47.5025,120.4887 C47.3775,120.4887 47.2545,120.4897 47.1325,120.4917 C44.0165,120.5527 42.2105,121.7897 39.2165,123.8387 L39.1885,123.8587 C38.0845,124.6147 36.5775,124.3327 35.8215,123.2277 C35.6675,123.0027 35.5515,122.7517 35.4815,122.4867 L29.3545,99.6207 C29.0985,98.6637 29.4495,97.6477 30.2425,97.0547 C34.2965,94.0217 40.4545,89.4217 47.7245,87.1937 L47.7245,35.0417 C47.7245,33.7037 48.8085,32.6197 50.1465,32.6197 L57.5165,32.6197 C58.2045,28.6297 61.6625,25.7127 65.7115,25.7077 L88.0075,25.7077 C92.0555,25.7137 95.5135,28.6307 96.2005,32.6197 L103.5715,32.6197 C104.9085,32.6197 105.9925,33.7037 105.9925,35.0417 L105.9925,98.3257 C107.5795,97.5357 109.0735,96.8017 110.3645,96.1757 C110.6355,96.0437 110.9155,95.9037 111.2005,95.7607 C112.8375,94.9407 114.6925,94.0117 116.6465,93.7627 C119.8955,93.3417 122.7525,94.6077 123.9195,96.9877 C124.4695,98.1097 125.3685,101.0957 121.8565,104.5917 L121.8565,104.5917 Z M62.5985,65.9457 C61.9175,64.7947 62.2985,63.3087 63.4495,62.6277 C64.6005,61.9467 66.0855,62.3277 66.7665,63.4777 C66.7755,63.4937 66.7845,63.5087 66.7935,63.5237 L71.8165,72.2227 L87.3105,56.7247 C88.2565,55.7787 89.7895,55.7787 90.7355,56.7237 C91.6815,57.6707 91.6815,59.2037 90.7365,60.1497 L73.0105,77.8787 C72.0645,78.8247 70.5315,78.8247 69.5855,77.8797 C69.4355,77.7287 69.3065,77.5607 69.2005,77.3777 L62.5985,65.9457 Z" id="Fill-108" fill="#FFFFFF"></path>
    </g>
</svg>