<?xml version="1.0" encoding="UTF-8"?>
<svg width="154px" height="154px" viewBox="0 0 154 154" version="1.1" xmlns="http://www.w3.org/2000/svg" xmlns:xlink="http://www.w3.org/1999/xlink">
    <title>Frame Copy</title>
    <g id="Frame-Copy" stroke="none" fill="none" fill-rule="evenodd" stroke-width="1">
        <g id="Group" transform="translate(29.5412, 24.0862)" fill="#FFFFFF">
            <path d="M101.621,67.8607 L95.185,67.8607 C94.146,67.8597 93.304,67.0177 93.303,65.9787 L93.303,39.9337 C93.283,38.8947 92.425,38.0677 91.386,38.0877 C90.374,38.1067 89.558,38.9227 89.539,39.9337 L89.539,63.1887 L76.751,63.2327 C79.028,60.3257 78.532,56.1267 75.64,53.8307 L73.675,52.2967 C75.245,52.3207 78.124,52.6257 78.022,50.2547 C77.969,49.2267 77.094,48.4367 76.066,48.4897 L76.028,48.4927 C65.16,49.1587 63.245,43.6457 63.177,43.4397 C62.88,42.4357 61.826,41.8637 60.822,42.1607 C60.752,42.1817 60.683,42.2067 60.615,42.2357 L46.512,48.3507 C44.019,49.5807 38.504,48.9127 38.5099951,45.6287 C38.576,44.8297 39.068,44.1287 39.797,43.7957 L58.163,35.3737 C59.708,34.6627 61.388,34.2937 63.089,34.2927 L91.425,34.2927 C92.46,34.2947 93.301,33.4567 93.303,32.4217 L93.303,32.3927 L93.303,28.7167 C93.304,27.6777 94.146,26.8367 95.185,26.8357 L101.621,26.8357 L101.621,67.8607 Z M69.333,61.3167 C68.999,61.0247 67.928,60.2147 67.646,59.9237 L60.279,54.0217 C59.446,53.3867 58.257,53.5467 57.621,54.3787 C57.007,55.1827 57.133,56.3287 57.908,56.9797 L65.41,62.9727 C66.649,64.0787 66.757,65.9787 65.652,67.2177 C65.443,67.4527 65.199,67.6517 64.928,67.8107 C62.814,69.0807 60.997,67.1387 59.477,65.9027 L51.739,59.7087 C50.915,59.0747 49.733,59.2277 49.099,60.0517 C48.482,60.8537 48.609,61.9997 49.386,62.6467 L57.136,68.8537 C58.43,69.8847 58.643,71.7707 57.611,73.0657 C56.579,74.3597 54.694,74.5727 53.399,73.5407 C53.392,73.5347 53.384,73.5277 53.376,73.5217 L43.219,65.3957 C42.395,64.7617 41.214,64.9157 40.58,65.7387 C39.962,66.5397 40.089,67.6857 40.867,68.3327 C42.023,69.2597 45.83,72.3187 47.047,73.2927 C48.32,74.3077 48.529,76.1627 47.515,77.4357 C46.579,78.6097 44.91,78.8927 43.64,78.0937 C38.909,75.0617 31.676,70.1467 23.805,64.6137 C21.38,62.5897 16.509,63.3077 13.607,63.1937 C12.568,63.1937 11.725,64.0357 11.725,65.0747 L11.725,65.0757 C11.884,66.3977 11.392,67.8477 9.843,67.8607 L3.764,67.8607 L3.764,26.8355911 L9.843,26.8355911 C10.872,26.8247 11.714,27.6487 11.725,28.6777 L11.725,28.7167 L11.725,57.5477 C11.744,58.5877 12.603,59.4147 13.642,59.3947 C14.654,59.3767 15.47,58.5597 15.489,57.5477 L15.489,34.2927 L38.817,34.2927 C41.346,34.3447 43.774,35.2897 45.673,36.9597 L38.222,40.3757 C35.214,41.7987 33.929,45.3897 35.351,48.3977 C35.789,49.3237 36.456,50.1237 37.289,50.7197 C40.427,52.9267 44.491,53.3387 48.008,51.8037 L60.422,46.4267 C61.697,48.1167 63.335,49.4977 65.215,50.4687 L73.299,56.7767 C74.584,57.8367 74.768,59.7367 73.709,61.0217 C72.65,62.3067 70.749,62.4907 69.464,61.4307 C69.419,61.3947 69.376,61.3557 69.333,61.3167 L69.333,61.3167 Z M101.621,23.0717 L95.185,23.0717 C92.068,23.0747 89.543,25.6007 89.539,28.7167 L89.539,30.5287 L63.088,30.5287 C58.945,30.2087 53.32,33.5897 49.616,35.1517 C46.494,32.7357 42.953,30.3647 38.817,30.5297 L15.489,30.5287 L15.489,28.7167 C15.485,25.6007 12.959,23.0747 9.843,23.0717 L3.764,23.0717 C1.686,23.0737 0.002,24.7567 0,26.8357 L0,67.8607 C0.002,69.9377 1.686,71.6217 3.764,71.6247 L9.843,71.6247 C12.586,71.6397 14.936,69.6627 15.389,66.9577 C17.065,67.0777 20.256,66.5297 21.632,67.6877 C29.553,73.2557 36.834,78.2037 41.609,81.2607 C44.762,83.2337 48.917,82.2777 50.89,79.1247 C51.306,78.4597 51.603,77.7257 51.767,76.9587 C54.975,78.8777 59.132,77.8327 61.051,74.6237 C61.566,73.7617 61.883,72.7967 61.979,71.7967 C65.48,72.5647 68.973,70.4697 69.944,67.0197 L89.638,66.9527 C90.109,69.6487 92.448,71.6187 95.185,71.6247 L101.621,71.6247 C103.699,71.6217 105.382,69.9377 105.385,67.8607 L105.385,26.8357 C105.382,24.7567 103.699,23.0737 101.621,23.0717 L101.621,23.0717 Z" id="Fill-90"></path>
            <path d="M52.6924,15.055 C53.7314,15.055 54.5734,14.213 54.5744,13.174 L54.5744,13.173 L54.5744,1.882 C54.5744,0.843 53.7314,0 52.6924,0 C51.6524,0 50.8104,0.843 50.8104,1.882 L50.8104,13.173 C50.8104,14.212 51.6524,15.055 52.6914,15.055 L52.6924,15.055 Z" id="Fill-92"></path>
            <path d="M34.063,21.6693 C34.813,22.3903 36.004,22.3653 36.724,21.6163 C37.424,20.8883 37.424,19.7363 36.724,19.0083 L28.741,11.0233 C27.992,10.3033 26.8,10.3263 26.08,11.0753 C25.379,11.8043 25.379,12.9563 26.08,13.6853 L34.063,21.6693 Z" id="Fill-94"></path>
            <path d="M69.9911,22.221 C70.4901,22.221 70.9691,22.023 71.3221,21.669 L79.3051,13.685 C80.0251,12.936 80.0021,11.744 79.2531,11.024 C78.5241,10.324 77.3721,10.324 76.6431,11.024 L68.6601,19.008 C67.9321,19.76 67.9511,20.959 68.7031,21.687 C69.0491,22.022 69.5101,22.213 69.9911,22.221" id="Fill-96"></path>
            <path d="M52.6924,90.3294 C51.6534,90.3294 50.8104,91.1714 50.8104,92.2104 L50.8104,92.2114 L50.8104,103.5034 C50.8104,104.5424 51.6524,105.3854 52.6924,105.3854 C53.7314,105.3854 54.5744,104.5424 54.5744,103.5034 L54.5744,92.2114 C54.5744,91.1724 53.7324,90.3304 52.6934,90.3294 L52.6924,90.3294 Z" id="Fill-98"></path>
            <path d="M34.063,83.7161 L26.08,91.6991 C25.359,92.4481 25.382,93.6401 26.131,94.3611 C26.86,95.0621 28.012,95.0621 28.741,94.3611 L36.724,86.3761 C37.444,85.6271 37.42,84.4361 36.671,83.7161 C35.942,83.0161 34.792,83.0161 34.063,83.7161" id="Fill-100"></path>
            <path d="M71.3217,83.7161 C70.5727,82.9951 69.3817,83.0191 68.6607,83.7681 C67.9597,84.4961 67.9597,85.6481 68.6607,86.3761 L76.6437,94.3611 C77.3947,95.0801 78.5857,95.0541 79.3047,94.3041 C80.0027,93.5751 80.0027,92.4281 79.3047,91.6991 L71.3217,83.7161 Z" id="Fill-102"></path>
        </g>
    </g>
</svg>