<?xml version="1.0" encoding="UTF-8"?>
<svg width="154px" height="154px" viewBox="0 0 154 154" version="1.1" xmlns="http://www.w3.org/2000/svg" xmlns:xlink="http://www.w3.org/1999/xlink">
    <title>Frame Copy 4</title>
    <g id="Frame-Copy-4" stroke="none" fill="none" fill-rule="evenodd" stroke-width="1">
        <g id="Group" transform="translate(31, 31)" fill="#FFFFFF">
            <path d="M38.3334887,24.9152847 C38.3334887,20.6886385 41.7728906,17.249212 46.000603,17.249212 C50.2283154,17.249212 53.666621,20.6886385 53.666621,24.9152847 C53.666621,29.1430274 50.2283154,32.5824539 46.000603,32.5824539 C41.7728906,32.5824539 38.3334887,29.1430274 38.3334887,24.9152847 M52.9693116,34.056024 C55.7201753,31.9520203 57.49963,28.6386805 57.49963,24.9163811 C57.49963,18.5747672 52.3399789,13.4161756 46.000603,13.4161756 C39.6590344,13.4161756 34.4993833,18.5747672 34.4993833,24.9163811 C34.4993833,28.6386805 36.278838,31.9520203 39.0297017,34.056024 C32.979775,36.7378338 28.7498698,42.7998641 28.7498698,49.8333105 L28.7498698,65.1654561 C28.7498698,66.2245845 29.6083498,67.0819742 30.6663743,67.0819742 L36.4158878,67.0819742 L36.4158878,90.0834818 C36.4158878,91.1415139 37.2743678,92 38.3334887,92 C39.3915132,92 40.2499931,91.1415139 40.2499931,90.0834818 L40.2499931,59.4159015 C40.2499931,58.356773 39.3915132,57.5004797 38.3334887,57.5004797 C37.2743678,57.5004797 36.4158878,58.3578694 36.4158878,59.4159015 L36.4158878,63.2489379 L32.5828788,63.2489379 L32.5828788,49.8333105 C32.5828788,42.4347608 38.6021063,36.4154903 45.9995066,36.4154903 C53.3980034,36.4154903 59.4172309,42.4347608 59.4172309,49.8333105 L59.4172309,63.2489379 L55.5842219,63.2489379 L55.5842219,59.4159015 C55.5842219,58.356773 54.7246455,57.5004797 53.666621,57.5004797 C52.6085965,57.5004797 51.7501165,58.3578694 51.7501165,59.4159015 L51.7501165,90.0834818 C51.7501165,91.1415139 52.6085965,92 53.666621,92 C54.7246455,92 55.5842219,91.1415139 55.5842219,90.0834818 L55.5842219,67.0819742 L61.3326389,67.0819742 C62.3906635,67.0819742 63.2502398,66.2245845 63.2502398,65.1654561 L63.2502398,49.8333105 C63.2502398,42.7998641 59.0181418,36.7378338 52.9693116,34.056024" id="Fill-67"></path>
            <path d="M45.9997259,72.8327349 C44.940605,72.8327349 44.0832214,73.691221 44.0832214,74.7492531 L44.0832214,90.082495 C44.0832214,91.1416235 44.940605,91.9990132 45.9997259,91.9990132 C47.0577504,91.9990132 47.9173268,91.1416235 47.9173268,90.082495 L47.9173268,74.7492531 C47.9173268,73.691221 47.0577504,72.8327349 45.9997259,72.8327349" id="Fill-69"></path>
            <path d="M24.9165319,3.83193998 C29.1442443,3.83193998 32.5836463,7.27246292 32.5836463,11.4991092 C32.5836463,15.7268518 29.1442443,19.1651819 24.9165319,19.1651819 C20.6888195,19.1651819 17.2494175,15.7268518 17.2494175,11.4991092 C17.2494175,7.27246292 20.6888195,3.83193998 24.9165319,3.83193998 M24.9165319,22.9982183 C31.2570041,22.9982183 36.4166552,17.8407232 36.4166552,11.4991092 C36.4166552,5.15749519 31.2570041,0 24.9165319,0 C18.5749633,0 13.4164086,5.15859159 13.4164086,11.4991092 C13.4164086,17.8407232 18.5749633,22.9982183 24.9165319,22.9982183" id="Fill-71"></path>
            <path d="M67.0839067,3.83193998 C71.3105227,3.83193998 74.751021,7.27246292 74.751021,11.4991092 C74.751021,15.7268518 71.3105227,19.1651819 67.0839067,19.1651819 C62.8550978,19.1651819 59.4167923,15.7268518 59.4167923,11.4991092 C59.4167923,7.27246292 62.8550978,3.83193998 67.0839067,3.83193998 M67.0839067,22.9982183 C73.4243789,22.9982183 78.58403,17.8407232 78.58403,11.4991092 C78.58403,5.15749519 73.4243789,0 67.0839067,0 C60.7434344,0 55.5837833,5.15859159 55.5837833,11.4991092 C55.5837833,17.8407232 60.7434344,22.9982183 67.0839067,22.9982183" id="Fill-73"></path>
            <path d="M22.0416655,61.3334064 C20.9825446,61.3334064 20.125161,62.1907961 20.125161,63.2488282 L20.125161,90.0833722 C20.125161,91.1414042 20.983641,91.9998904 22.0416655,91.9998904 C23.09969,91.9998904 23.9592664,91.1414042 23.9592664,90.0833722 L23.9592664,63.2488282 C23.9592664,62.1907961 23.09969,61.3334064 22.0416655,61.3334064" id="Fill-75"></path>
            <path d="M15.3331323,74.7493627 C14.2751078,74.7493627 13.4155314,75.6078488 13.4155314,76.6658809 L13.4155314,90.0826047 C13.4155314,91.1417332 14.2751078,91.9991229 15.3331323,91.9991229 C16.3922532,91.9991229 17.2496368,91.1417332 17.2496368,90.0826047 L17.2496368,76.6658809 C17.2496368,75.6078488 16.3922532,74.7493627 15.3331323,74.7493627" id="Fill-77"></path>
            <path d="M15.3331323,39.5304902 C11.7665482,39.5304902 8.86438147,36.6293992 8.86438147,33.0627895 C8.86438147,29.4950835 11.7665482,26.592896 15.3331323,26.592896 C18.9008129,26.592896 21.8018832,29.4950835 21.8018832,33.0627895 C21.8018832,36.6293992 18.9008129,39.5304902 15.3331323,39.5304902 M15.3331323,22.7587632 C9.65159556,22.7587632 5.03137249,27.3812121 5.03137249,33.0627895 C5.03137249,36.2555246 6.49287162,39.1127594 8.77886239,41.0051567 C3.59509052,43.4665888 0,48.7523635 0,54.8637322 L0,68.280456 C0,69.338488 0.858479987,70.1980706 1.91650449,70.1980706 L6.70886212,70.1980706 L6.70886212,90.082495 C6.70886212,91.1416235 7.56624571,91.9990132 8.62536661,91.9990132 C9.68339111,91.9990132 10.5418711,91.1416235 10.5418711,90.082495 L10.5418711,63.2490475 C10.5418711,62.1910154 9.68339111,61.3336257 8.62536661,61.3336257 C7.56624571,61.3336257 6.70886212,62.1910154 6.70886212,63.2490475 L6.70886212,66.3639378 L3.83300898,66.3639378 L3.83300898,54.8637322 C3.83300898,48.5221182 8.99156369,43.3635266 15.3331323,43.3635266 C21.0135727,43.3635266 25.6348922,38.7421741 25.6348922,33.0627895 C25.6348922,27.3812121 21.0135727,22.7587632 15.3331323,22.7587632" id="Fill-79"></path>
            <path d="M70.1981168,33.062351 C70.1981168,29.4946449 73.0991871,26.5935538 76.6657713,26.5935538 C80.2334518,26.5935538 83.1345221,29.4946449 83.1345221,33.062351 C83.1345221,36.6289606 80.2334518,39.5300517 76.6657713,39.5300517 C73.0991871,39.5300517 70.1981168,36.6289606 70.1981168,33.062351 M83.2200412,41.0047181 C85.5071284,39.1145137 86.9675311,36.2550861 86.9675311,33.062351 C86.9675311,27.3807736 82.3462116,22.7605175 76.6657713,22.7605175 C70.9864273,22.7605175 66.3651078,27.3807736 66.3651078,33.062351 C66.3651078,38.7428319 70.9864273,43.3641845 76.6657713,43.3641845 C83.0073399,43.3641845 88.166991,48.5238725 88.166991,54.86439 L88.166991,66.3645956 L85.2922343,66.3645956 L85.2922343,63.2486089 C85.2922343,62.1905769 84.4326579,61.3331871 83.3746334,61.3331871 C82.3166089,61.3331871 81.4592253,62.1905769 81.4592253,63.2486089 L81.4592253,90.0831529 C81.4592253,91.1422814 82.3166089,91.9996711 83.3746334,91.9996711 C84.4326579,91.9996711 85.2922343,91.1422814 85.2922343,90.0831529 L85.2922343,70.197632 L90.0823991,70.197632 C91.1426164,70.197632 92,69.3391459 92,68.2811138 L92,54.86439 C92,48.7530214 88.4038131,43.4661502 83.2200412,41.0047181" id="Fill-81"></path>
            <path d="M69.9582248,61.3334064 C68.9002003,61.3334064 68.0406239,62.1907961 68.0406239,63.2488282 L68.0406239,90.0833722 C68.0406239,91.1414042 68.9002003,91.9998904 69.9582248,91.9998904 C71.0162493,91.9998904 71.8747293,91.1414042 71.8747293,90.0833722 L71.8747293,63.2488282 C71.8747293,62.1907961 71.0162493,61.3334064 69.9582248,61.3334064" id="Fill-83"></path>
            <path d="M76.6662098,74.7493627 C75.6081853,74.7493627 74.7508017,75.6078488 74.7508017,76.6658809 L74.7508017,90.0826047 C74.7508017,91.1417332 75.6081853,91.9991229 76.6662098,91.9991229 C77.7242343,91.9991229 78.5838107,91.1417332 78.5838107,90.0826047 L78.5838107,76.6658809 C78.5838107,75.6078488 77.7242343,74.7493627 76.6662098,74.7493627" id="Fill-85"></path>
        </g>
    </g>
</svg>