<?xml version="1.0" encoding="UTF-8" standalone="no"?>
<!DOCTYPE svg PUBLIC "-//W3C//DTD SVG 1.1//EN" "http://www.w3.org/Graphics/SVG/1.1/DTD/svg11.dtd">
<svg width="100%" height="100%" viewBox="0 0 206 43" version="1.1" xmlns="http://www.w3.org/2000/svg" xmlns:xlink="http://www.w3.org/1999/xlink" xml:space="preserve" xmlns:serif="http://www.serif.com/" style="fill-rule:evenodd;clip-rule:evenodd;stroke-linejoin:round;stroke-miterlimit:2;">
    <g id="Layer_2">
        <g id="Layer_1-2">
            <path d="M72,0C79.135,-0.131 85.842,3.481 89.66,9.51L84.66,13.2C82.034,8.724 77.189,5.996 72,6.07C63.56,6.07 57.12,12.57 57.12,21.33C57.12,30.09 63.59,36.58 72,36.58C77.178,36.643 82.009,33.916 84.63,29.45L89.63,33.14C86.13,38.96 79.63,42.65 71.94,42.65C60.18,42.84 49.99,33.14 50.24,21.33C50,9.51 60.21,-0.18 72,0M97.6,0.69L104.23,0.69L104.23,42L97.6,42L97.6,0.69ZM114.61,0.69L127.61,0.69C141.06,0.69 150,9.07 150,21.26C150,33.26 141,41.96 127.55,41.96L114.55,41.96L114.61,0.69ZM127.49,36C137.06,36 143.19,29.87 143.19,21.24C143.19,12.61 137.12,6.67 127.49,6.67L121.24,6.67L121.24,36L127.49,36ZM157.88,0.69L164.51,0.69L164.51,42L157.88,42L157.88,0.69ZM184.58,6.63L170.7,6.63L170.7,0.69L205.16,0.69L205.16,6.63L191.21,6.63L191.21,42L184.58,42L184.58,6.63Z" style="fill:white;fill-rule:nonzero;"/>
            <g>
                <clipPath id="_clip1">
                    <path d="M16.8,37.75C16.8,37.753 16.8,37.757 16.8,37.76C16.8,38.939 17.771,39.91 18.95,39.91C20.129,39.91 21.1,38.939 21.1,37.76C21.1,36.581 20.129,35.61 18.95,35.61C18.947,35.61 18.943,35.61 18.94,35.61C17.766,35.61 16.8,36.576 16.8,37.75M5.56,31.49C5.201,31.863 5,32.36 5,32.878C5,33.975 5.903,34.878 7,34.878C8.097,34.878 9,33.975 9,32.878C9,32.36 8.799,31.863 8.44,31.49C7.647,30.707 6.353,30.707 5.56,31.49M29.62,31.49C29.261,31.863 29.06,32.36 29.06,32.878C29.06,33.975 29.963,34.878 31.06,34.878C32.157,34.878 33.06,33.975 33.06,32.878C33.06,32.36 32.859,31.863 32.5,31.49C31.707,30.707 30.413,30.707 29.62,31.49M2.25,18.8C2.247,18.8 2.243,18.8 2.24,18.8C1.061,18.8 0.09,19.771 0.09,20.95C0.09,22.129 1.061,23.1 2.24,23.1C3.419,23.1 4.39,22.129 4.39,20.95C4.39,20.947 4.39,20.943 4.39,20.94C4.39,19.766 3.424,18.8 2.25,18.8M35.75,18.8C34.571,18.8 33.6,19.771 33.6,20.95C33.6,22.129 34.571,23.1 35.75,23.1C36.929,23.1 37.9,22.129 37.9,20.95C37.9,20.947 37.9,20.94 37.9,20.94C37.9,19.766 36.934,18.8 35.76,18.8C35.757,18.8 35.753,18.8 35.75,18.8M5.56,7.44C5.194,7.814 4.988,8.317 4.988,8.84C4.988,9.937 5.891,10.84 6.988,10.84C8.085,10.84 8.988,9.937 8.988,8.84C8.988,7.747 8.093,6.846 7,6.84C6.459,6.837 5.939,7.053 5.56,7.44M29.62,7.44C29.254,7.814 29.048,8.317 29.048,8.84C29.048,9.937 29.951,10.84 31.048,10.84C32.145,10.84 33.048,9.937 33.048,8.84C33.048,7.747 32.153,6.846 31.06,6.84C30.519,6.837 29.999,7.053 29.62,7.44M16.8,4.14C16.8,4.143 16.8,4.147 16.8,4.15C16.8,5.329 17.771,6.3 18.95,6.3C20.129,6.3 21.1,5.329 21.1,4.15C21.1,2.971 20.129,2 18.95,2C18.947,2 18.943,2 18.94,2C17.766,2 16.8,2.966 16.8,4.14M21.4,11.32C21.32,10.724 21.421,10.118 21.69,9.58C21.935,9.035 22.273,8.538 22.69,8.11C23.08,7.703 23.537,7.365 24.04,7.11C24.417,6.9 24.839,6.78 25.27,6.76C25.371,6.94 25.458,7.127 25.53,7.32C25.74,7.856 25.852,8.425 25.86,9C25.864,9.531 25.776,10.059 25.6,10.56C25.427,11.147 25.077,11.667 24.6,12.05C24.163,12.486 23.917,13.078 23.917,13.695C23.917,14.969 24.966,16.018 26.24,16.018C26.855,16.018 27.445,15.774 27.88,15.34C28.228,14.879 28.705,14.531 29.25,14.34C30.293,13.958 31.436,13.94 32.49,14.29C32.707,14.362 32.918,14.452 33.12,14.56C33.095,14.947 32.989,15.326 32.81,15.67C32.57,16.214 32.231,16.71 31.81,17.13C31.422,17.54 30.965,17.879 30.46,18.13C29.892,18.438 29.241,18.56 28.6,18.48C27.318,18.562 26.306,19.64 26.306,20.925C26.306,22.21 27.318,23.288 28.6,23.37C29.196,23.296 29.8,23.397 30.34,23.66C30.886,23.903 31.384,24.242 31.81,24.66C32.213,25.054 32.551,25.51 32.81,26.01C33.005,26.364 33.121,26.757 33.15,27.16C32.988,27.246 32.821,27.323 32.65,27.39C32.112,27.59 31.543,27.691 30.97,27.69C30.439,27.694 29.911,27.606 29.41,27.43C28.823,27.257 28.303,26.907 27.92,26.43C27.493,26.048 26.94,25.837 26.367,25.837C25.089,25.837 24.037,26.889 24.037,28.167C24.037,28.74 24.248,29.293 24.63,29.72C25.094,30.069 25.442,30.55 25.63,31.1C25.835,31.633 25.937,32.199 25.93,32.77C25.932,33.3 25.847,33.827 25.68,34.33C25.599,34.594 25.485,34.846 25.34,35.08C24.961,35.042 24.592,34.937 24.25,34.77C23.706,34.53 23.21,34.191 22.79,33.77C22.383,33.38 22.045,32.923 21.79,32.42C21.482,31.852 21.36,31.201 21.44,30.56C21.44,29.221 20.339,28.12 19,28.12C17.661,28.12 16.56,29.221 16.56,30.56C16.631,31.157 16.527,31.761 16.26,32.3C15.766,33.356 14.931,34.215 13.89,34.74C13.579,34.908 13.24,35.02 12.89,35.07C12.774,34.876 12.677,34.672 12.6,34.46C12.4,33.922 12.299,33.353 12.3,32.78C12.296,32.249 12.384,31.721 12.56,31.22C12.733,30.633 13.083,30.113 13.56,29.73C13.997,29.294 14.243,28.702 14.243,28.085C14.243,26.811 13.194,25.762 11.92,25.762C11.305,25.762 10.715,26.006 10.28,26.44C9.932,26.901 9.455,27.249 8.91,27.44C8.374,27.644 7.804,27.746 7.23,27.74C6.7,27.742 6.173,27.657 5.67,27.49C5.437,27.412 5.213,27.312 5,27.19C5.037,26.801 5.153,26.423 5.34,26.08C5.599,25.58 5.937,25.124 6.34,24.73C6.766,24.312 7.264,23.973 7.81,23.73C8.35,23.467 8.954,23.366 9.55,23.44C10.832,23.358 11.844,22.28 11.844,20.995C11.844,19.71 10.832,18.632 9.55,18.55C8.909,18.63 8.258,18.508 7.69,18.2C7.185,17.949 6.728,17.61 6.34,17.2C5.919,16.78 5.58,16.284 5.34,15.74C5.172,15.402 5.067,15.036 5.03,14.66C5.218,14.56 5.412,14.47 5.61,14.39C6.148,14.19 6.717,14.089 7.29,14.09C7.821,14.086 8.349,14.174 8.85,14.35C9.437,14.523 9.957,14.873 10.34,15.35C10.767,15.732 11.32,15.943 11.893,15.943C13.171,15.943 14.223,14.891 14.223,13.613C14.223,13.04 14.012,12.487 13.63,12.06C13.172,11.709 12.825,11.233 12.63,10.69C12.27,9.64 12.27,8.5 12.63,7.45C12.702,7.217 12.8,6.992 12.92,6.78C13.268,6.825 13.605,6.926 13.92,7.08C14.466,7.323 14.964,7.662 15.39,8.08C15.797,8.47 16.135,8.927 16.39,9.43C16.698,9.998 16.82,10.649 16.74,11.29C16.822,12.572 17.9,13.584 19.185,13.584C20.47,13.584 21.548,12.572 21.63,11.29M9.7,3.43C9.705,3.46 9.705,3.49 9.7,3.52L9.7,3.62C9.557,3.996 9.512,4.402 9.57,4.8C9.692,5.42 10.051,5.969 10.57,6.33C10.849,6.609 11.055,6.952 11.17,7.33C11.378,7.862 11.484,8.429 11.48,9C11.477,9.53 11.389,10.057 11.22,10.56C10.766,11.65 9.91,12.524 8.83,13C8.292,13.2 7.723,13.301 7.15,13.3C6.62,13.302 6.093,13.217 5.59,13.05C5,12.866 4.473,12.519 4.07,12.05C3.635,11.612 3.042,11.366 2.425,11.366C1.808,11.366 1.215,11.612 0.78,12.05C0.562,12.271 0.389,12.533 0.27,12.82C0.085,13.185 -0.008,13.591 0,14C0.016,15.325 1.114,16.406 2.44,16.4C3.09,16.34 3.744,16.472 4.32,16.78C4.823,17.035 5.28,17.373 5.67,17.78C6.091,18.2 6.43,18.696 6.67,19.24C7.119,20.404 7.101,21.699 6.62,22.85C6.364,23.35 6.026,23.803 5.62,24.19C5.192,24.607 4.695,24.945 4.15,25.19C3.61,25.453 3.006,25.554 2.41,25.48C1.083,25.496 -0,26.593 -0,27.92C-0.003,28.49 0.196,29.042 0.56,29.48C0.628,29.571 0.702,29.658 0.78,29.74C1.652,30.608 3.071,30.639 3.98,29.81C4.096,29.717 4.204,29.613 4.3,29.5C4.606,29.156 5,28.904 5.44,28.77C5.976,28.564 6.546,28.462 7.12,28.47C7.65,28.468 8.177,28.553 8.68,28.72C9.777,29.17 10.659,30.026 11.14,31.11C11.34,31.648 11.441,32.217 11.44,32.79C11.444,33.321 11.356,33.849 11.18,34.35C11.012,34.908 10.689,35.407 10.25,35.79L10.19,35.84C9.526,36.506 9.328,37.512 9.69,38.38C10.05,39.324 10.96,39.951 11.97,39.951C13.309,39.951 14.41,38.85 14.41,37.511C14.41,37.511 14.41,37.51 14.41,37.51C14.336,36.914 14.437,36.31 14.7,35.77C14.941,35.223 15.28,34.725 15.7,34.3C16.087,33.894 16.54,33.556 17.04,33.3C18.191,32.821 19.483,32.8 20.65,33.24C21.194,33.486 21.691,33.825 22.12,34.24C22.529,34.629 22.867,35.086 23.12,35.59C23.428,36.166 23.56,36.82 23.5,37.47C23.5,37.489 23.499,37.507 23.499,37.526C23.499,38.859 24.596,39.956 25.929,39.956C26.504,39.956 27.061,39.752 27.5,39.38C27.653,39.287 27.794,39.177 27.92,39.05C28.358,38.615 28.604,38.022 28.604,37.405C28.604,36.788 28.358,36.195 27.92,35.76C27.455,35.416 27.106,34.938 26.92,34.39C26.714,33.854 26.612,33.284 26.62,32.71C26.62,32.18 26.705,31.653 26.87,31.15C27.317,30.051 28.175,29.168 29.26,28.69C29.798,28.49 30.367,28.389 30.94,28.39C31.47,28.388 31.997,28.473 32.5,28.64C32.893,28.761 33.258,28.962 33.57,29.23C33.8,29.557 34.105,29.825 34.46,30.01C34.829,30.238 35.254,30.359 35.687,30.359C36.86,30.359 37.859,29.474 38,28.31C38.02,28.184 38.03,28.057 38.03,27.93C38.03,26.59 36.93,25.486 35.59,25.48C34.994,25.554 34.39,25.453 33.85,25.19C32.794,24.696 31.935,23.861 31.41,22.82C30.929,21.669 30.911,20.374 31.36,19.21C31.6,18.666 31.939,18.17 32.36,17.75C32.748,17.34 33.205,17.001 33.71,16.75C34.286,16.442 34.94,16.31 35.59,16.37C36.891,16.355 37.963,15.301 38,14L38,13.85C37.989,13.623 37.952,13.398 37.89,13.18C37.789,12.749 37.571,12.355 37.26,12.04C36.825,11.602 36.232,11.356 35.615,11.356C34.998,11.356 34.405,11.602 33.97,12.04C33.626,12.505 33.148,12.854 32.6,13.04C32.064,13.246 31.494,13.348 30.92,13.34C30.389,13.344 29.861,13.256 29.36,13.08C28.262,12.637 27.379,11.783 26.9,10.7C26.698,10.156 26.596,9.58 26.6,9C26.596,8.469 26.684,7.941 26.86,7.44C27.038,6.847 27.385,6.318 27.86,5.92C28.285,5.483 28.522,4.898 28.522,4.289C28.522,3.188 27.746,2.229 26.67,2C26.43,1.928 26.181,1.891 25.93,1.89C24.591,1.89 23.49,2.991 23.49,4.33C23.561,4.927 23.457,5.531 23.19,6.07C22.947,6.616 22.608,7.114 22.19,7.54C21.796,7.943 21.34,8.281 20.84,8.54C19.689,9.021 18.394,9.039 17.23,8.59C16.686,8.35 16.19,8.011 15.77,7.59C15.36,7.202 15.021,6.745 14.77,6.24C14.463,5.664 14.335,5.009 14.4,4.36C14.4,4.358 14.4,4.357 14.4,4.355C14.4,3.016 13.299,1.915 11.96,1.915C10.96,1.915 10.057,2.53 9.69,3.46"/>
                </clipPath>
                <g clip-path="url(#_clip1)">
                    <rect x="0" y="1.89" width="38" height="38.11" style="fill:url(#_Linear2);fill-rule:nonzero;"/>
                </g>
            </g>
        </g>
    </g>
    <defs>
        <linearGradient id="_Linear2" x1="0" y1="0" x2="1" y2="0" gradientUnits="userSpaceOnUse" gradientTransform="matrix(0,-39.32,39.32,0,31.5652,39.3888)"><stop offset="0" style="stop-color:rgb(29,170,186);stop-opacity:1"/><stop offset="1" style="stop-color:rgb(177,247,80);stop-opacity:1"/></linearGradient>
    </defs>
</svg>
